  0
SECTION
  2
HEADER
  9
$ACADVER
  1
AC1014
  9
$HANDSEED
  5
FFFF
  9
$MEASUREMENT
 70
     1
  0
ENDSEC
  0
SECTION
  2
TABLES
  0
TABLE
  2
VPORT
  5
8
330
0
100
AcDbSymbolTable
 70
     4
  0
VPORT
  5
2E
330
8
100
AcDbSymbolTableRecord
100
AcDbViewportTableRecord
  2
*ACTIVE
 70
     0
 10
0.0
 20
0.0
 11
1.0
 21
1.0
 12
210.0
 22
148.5
 13
0.0
 23
0.0
 14
10.0
 24
10.0
 15
10.0
 25
10.0
 16
0.0
 26
0.0
 36
1.0
 17
0.0
 27
0.0
 37
0.0
 40
341.0
 41
1.24
 42
50.0
 43
0.0
 44
0.0
 50
0.0
 51
0.0
 71
     0
 72
   100
 73
     1
 74
     3
 75
     0
 76
     0
 77
     0
 78
     0
  0
ENDTAB
  0
TABLE
  2
LTYPE
  5
5
330
0
100
AcDbSymbolTable
 70
     1
  0
LTYPE
  5
14
330
5
100
AcDbSymbolTableRecord
100
AcDbLinetypeTableRecord
  2
BYBLOCK
 70
     0
  3

 72
    65
 73
     0
 40
0.0
  0
LTYPE
  5
15
330
5
100
AcDbSymbolTableRecord
100
AcDbLinetypeTableRecord
  2
BYLAYER
 70
     0
  3

 72
    65
 73
     0
 40
0.0
  0
LTYPE
  5
16
330
5
100
AcDbSymbolTableRecord
100
AcDbLinetypeTableRecord
  2
CONTINUOUS
 70
     0
  3
Solid line
 72
    65
 73
     0
 40
0.0
  0
ENDTAB
  0
TABLE
  2
LAYER
  5
2
100
AcDbSymbolTable
 70
5
  0
LAYER
  5
50
100
AcDbSymbolTableRecord
100
AcDbLayerTableRecord
  2
0
 70
0
  6
CONTINUOUS
  0
LAYER
  5
51
100
AcDbSymbolTableRecord
100
AcDbLayerTableRecord
  2
panel
 70
0
  6
CONTINUOUS
  0
LAYER
  5
52
100
AcDbSymbolTableRecord
100
AcDbLayerTableRecord
  2
graphic
 70
0
  6
CONTINUOUS
  0
LAYER
  5
53
100
AcDbSymbolTableRecord
100
AcDbLayerTableRecord
  2
logo
 70
0
  6
CONTINUOUS
  0
LAYER
  5
54
100
AcDbSymbolTableRecord
100
AcDbLayerTableRecord
  2
text
 70
0
  6
CONTINUOUS
  0
ENDTAB
  0
TABLE
  2
STYLE
  5
3
330
0
100
AcDbSymbolTable
 70
     1
  0
STYLE
  5
11
330
3
100
AcDbSymbolTableRecord
100
AcDbTextStyleTableRecord
  2
STANDARD
 70
     0
 40
0.0
 41
1.0
 50
0.0
 71
     0
 42
2.5
  3
txt
  4

  0
ENDTAB
  0
TABLE
  2
VIEW
  5
6
330
0
100
AcDbSymbolTable
 70
     0
  0
ENDTAB
  0
TABLE
  2
UCS
  5
7
330
0
100
AcDbSymbolTable
 70
     0
  0
ENDTAB
  0
TABLE
  2
APPID
  5
9
330
0
100
AcDbSymbolTable
 70
     2
  0
APPID
  5
12
330
9
100
AcDbSymbolTableRecord
100
AcDbRegAppTableRecord
  2
ACAD
 70
     0
  0
ENDTAB
  0
TABLE
  2
DIMSTYLE
  5
A
330
0
100
AcDbSymbolTable
 70
     1
  0
DIMSTYLE
105
27
330
A
100
AcDbSymbolTableRecord
100
AcDbDimStyleTableRecord
  2
ISO-25
 70
     0
  3

  4

  5

  6

  7

 40
1.0
 41
2.5
 42
0.625
 43
3.75
 44
1.25
 45
0.0
 46
0.0
 47
0.0
 48
0.0
140
2.5
141
2.5
142
0.0
143
0.03937007874016
144
1.0
145
0.0
146
1.0
147
0.625
 71
     0
 72
     0
 73
     0
 74
     0
 75
     0
 76
     0
 77
     1
 78
     8
170
     0
171
     3
172
     1
173
     0
174
     0
175
     0
176
     0
177
     0
178
     0
270
     2
271
     2
272
     2
273
     2
274
     3
340
11
275
     0
280
     0
281
     0
282
     0
283
     0
284
     8
285
     0
286
     0
287
     3
288
     0
  0
ENDTAB
  0
TABLE
  2
BLOCK_RECORD
  5
1
330
0
100
AcDbSymbolTable
 70
     1
  0
BLOCK_RECORD
  5
1F
330
1
100
AcDbSymbolTableRecord
100
AcDbBlockTableRecord
  2
*MODEL_SPACE
  0
BLOCK_RECORD
  5
1B
330
1
100
AcDbSymbolTableRecord
100
AcDbBlockTableRecord
  2
*PAPER_SPACE
  0
ENDTAB
  0
ENDSEC
  0
SECTION
  2
BLOCKS
  0
BLOCK
  5
20
330
1F
100
AcDbEntity
  8
0
100
AcDbBlockBegin
  2
*MODEL_SPACE
 70
     0
 10
0.0
 20
0.0
 30
0.0
  3
*MODEL_SPACE
  1

  0
ENDBLK
  5
21
330
1F
100
AcDbEntity
  8
0
100
AcDbBlockEnd
  0
BLOCK
  5
1C
330
1B
100
AcDbEntity
 67
     1
  8
0
100
AcDbBlockBegin
  2
*PAPER_SPACE
  1

  0
ENDBLK
  5
1D
330
1B
100
AcDbEntity
 67
     1
  8
0
100
AcDbBlockEnd
  0
ENDSEC
  0
SECTION
  2
ENTITIES
  0
LINE
  5
100
100
AcDbEntity
  8
panel
 62
7
100
AcDbLine
 10
0.049704
 20
0.049849
 30
0.0
 11
30.429903
 21
0.049849
 31
0.0
  0
LINE
  5
101
100
AcDbEntity
  8
panel
 62
7
100
AcDbLine
 10
0.049704
 20
128.450048
 30
0.0
 11
0.049704
 21
0.049849
 31
0.0
  0
LINE
  5
102
100
AcDbEntity
  8
panel
 62
7
100
AcDbLine
 10
30.429903
 20
0.049849
 30
0.0
 11
30.429903
 21
128.450048
 31
0.0
  0
LINE
  5
103
100
AcDbEntity
  8
panel
 62
7
100
AcDbLine
 10
30.429903
 20
128.450048
 30
0.0
 11
0.049704
 21
128.450048
 31
0.0
  0
SPLINE
  5
104
100
AcDbEntity
  8
panel
 62
7
100
AcDbSpline
 70
8
 71
3
 72
8
 73
4
 74
0
 40
0
 40
0
 40
0
 40
0
 40
1
 40
1
 40
1
 40
1
 10
3.039838
 20
4.596334
 30
0.0
 10
2.187211
 20
4.595469
 30
0.0
 10
1.496477
 20
3.902303
 30
0.0
 10
1.496477
 20
3.047538
 30
0.0
  0
SPLINE
  5
105
100
AcDbEntity
  8
panel
 62
7
100
AcDbSpline
 70
8
 71
3
 72
8
 73
4
 74
0
 40
0
 40
0
 40
0
 40
0
 40
1
 40
1
 40
1
 40
1
 10
1.496477
 20
3.047538
 30
0.0
 10
1.496477
 20
2.192773
 30
0.0
 10
2.187211
 20
1.499606
 30
0.0
 10
3.039838
 20
1.498741
 30
0.0
  0
LINE
  5
106
100
AcDbEntity
  8
panel
 62
7
100
AcDbLine
 10
3.039728
 20
1.498641
 30
0.0
 11
6.030015
 21
1.498641
 31
0.0
  0
SPLINE
  5
107
100
AcDbEntity
  8
panel
 62
7
100
AcDbSpline
 70
8
 71
3
 72
8
 73
4
 74
0
 40
0
 40
0
 40
0
 40
0
 40
1
 40
1
 40
1
 40
1
 10
6.030017
 20
1.498741
 30
0.0
 10
6.882645
 20
1.499606
 30
0.0
 10
7.573379
 20
2.192773
 30
0.0
 10
7.573379
 20
3.047538
 30
0.0
  0
SPLINE
  5
108
100
AcDbEntity
  8
panel
 62
7
100
AcDbSpline
 70
8
 71
3
 72
8
 73
4
 74
0
 40
0
 40
0
 40
0
 40
0
 40
1
 40
1
 40
1
 40
1
 10
7.573379
 20
3.047538
 30
0.0
 10
7.573379
 20
3.902303
 30
0.0
 10
6.882645
 20
4.595469
 30
0.0
 10
6.030017
 20
4.596334
 30
0.0
  0
LINE
  5
109
100
AcDbEntity
  8
panel
 62
7
100
AcDbLine
 10
3.039728
 20
4.596358
 30
0.0
 11
6.030015
 21
4.596358
 31
0.0
  0
SPLINE
  5
10a
100
AcDbEntity
  8
panel
 62
7
100
AcDbSpline
 70
8
 71
3
 72
8
 73
4
 74
0
 40
0
 40
0
 40
0
 40
0
 40
1
 40
1
 40
1
 40
1
 10
9.907280
 20
19.284927
 30
0.0
 10
9.906275
 20
21.022561
 30
0.0
 10
8.500884
 20
22.430658
 30
0.0
 10
6.767594
 20
22.430658
 30
0.0
  0
SPLINE
  5
10b
100
AcDbEntity
  8
panel
 62
7
100
AcDbSpline
 70
8
 71
3
 72
8
 73
4
 74
0
 40
0
 40
0
 40
0
 40
0
 40
1
 40
1
 40
1
 40
1
 10
6.767594
 20
22.430658
 30
0.0
 10
5.034304
 20
22.430658
 30
0.0
 10
3.628913
 20
21.022561
 30
0.0
 10
3.627909
 20
19.284927
 30
0.0
  0
SPLINE
  5
10c
100
AcDbEntity
  8
panel
 62
7
100
AcDbSpline
 70
8
 71
3
 72
8
 73
4
 74
0
 40
0
 40
0
 40
0
 40
0
 40
1
 40
1
 40
1
 40
1
 10
3.627909
 20
19.284927
 30
0.0
 10
3.628913
 20
17.547293
 30
0.0
 10
5.034304
 20
16.139196
 30
0.0
 10
6.767594
 20
16.139196
 30
0.0
  0
SPLINE
  5
10d
100
AcDbEntity
  8
panel
 62
7
100
AcDbSpline
 70
8
 71
3
 72
8
 73
4
 74
0
 40
0
 40
0
 40
0
 40
0
 40
1
 40
1
 40
1
 40
1
 10
6.767594
 20
16.139196
 30
0.0
 10
8.500884
 20
16.139196
 30
0.0
 10
9.906275
 20
17.547293
 30
0.0
 10
9.907280
 20
19.284927
 30
0.0
  0
LINE
  5
10e
100
AcDbEntity
  8
panel
 62
7
100
AcDbLine
 10
9.907280
 20
19.284927
 30
0.0
 11
9.907280
 21
19.284927
 31
0.0
  0
SPLINE
  5
10f
100
AcDbEntity
  8
panel
 62
7
100
AcDbSpline
 70
8
 71
3
 72
8
 73
4
 74
0
 40
0
 40
0
 40
0
 40
0
 40
1
 40
1
 40
1
 40
1
 10
9.907280
 20
32.274839
 30
0.0
 10
9.906275
 20
34.012473
 30
0.0
 10
8.500884
 20
35.420570
 30
0.0
 10
6.767594
 20
35.420570
 30
0.0
  0
SPLINE
  5
110
100
AcDbEntity
  8
panel
 62
7
100
AcDbSpline
 70
8
 71
3
 72
8
 73
4
 74
0
 40
0
 40
0
 40
0
 40
0
 40
1
 40
1
 40
1
 40
1
 10
6.767594
 20
35.420570
 30
0.0
 10
5.034304
 20
35.420570
 30
0.0
 10
3.628913
 20
34.012473
 30
0.0
 10
3.627909
 20
32.274839
 30
0.0
  0
SPLINE
  5
111
100
AcDbEntity
  8
panel
 62
7
100
AcDbSpline
 70
8
 71
3
 72
8
 73
4
 74
0
 40
0
 40
0
 40
0
 40
0
 40
1
 40
1
 40
1
 40
1
 10
3.627909
 20
32.274839
 30
0.0
 10
3.628913
 20
30.537205
 30
0.0
 10
5.034304
 20
29.129108
 30
0.0
 10
6.767594
 20
29.129108
 30
0.0
  0
SPLINE
  5
112
100
AcDbEntity
  8
panel
 62
7
100
AcDbSpline
 70
8
 71
3
 72
8
 73
4
 74
0
 40
0
 40
0
 40
0
 40
0
 40
1
 40
1
 40
1
 40
1
 10
6.767594
 20
29.129108
 30
0.0
 10
8.500884
 20
29.129108
 30
0.0
 10
9.906275
 20
30.537205
 30
0.0
 10
9.907280
 20
32.274839
 30
0.0
  0
LINE
  5
113
100
AcDbEntity
  8
panel
 62
7
100
AcDbLine
 10
9.907280
 20
32.274839
 30
0.0
 11
9.907280
 21
32.274839
 31
0.0
  0
SPLINE
  5
114
100
AcDbEntity
  8
panel
 62
7
100
AcDbSpline
 70
8
 71
3
 72
8
 73
4
 74
0
 40
0
 40
0
 40
0
 40
0
 40
1
 40
1
 40
1
 40
1
 10
16.784687
 20
32.274839
 30
0.0
 10
16.784687
 20
32.828171
 30
0.0
 10
16.490225
 20
33.339471
 30
0.0
 10
16.012224
 20
33.616137
 30
0.0
  0
SPLINE
  5
115
100
AcDbEntity
  8
panel
 62
7
100
AcDbSpline
 70
8
 71
3
 72
8
 73
4
 74
0
 40
0
 40
0
 40
0
 40
0
 40
1
 40
1
 40
1
 40
1
 10
16.012224
 20
33.616137
 30
0.0
 10
15.534222
 20
33.892803
 30
0.0
 10
14.945300
 20
33.892803
 30
0.0
 10
14.467299
 20
33.616137
 30
0.0
  0
SPLINE
  5
116
100
AcDbEntity
  8
panel
 62
7
100
AcDbSpline
 70
8
 71
3
 72
8
 73
4
 74
0
 40
0
 40
0
 40
0
 40
0
 40
1
 40
1
 40
1
 40
1
 10
14.467299
 20
33.616137
 30
0.0
 10
13.989297
 20
33.339471
 30
0.0
 10
13.694836
 20
32.828171
 30
0.0
 10
13.694836
 20
32.274839
 30
0.0
  0
SPLINE
  5
117
100
AcDbEntity
  8
panel
 62
7
100
AcDbSpline
 70
8
 71
3
 72
8
 73
4
 74
0
 40
0
 40
0
 40
0
 40
0
 40
1
 40
1
 40
1
 40
1
 10
13.694836
 20
32.274839
 30
0.0
 10
13.694836
 20
31.419462
 30
0.0
 10
14.386523
 20
30.726041
 30
0.0
 10
15.239761
 20
30.726041
 30
0.0
  0
SPLINE
  5
118
100
AcDbEntity
  8
panel
 62
7
100
AcDbSpline
 70
8
 71
3
 72
8
 73
4
 74
0
 40
0
 40
0
 40
0
 40
0
 40
1
 40
1
 40
1
 40
1
 10
15.239761
 20
30.726041
 30
0.0
 10
16.093000
 20
30.726041
 30
0.0
 10
16.784687
 20
31.419462
 30
0.0
 10
16.784687
 20
32.274839
 30
0.0
  0
LINE
  5
119
100
AcDbEntity
  8
panel
 62
7
100
AcDbLine
 10
16.784687
 20
32.274839
 30
0.0
 11
16.784687
 21
32.274839
 31
0.0
  0
SPLINE
  5
11a
100
AcDbEntity
  8
panel
 62
7
100
AcDbSpline
 70
8
 71
3
 72
8
 73
4
 74
0
 40
0
 40
0
 40
0
 40
0
 40
1
 40
1
 40
1
 40
1
 10
16.784687
 20
19.284927
 30
0.0
 10
16.784687
 20
19.838259
 30
0.0
 10
16.490225
 20
20.349559
 30
0.0
 10
16.012224
 20
20.626225
 30
0.0
  0
SPLINE
  5
11b
100
AcDbEntity
  8
panel
 62
7
100
AcDbSpline
 70
8
 71
3
 72
8
 73
4
 74
0
 40
0
 40
0
 40
0
 40
0
 40
1
 40
1
 40
1
 40
1
 10
16.012224
 20
20.626225
 30
0.0
 10
15.534222
 20
20.902892
 30
0.0
 10
14.945300
 20
20.902892
 30
0.0
 10
14.467299
 20
20.626225
 30
0.0
  0
SPLINE
  5
11c
100
AcDbEntity
  8
panel
 62
7
100
AcDbSpline
 70
8
 71
3
 72
8
 73
4
 74
0
 40
0
 40
0
 40
0
 40
0
 40
1
 40
1
 40
1
 40
1
 10
14.467299
 20
20.626225
 30
0.0
 10
13.989297
 20
20.349559
 30
0.0
 10
13.694836
 20
19.838259
 30
0.0
 10
13.694836
 20
19.284927
 30
0.0
  0
SPLINE
  5
11d
100
AcDbEntity
  8
panel
 62
7
100
AcDbSpline
 70
8
 71
3
 72
8
 73
4
 74
0
 40
0
 40
0
 40
0
 40
0
 40
1
 40
1
 40
1
 40
1
 10
13.694836
 20
19.284927
 30
0.0
 10
13.694836
 20
18.429550
 30
0.0
 10
14.386523
 20
17.736130
 30
0.0
 10
15.239761
 20
17.736130
 30
0.0
  0
SPLINE
  5
11e
100
AcDbEntity
  8
panel
 62
7
100
AcDbSpline
 70
8
 71
3
 72
8
 73
4
 74
0
 40
0
 40
0
 40
0
 40
0
 40
1
 40
1
 40
1
 40
1
 10
15.239761
 20
17.736130
 30
0.0
 10
16.093000
 20
17.736130
 30
0.0
 10
16.784687
 20
18.429550
 30
0.0
 10
16.784687
 20
19.284927
 30
0.0
  0
LINE
  5
11f
100
AcDbEntity
  8
panel
 62
7
100
AcDbLine
 10
16.784687
 20
19.284927
 30
0.0
 11
16.784687
 21
19.284927
 31
0.0
  0
SPLINE
  5
120
100
AcDbEntity
  8
panel
 62
7
100
AcDbSpline
 70
8
 71
3
 72
8
 73
4
 74
0
 40
0
 40
0
 40
0
 40
0
 40
1
 40
1
 40
1
 40
1
 10
24.449508
 20
4.596334
 30
0.0
 10
23.596880
 20
4.595469
 30
0.0
 10
22.906146
 20
3.902303
 30
0.0
 10
22.906146
 20
3.047538
 30
0.0
  0
SPLINE
  5
121
100
AcDbEntity
  8
panel
 62
7
100
AcDbSpline
 70
8
 71
3
 72
8
 73
4
 74
0
 40
0
 40
0
 40
0
 40
0
 40
1
 40
1
 40
1
 40
1
 10
22.906146
 20
3.047538
 30
0.0
 10
22.906146
 20
2.192773
 30
0.0
 10
23.596880
 20
1.499606
 30
0.0
 10
24.449508
 20
1.498741
 30
0.0
  0
LINE
  5
122
100
AcDbEntity
  8
panel
 62
7
100
AcDbLine
 10
24.449592
 20
1.498641
 30
0.0
 11
27.439616
 21
1.498641
 31
0.0
  0
SPLINE
  5
123
100
AcDbEntity
  8
panel
 62
7
100
AcDbSpline
 70
8
 71
3
 72
8
 73
4
 74
0
 40
0
 40
0
 40
0
 40
0
 40
1
 40
1
 40
1
 40
1
 10
27.439684
 20
1.498741
 30
0.0
 10
28.292312
 20
1.499606
 30
0.0
 10
28.983045
 20
2.192773
 30
0.0
 10
28.983045
 20
3.047538
 30
0.0
  0
SPLINE
  5
124
100
AcDbEntity
  8
panel
 62
7
100
AcDbSpline
 70
8
 71
3
 72
8
 73
4
 74
0
 40
0
 40
0
 40
0
 40
0
 40
1
 40
1
 40
1
 40
1
 10
28.983045
 20
3.047538
 30
0.0
 10
28.983045
 20
3.902303
 30
0.0
 10
28.292312
 20
4.595469
 30
0.0
 10
27.439684
 20
4.596334
 30
0.0
  0
LINE
  5
125
100
AcDbEntity
  8
panel
 62
7
100
AcDbLine
 10
24.449592
 20
4.596358
 30
0.0
 11
27.439616
 21
4.596358
 31
0.0
  0
SPLINE
  5
126
100
AcDbEntity
  8
panel
 62
7
100
AcDbSpline
 70
8
 71
3
 72
8
 73
4
 74
0
 40
0
 40
0
 40
0
 40
0
 40
1
 40
1
 40
1
 40
1
 10
26.851616
 20
19.284927
 30
0.0
 10
26.850612
 20
21.022561
 30
0.0
 10
25.445221
 20
22.430658
 30
0.0
 10
23.711931
 20
22.430658
 30
0.0
  0
SPLINE
  5
127
100
AcDbEntity
  8
panel
 62
7
100
AcDbSpline
 70
8
 71
3
 72
8
 73
4
 74
0
 40
0
 40
0
 40
0
 40
0
 40
1
 40
1
 40
1
 40
1
 10
23.711931
 20
22.430658
 30
0.0
 10
21.978641
 20
22.430658
 30
0.0
 10
20.573250
 20
21.022561
 30
0.0
 10
20.572246
 20
19.284927
 30
0.0
  0
SPLINE
  5
128
100
AcDbEntity
  8
panel
 62
7
100
AcDbSpline
 70
8
 71
3
 72
8
 73
4
 74
0
 40
0
 40
0
 40
0
 40
0
 40
1
 40
1
 40
1
 40
1
 10
20.572246
 20
19.284927
 30
0.0
 10
20.573250
 20
17.547293
 30
0.0
 10
21.978641
 20
16.139196
 30
0.0
 10
23.711931
 20
16.139196
 30
0.0
  0
SPLINE
  5
129
100
AcDbEntity
  8
panel
 62
7
100
AcDbSpline
 70
8
 71
3
 72
8
 73
4
 74
0
 40
0
 40
0
 40
0
 40
0
 40
1
 40
1
 40
1
 40
1
 10
23.711931
 20
16.139196
 30
0.0
 10
25.445221
 20
16.139196
 30
0.0
 10
26.850612
 20
17.547293
 30
0.0
 10
26.851616
 20
19.284927
 30
0.0
  0
LINE
  5
12a
100
AcDbEntity
  8
panel
 62
7
100
AcDbLine
 10
26.851616
 20
19.284927
 30
0.0
 11
26.851616
 21
19.284927
 31
0.0
  0
SPLINE
  5
12b
100
AcDbEntity
  8
panel
 62
7
100
AcDbSpline
 70
8
 71
3
 72
8
 73
4
 74
0
 40
0
 40
0
 40
0
 40
0
 40
1
 40
1
 40
1
 40
1
 10
26.851616
 20
32.274839
 30
0.0
 10
26.850612
 20
34.012473
 30
0.0
 10
25.445221
 20
35.420570
 30
0.0
 10
23.711931
 20
35.420570
 30
0.0
  0
SPLINE
  5
12c
100
AcDbEntity
  8
panel
 62
7
100
AcDbSpline
 70
8
 71
3
 72
8
 73
4
 74
0
 40
0
 40
0
 40
0
 40
0
 40
1
 40
1
 40
1
 40
1
 10
23.711931
 20
35.420570
 30
0.0
 10
21.978641
 20
35.420570
 30
0.0
 10
20.573250
 20
34.012473
 30
0.0
 10
20.572246
 20
32.274839
 30
0.0
  0
SPLINE
  5
12d
100
AcDbEntity
  8
panel
 62
7
100
AcDbSpline
 70
8
 71
3
 72
8
 73
4
 74
0
 40
0
 40
0
 40
0
 40
0
 40
1
 40
1
 40
1
 40
1
 10
20.572246
 20
32.274839
 30
0.0
 10
20.573250
 20
30.537205
 30
0.0
 10
21.978641
 20
29.129108
 30
0.0
 10
23.711931
 20
29.129108
 30
0.0
  0
SPLINE
  5
12e
100
AcDbEntity
  8
panel
 62
7
100
AcDbSpline
 70
8
 71
3
 72
8
 73
4
 74
0
 40
0
 40
0
 40
0
 40
0
 40
1
 40
1
 40
1
 40
1
 10
23.711931
 20
29.129108
 30
0.0
 10
25.445221
 20
29.129108
 30
0.0
 10
26.850612
 20
30.537205
 30
0.0
 10
26.851616
 20
32.274839
 30
0.0
  0
LINE
  5
12f
100
AcDbEntity
  8
panel
 62
7
100
AcDbLine
 10
26.851616
 20
32.274839
 30
0.0
 11
26.851616
 21
32.274839
 31
0.0
  0
SPLINE
  5
130
100
AcDbEntity
  8
panel
 62
7
100
AcDbSpline
 70
8
 71
3
 72
8
 73
4
 74
0
 40
0
 40
0
 40
0
 40
0
 40
1
 40
1
 40
1
 40
1
 10
21.967659
 20
48.262422
 30
0.0
 10
21.966710
 20
48.951568
 30
0.0
 10
21.409177
 20
49.509728
 30
0.0
 10
20.721753
 20
49.509728
 30
0.0
  0
SPLINE
  5
131
100
AcDbEntity
  8
panel
 62
7
100
AcDbSpline
 70
8
 71
3
 72
8
 73
4
 74
0
 40
0
 40
0
 40
0
 40
0
 40
1
 40
1
 40
1
 40
1
 10
20.721753
 20
49.509728
 30
0.0
 10
20.034329
 20
49.509728
 30
0.0
 10
19.476796
 20
48.951568
 30
0.0
 10
19.475847
 20
48.262422
 30
0.0
  0
SPLINE
  5
132
100
AcDbEntity
  8
panel
 62
7
100
AcDbSpline
 70
8
 71
3
 72
8
 73
4
 74
0
 40
0
 40
0
 40
0
 40
0
 40
1
 40
1
 40
1
 40
1
 10
19.475847
 20
48.262422
 30
0.0
 10
19.476796
 20
47.573275
 30
0.0
 10
20.034329
 20
47.015116
 30
0.0
 10
20.721753
 20
47.015116
 30
0.0
  0
SPLINE
  5
133
100
AcDbEntity
  8
panel
 62
7
100
AcDbSpline
 70
8
 71
3
 72
8
 73
4
 74
0
 40
0
 40
0
 40
0
 40
0
 40
1
 40
1
 40
1
 40
1
 10
20.721753
 20
47.015116
 30
0.0
 10
21.409177
 20
47.015116
 30
0.0
 10
21.966710
 20
47.573275
 30
0.0
 10
21.967659
 20
48.262422
 30
0.0
  0
LINE
  5
134
100
AcDbEntity
  8
panel
 62
7
100
AcDbLine
 10
21.967659
 20
48.262422
 30
0.0
 11
21.967659
 21
48.262422
 31
0.0
  0
SPLINE
  5
135
100
AcDbEntity
  8
panel
 62
7
100
AcDbSpline
 70
8
 71
3
 72
8
 73
4
 74
0
 40
0
 40
0
 40
0
 40
0
 40
1
 40
1
 40
1
 40
1
 10
27.948014
 20
48.262422
 30
0.0
 10
27.948014
 20
48.708657
 30
0.0
 10
27.710546
 20
49.120996
 30
0.0
 10
27.325061
 20
49.344113
 30
0.0
  0
SPLINE
  5
136
100
AcDbEntity
  8
panel
 62
7
100
AcDbSpline
 70
8
 71
3
 72
8
 73
4
 74
0
 40
0
 40
0
 40
0
 40
0
 40
1
 40
1
 40
1
 40
1
 10
27.325061
 20
49.344113
 30
0.0
 10
26.939576
 20
49.567231
 30
0.0
 10
26.464639
 20
49.567231
 30
0.0
 10
26.079154
 20
49.344113
 30
0.0
  0
SPLINE
  5
137
100
AcDbEntity
  8
panel
 62
7
100
AcDbSpline
 70
8
 71
3
 72
8
 73
4
 74
0
 40
0
 40
0
 40
0
 40
0
 40
1
 40
1
 40
1
 40
1
 10
26.079154
 20
49.344113
 30
0.0
 10
25.693669
 20
49.120996
 30
0.0
 10
25.456200
 20
48.708657
 30
0.0
 10
25.456200
 20
48.262422
 30
0.0
  0
SPLINE
  5
138
100
AcDbEntity
  8
panel
 62
7
100
AcDbSpline
 70
8
 71
3
 72
8
 73
4
 74
0
 40
0
 40
0
 40
0
 40
0
 40
1
 40
1
 40
1
 40
1
 10
25.456200
 20
48.262422
 30
0.0
 10
25.456200
 20
47.816186
 30
0.0
 10
25.693669
 20
47.403848
 30
0.0
 10
26.079154
 20
47.180730
 30
0.0
  0
SPLINE
  5
139
100
AcDbEntity
  8
panel
 62
7
100
AcDbSpline
 70
8
 71
3
 72
8
 73
4
 74
0
 40
0
 40
0
 40
0
 40
0
 40
1
 40
1
 40
1
 40
1
 10
26.079154
 20
47.180730
 30
0.0
 10
26.464639
 20
46.957612
 30
0.0
 10
26.939576
 20
46.957612
 30
0.0
 10
27.325061
 20
47.180730
 30
0.0
  0
SPLINE
  5
13a
100
AcDbEntity
  8
panel
 62
7
100
AcDbSpline
 70
8
 71
3
 72
8
 73
4
 74
0
 40
0
 40
0
 40
0
 40
0
 40
1
 40
1
 40
1
 40
1
 10
27.325061
 20
47.180730
 30
0.0
 10
27.710546
 20
47.403848
 30
0.0
 10
27.948014
 20
47.816186
 30
0.0
 10
27.948014
 20
48.262422
 30
0.0
  0
LINE
  5
13b
100
AcDbEntity
  8
panel
 62
7
100
AcDbLine
 10
27.948014
 20
48.262422
 30
0.0
 11
27.948014
 21
48.262422
 31
0.0
  0
SPLINE
  5
13c
100
AcDbEntity
  8
panel
 62
7
100
AcDbSpline
 70
8
 71
3
 72
8
 73
4
 74
0
 40
0
 40
0
 40
0
 40
0
 40
1
 40
1
 40
1
 40
1
 10
18.827974
 20
89.230603
 30
0.0
 10
18.827974
 20
91.217285
 30
0.0
 10
17.221476
 20
92.827809
 30
0.0
 10
15.239761
 20
92.827809
 30
0.0
  0
SPLINE
  5
13d
100
AcDbEntity
  8
panel
 62
7
100
AcDbSpline
 70
8
 71
3
 72
8
 73
4
 74
0
 40
0
 40
0
 40
0
 40
0
 40
1
 40
1
 40
1
 40
1
 10
15.239761
 20
92.827809
 30
0.0
 10
13.258046
 20
92.827809
 30
0.0
 10
11.651549
 20
91.217285
 30
0.0
 10
11.651549
 20
89.230603
 30
0.0
  0
SPLINE
  5
13e
100
AcDbEntity
  8
panel
 62
7
100
AcDbSpline
 70
8
 71
3
 72
8
 73
4
 74
0
 40
0
 40
0
 40
0
 40
0
 40
1
 40
1
 40
1
 40
1
 10
11.651549
 20
89.230603
 30
0.0
 10
11.651549
 20
87.945445
 30
0.0
 10
12.335458
 20
86.757910
 30
0.0
 10
13.445655
 20
86.115331
 30
0.0
  0
SPLINE
  5
13f
100
AcDbEntity
  8
panel
 62
7
100
AcDbSpline
 70
8
 71
3
 72
8
 73
4
 74
0
 40
0
 40
0
 40
0
 40
0
 40
1
 40
1
 40
1
 40
1
 10
13.445655
 20
86.115331
 30
0.0
 10
14.555852
 20
85.472752
 30
0.0
 10
15.923671
 20
85.472752
 30
0.0
 10
17.033868
 20
86.115331
 30
0.0
  0
SPLINE
  5
140
100
AcDbEntity
  8
panel
 62
7
100
AcDbSpline
 70
8
 71
3
 72
8
 73
4
 74
0
 40
0
 40
0
 40
0
 40
0
 40
1
 40
1
 40
1
 40
1
 10
17.033868
 20
86.115331
 30
0.0
 10
18.144064
 20
86.757910
 30
0.0
 10
18.827974
 20
87.945445
 30
0.0
 10
18.827974
 20
89.230603
 30
0.0
  0
LINE
  5
141
100
AcDbEntity
  8
panel
 62
7
100
AcDbLine
 10
18.827974
 20
89.230603
 30
0.0
 11
18.827974
 21
89.230603
 31
0.0
  0
SPLINE
  5
142
100
AcDbEntity
  8
panel
 62
7
100
AcDbSpline
 70
8
 71
3
 72
8
 73
4
 74
0
 40
0
 40
0
 40
0
 40
0
 40
1
 40
1
 40
1
 40
1
 10
3.039838
 20
127.001268
 30
0.0
 10
2.487890
 20
127.001268
 30
0.0
 10
1.977868
 20
126.706068
 30
0.0
 10
1.701894
 20
126.226869
 30
0.0
  0
SPLINE
  5
143
100
AcDbEntity
  8
panel
 62
7
100
AcDbSpline
 70
8
 71
3
 72
8
 73
4
 74
0
 40
0
 40
0
 40
0
 40
0
 40
1
 40
1
 40
1
 40
1
 10
1.701894
 20
126.226869
 30
0.0
 10
1.425919
 20
125.747669
 30
0.0
 10
1.425919
 20
125.157271
 30
0.0
 10
1.701894
 20
124.678071
 30
0.0
  0
SPLINE
  5
144
100
AcDbEntity
  8
panel
 62
7
100
AcDbSpline
 70
8
 71
3
 72
8
 73
4
 74
0
 40
0
 40
0
 40
0
 40
0
 40
1
 40
1
 40
1
 40
1
 10
1.701894
 20
124.678071
 30
0.0
 10
1.977868
 20
124.198871
 30
0.0
 10
2.487890
 20
123.903672
 30
0.0
 10
3.039838
 20
123.903672
 30
0.0
  0
LINE
  5
145
100
AcDbEntity
  8
panel
 62
7
100
AcDbLine
 10
3.039728
 20
123.903804
 30
0.0
 11
6.030015
 21
123.903804
 31
0.0
  0
SPLINE
  5
146
100
AcDbEntity
  8
panel
 62
7
100
AcDbSpline
 70
8
 71
3
 72
8
 73
4
 74
0
 40
0
 40
0
 40
0
 40
0
 40
1
 40
1
 40
1
 40
1
 10
6.030017
 20
123.903672
 30
0.0
 10
6.581966
 20
123.903672
 30
0.0
 10
7.091988
 20
124.198871
 30
0.0
 10
7.367962
 20
124.678071
 30
0.0
  0
SPLINE
  5
147
100
AcDbEntity
  8
panel
 62
7
100
AcDbSpline
 70
8
 71
3
 72
8
 73
4
 74
0
 40
0
 40
0
 40
0
 40
0
 40
1
 40
1
 40
1
 40
1
 10
7.367962
 20
124.678071
 30
0.0
 10
7.643936
 20
125.157271
 30
0.0
 10
7.643936
 20
125.747669
 30
0.0
 10
7.367962
 20
126.226869
 30
0.0
  0
SPLINE
  5
148
100
AcDbEntity
  8
panel
 62
7
100
AcDbSpline
 70
8
 71
3
 72
8
 73
4
 74
0
 40
0
 40
0
 40
0
 40
0
 40
1
 40
1
 40
1
 40
1
 10
7.367962
 20
126.226869
 30
0.0
 10
7.091988
 20
126.706068
 30
0.0
 10
6.581966
 20
127.001268
 30
0.0
 10
6.030017
 20
127.001268
 30
0.0
  0
LINE
  5
149
100
AcDbEntity
  8
panel
 62
7
100
AcDbLine
 10
3.039728
 20
127.001257
 30
0.0
 11
6.030015
 21
127.001257
 31
0.0
  0
SPLINE
  5
14a
100
AcDbEntity
  8
panel
 62
7
100
AcDbSpline
 70
8
 71
3
 72
8
 73
4
 74
0
 40
0
 40
0
 40
0
 40
0
 40
1
 40
1
 40
1
 40
1
 10
24.449508
 20
127.001268
 30
0.0
 10
23.897559
 20
127.001268
 30
0.0
 10
23.387538
 20
126.706068
 30
0.0
 10
23.111563
 20
126.226869
 30
0.0
  0
SPLINE
  5
14b
100
AcDbEntity
  8
panel
 62
7
100
AcDbSpline
 70
8
 71
3
 72
8
 73
4
 74
0
 40
0
 40
0
 40
0
 40
0
 40
1
 40
1
 40
1
 40
1
 10
23.111563
 20
126.226869
 30
0.0
 10
22.835589
 20
125.747669
 30
0.0
 10
22.835589
 20
125.157271
 30
0.0
 10
23.111563
 20
124.678071
 30
0.0
  0
SPLINE
  5
14c
100
AcDbEntity
  8
panel
 62
7
100
AcDbSpline
 70
8
 71
3
 72
8
 73
4
 74
0
 40
0
 40
0
 40
0
 40
0
 40
1
 40
1
 40
1
 40
1
 10
23.111563
 20
124.678071
 30
0.0
 10
23.387538
 20
124.198871
 30
0.0
 10
23.897559
 20
123.903672
 30
0.0
 10
24.449508
 20
123.903672
 30
0.0
  0
LINE
  5
14d
100
AcDbEntity
  8
panel
 62
7
100
AcDbLine
 10
24.449592
 20
123.903804
 30
0.0
 11
27.439616
 21
123.903804
 31
0.0
  0
SPLINE
  5
14e
100
AcDbEntity
  8
panel
 62
7
100
AcDbSpline
 70
8
 71
3
 72
8
 73
4
 74
0
 40
0
 40
0
 40
0
 40
0
 40
1
 40
1
 40
1
 40
1
 10
27.439684
 20
123.903672
 30
0.0
 10
27.991633
 20
123.903672
 30
0.0
 10
28.501654
 20
124.198871
 30
0.0
 10
28.777629
 20
124.678071
 30
0.0
  0
SPLINE
  5
14f
100
AcDbEntity
  8
panel
 62
7
100
AcDbSpline
 70
8
 71
3
 72
8
 73
4
 74
0
 40
0
 40
0
 40
0
 40
0
 40
1
 40
1
 40
1
 40
1
 10
28.777629
 20
124.678071
 30
0.0
 10
29.053603
 20
125.157271
 30
0.0
 10
29.053603
 20
125.747669
 30
0.0
 10
28.777629
 20
126.226869
 30
0.0
  0
SPLINE
  5
150
100
AcDbEntity
  8
panel
 62
7
100
AcDbSpline
 70
8
 71
3
 72
8
 73
4
 74
0
 40
0
 40
0
 40
0
 40
0
 40
1
 40
1
 40
1
 40
1
 10
28.777629
 20
126.226869
 30
0.0
 10
28.501654
 20
126.706068
 30
0.0
 10
27.991633
 20
127.001268
 30
0.0
 10
27.439684
 20
127.001268
 30
0.0
  0
LINE
  5
151
100
AcDbEntity
  8
panel
 62
7
100
AcDbLine
 10
24.449592
 20
127.001257
 30
0.0
 11
27.439616
 21
127.001257
 31
0.0
  0
SPLINE
  5
152
100
AcDbEntity
  8
graphic
 62
7
100
AcDbSpline
 70
8
 71
3
 72
8
 73
4
 74
0
 40
0
 40
0
 40
0
 40
0
 40
1
 40
1
 40
1
 40
1
 10
7.999999
 20
70.529168
 30
0.0
 10
10.897755
 20
76.529168
 30
0.0
 10
15.000001
 20
76.529168
 30
0.0
 10
18.000001
 20
70.529168
 30
0.0
  0
SPLINE
  5
153
100
AcDbEntity
  8
graphic
 62
7
100
AcDbSpline
 70
8
 71
3
 72
8
 73
4
 74
0
 40
0
 40
0
 40
0
 40
0
 40
1
 40
1
 40
1
 40
1
 10
18.000001
 20
70.529168
 30
0.0
 10
21.000001
 20
64.529168
 30
0.0
 10
25.000001
 20
64.529168
 30
0.0
 10
28.000001
 20
70.529168
 30
0.0
  0
LINE
  5
154
100
AcDbEntity
  8
graphic
 62
7
100
AcDbLine
 10
8.000000
 20
57.591664
 30
0.0
 11
10.000000
 21
57.591664
 31
0.0
  0
LINE
  5
155
100
AcDbEntity
  8
graphic
 62
7
100
AcDbLine
 10
10.000000
 20
57.591664
 30
0.0
 11
10.000000
 21
62.591664
 31
0.0
  0
LINE
  5
156
100
AcDbEntity
  8
graphic
 62
7
100
AcDbLine
 10
10.000000
 20
62.591664
 30
0.0
 11
16.000002
 21
62.591664
 31
0.0
  0
LINE
  5
157
100
AcDbEntity
  8
graphic
 62
7
100
AcDbLine
 10
16.000002
 20
62.591664
 30
0.0
 11
16.000002
 21
57.591664
 31
0.0
  0
LINE
  5
158
100
AcDbEntity
  8
graphic
 62
7
100
AcDbLine
 10
16.000002
 20
57.591664
 30
0.0
 11
20.000002
 21
57.591664
 31
0.0
  0
LINE
  5
159
100
AcDbEntity
  8
graphic
 62
7
100
AcDbLine
 10
20.000002
 20
57.591664
 30
0.0
 11
20.000002
 21
62.591664
 31
0.0
  0
LINE
  5
15a
100
AcDbEntity
  8
graphic
 62
7
100
AcDbLine
 10
20.000002
 20
62.591664
 30
0.0
 11
26.000001
 21
62.591664
 31
0.0
  0
LINE
  5
15b
100
AcDbEntity
  8
graphic
 62
7
100
AcDbLine
 10
26.000001
 20
62.591664
 30
0.0
 11
26.000002
 21
57.591664
 31
0.0
  0
LINE
  5
15c
100
AcDbEntity
  8
graphic
 62
7
100
AcDbLine
 10
26.000002
 20
57.591664
 30
0.0
 11
28.000002
 21
57.591664
 31
0.0
  0
LINE
  5
15d
100
AcDbEntity
  8
graphic
 62
7
100
AcDbLine
 10
8.000000
 20
73.529167
 30
0.0
 11
10.000000
 21
73.529167
 31
0.0
  0
LINE
  5
15e
100
AcDbEntity
  8
graphic
 62
7
100
AcDbLine
 10
11.000000
 20
73.529167
 30
0.0
 11
13.000000
 21
73.529167
 31
0.0
  0
LINE
  5
15f
100
AcDbEntity
  8
graphic
 62
7
100
AcDbLine
 10
14.000000
 20
73.529167
 30
0.0
 11
16.000000
 21
73.529167
 31
0.0
  0
LINE
  5
160
100
AcDbEntity
  8
graphic
 62
7
100
AcDbLine
 10
17.000000
 20
73.529167
 30
0.0
 11
19.000000
 21
73.529167
 31
0.0
  0
LINE
  5
161
100
AcDbEntity
  8
graphic
 62
7
100
AcDbLine
 10
20.000000
 20
73.529167
 30
0.0
 11
22.000000
 21
73.529167
 31
0.0
  0
LINE
  5
162
100
AcDbEntity
  8
graphic
 62
7
100
AcDbLine
 10
23.000000
 20
73.529167
 30
0.0
 11
25.000000
 21
73.529167
 31
0.0
  0
LINE
  5
163
100
AcDbEntity
  8
graphic
 62
7
100
AcDbLine
 10
25.999999
 20
73.529167
 30
0.0
 11
28.000000
 21
73.529167
 31
0.0
  0
LINE
  5
164
100
AcDbEntity
  8
graphic
 62
7
100
AcDbLine
 10
8.000000
 20
67.529167
 30
0.0
 11
10.000000
 21
67.529167
 31
0.0
  0
LINE
  5
165
100
AcDbEntity
  8
graphic
 62
7
100
AcDbLine
 10
11.000000
 20
67.529167
 30
0.0
 11
13.000000
 21
67.529167
 31
0.0
  0
LINE
  5
166
100
AcDbEntity
  8
graphic
 62
7
100
AcDbLine
 10
14.000000
 20
67.529167
 30
0.0
 11
16.000000
 21
67.529167
 31
0.0
  0
LINE
  5
167
100
AcDbEntity
  8
graphic
 62
7
100
AcDbLine
 10
17.000000
 20
67.529167
 30
0.0
 11
19.000000
 21
67.529167
 31
0.0
  0
LINE
  5
168
100
AcDbEntity
  8
graphic
 62
7
100
AcDbLine
 10
20.000000
 20
67.529167
 30
0.0
 11
22.000000
 21
67.529167
 31
0.0
  0
LINE
  5
169
100
AcDbEntity
  8
graphic
 62
7
100
AcDbLine
 10
23.000000
 20
67.529167
 30
0.0
 11
25.000000
 21
67.529167
 31
0.0
  0
LINE
  5
16a
100
AcDbEntity
  8
graphic
 62
7
100
AcDbLine
 10
25.999999
 20
67.529167
 30
0.0
 11
28.000000
 21
67.529167
 31
0.0
  0
LINE
  5
16b
100
AcDbEntity
  8
graphic
 62
7
100
AcDbLine
 10
7.000000
 20
70.529168
 30
0.0
 11
29.000002
 21
70.529169
 31
0.0
  0
LINE
  5
16c
100
AcDbEntity
  8
graphic
 62
7
100
AcDbLine
 10
3.525201
 20
70.959903
 30
0.0
 11
3.416803
 21
71.068301
 31
0.0
  0
LINE
  5
16d
100
AcDbEntity
  8
graphic
 62
7
100
AcDbLine
 10
3.416803
 20
71.068301
 30
0.0
 11
3.253347
 21
71.123360
 31
0.0
  0
LINE
  5
16e
100
AcDbEntity
  8
graphic
 62
7
100
AcDbLine
 10
3.253347
 20
71.123360
 30
0.0
 11
3.036552
 21
71.123360
 31
0.0
  0
LINE
  5
16f
100
AcDbEntity
  8
graphic
 62
7
100
AcDbLine
 10
3.036552
 20
71.123360
 30
0.0
 11
2.874816
 21
71.068301
 31
0.0
  0
LINE
  5
170
100
AcDbEntity
  8
graphic
 62
7
100
AcDbLine
 10
2.874816
 20
71.068301
 30
0.0
 11
2.766418
 21
70.959903
 31
0.0
  0
LINE
  5
171
100
AcDbEntity
  8
graphic
 62
7
100
AcDbLine
 10
2.766418
 20
70.959903
 30
0.0
 11
2.766418
 21
70.851506
 31
0.0
  0
LINE
  5
172
100
AcDbEntity
  8
graphic
 62
7
100
AcDbLine
 10
2.766418
 20
70.851506
 30
0.0
 11
2.819757
 21
70.743108
 31
0.0
  0
LINE
  5
173
100
AcDbEntity
  8
graphic
 62
7
100
AcDbLine
 10
2.819757
 20
70.743108
 30
0.0
 11
2.874816
 21
70.689770
 31
0.0
  0
LINE
  5
174
100
AcDbEntity
  8
graphic
 62
7
100
AcDbLine
 10
2.874816
 20
70.689770
 30
0.0
 11
2.983213
 21
70.634711
 31
0.0
  0
LINE
  5
175
100
AcDbEntity
  8
graphic
 62
7
100
AcDbLine
 10
2.983213
 20
70.634711
 30
0.0
 11
3.308406
 21
70.526313
 31
0.0
  0
LINE
  5
176
100
AcDbEntity
  8
graphic
 62
7
100
AcDbLine
 10
3.308406
 20
70.526313
 30
0.0
 11
3.416803
 21
70.472975
 31
0.0
  0
LINE
  5
177
100
AcDbEntity
  8
graphic
 62
7
100
AcDbLine
 10
3.416803
 20
70.472975
 30
0.0
 11
3.470142
 21
70.417916
 31
0.0
  0
LINE
  5
178
100
AcDbEntity
  8
graphic
 62
7
100
AcDbLine
 10
3.470142
 20
70.417916
 30
0.0
 11
3.525201
 21
70.309518
 31
0.0
  0
LINE
  5
179
100
AcDbEntity
  8
graphic
 62
7
100
AcDbLine
 10
3.525201
 20
70.309518
 30
0.0
 11
3.525201
 21
70.146922
 31
0.0
  0
LINE
  5
17a
100
AcDbEntity
  8
graphic
 62
7
100
AcDbLine
 10
3.525201
 20
70.146922
 30
0.0
 11
3.416803
 21
70.038525
 31
0.0
  0
LINE
  5
17b
100
AcDbEntity
  8
graphic
 62
7
100
AcDbLine
 10
3.416803
 20
70.038525
 30
0.0
 11
3.253347
 21
69.984326
 31
0.0
  0
LINE
  5
17c
100
AcDbEntity
  8
graphic
 62
7
100
AcDbLine
 10
3.253347
 20
69.984326
 30
0.0
 11
3.036552
 21
69.984326
 31
0.0
  0
LINE
  5
17d
100
AcDbEntity
  8
graphic
 62
7
100
AcDbLine
 10
3.036552
 20
69.984326
 30
0.0
 11
2.874816
 21
70.038525
 31
0.0
  0
LINE
  5
17e
100
AcDbEntity
  8
graphic
 62
7
100
AcDbLine
 10
2.874816
 20
70.038525
 30
0.0
 11
2.766418
 21
70.146922
 31
0.0
  0
LINE
  5
17f
100
AcDbEntity
  8
graphic
 62
7
100
AcDbLine
 10
3.903729
 20
71.123360
 30
0.0
 11
3.903729
 21
69.984326
 31
0.0
  0
LINE
  5
180
100
AcDbEntity
  8
graphic
 62
7
100
AcDbLine
 10
5.097827
 20
70.851506
 30
0.0
 11
5.042767
 21
70.959903
 31
0.0
  0
LINE
  5
181
100
AcDbEntity
  8
graphic
 62
7
100
AcDbLine
 10
5.042767
 20
70.959903
 30
0.0
 11
4.934370
 21
71.068301
 31
0.0
  0
LINE
  5
182
100
AcDbEntity
  8
graphic
 62
7
100
AcDbLine
 10
4.934370
 20
71.068301
 30
0.0
 11
4.825972
 21
71.123360
 31
0.0
  0
LINE
  5
183
100
AcDbEntity
  8
graphic
 62
7
100
AcDbLine
 10
4.825972
 20
71.123360
 30
0.0
 11
4.609178
 21
71.123360
 31
0.0
  0
LINE
  5
184
100
AcDbEntity
  8
graphic
 62
7
100
AcDbLine
 10
4.609178
 20
71.123360
 30
0.0
 11
4.500780
 21
71.068301
 31
0.0
  0
LINE
  5
185
100
AcDbEntity
  8
graphic
 62
7
100
AcDbLine
 10
4.500780
 20
71.068301
 30
0.0
 11
4.392383
 21
70.959903
 31
0.0
  0
LINE
  5
186
100
AcDbEntity
  8
graphic
 62
7
100
AcDbLine
 10
4.392383
 20
70.959903
 30
0.0
 11
4.337323
 21
70.851506
 31
0.0
  0
LINE
  5
187
100
AcDbEntity
  8
graphic
 62
7
100
AcDbLine
 10
4.337323
 20
70.851506
 30
0.0
 11
4.283985
 21
70.689770
 31
0.0
  0
LINE
  5
188
100
AcDbEntity
  8
graphic
 62
7
100
AcDbLine
 10
4.283985
 20
70.689770
 30
0.0
 11
4.283985
 21
70.417916
 31
0.0
  0
LINE
  5
189
100
AcDbEntity
  8
graphic
 62
7
100
AcDbLine
 10
4.283985
 20
70.417916
 30
0.0
 11
4.337323
 21
70.256180
 31
0.0
  0
LINE
  5
18a
100
AcDbEntity
  8
graphic
 62
7
100
AcDbLine
 10
4.337323
 20
70.256180
 30
0.0
 11
4.392383
 21
70.146922
 31
0.0
  0
LINE
  5
18b
100
AcDbEntity
  8
graphic
 62
7
100
AcDbLine
 10
4.392383
 20
70.146922
 30
0.0
 11
4.500780
 21
70.038525
 31
0.0
  0
LINE
  5
18c
100
AcDbEntity
  8
graphic
 62
7
100
AcDbLine
 10
4.500780
 20
70.038525
 30
0.0
 11
4.609178
 21
69.984326
 31
0.0
  0
LINE
  5
18d
100
AcDbEntity
  8
graphic
 62
7
100
AcDbLine
 10
4.609178
 20
69.984326
 30
0.0
 11
4.825972
 21
69.984326
 31
0.0
  0
LINE
  5
18e
100
AcDbEntity
  8
graphic
 62
7
100
AcDbLine
 10
4.825972
 20
69.984326
 30
0.0
 11
4.934370
 21
70.038525
 31
0.0
  0
LINE
  5
18f
100
AcDbEntity
  8
graphic
 62
7
100
AcDbLine
 10
4.934370
 20
70.038525
 30
0.0
 11
5.042767
 21
70.146922
 31
0.0
  0
LINE
  5
190
100
AcDbEntity
  8
graphic
 62
7
100
AcDbLine
 10
5.042767
 20
70.146922
 30
0.0
 11
5.097827
 21
70.256180
 31
0.0
  0
LINE
  5
191
100
AcDbEntity
  8
graphic
 62
7
100
AcDbLine
 10
5.097827
 20
70.256180
 30
0.0
 11
5.097827
 21
70.417916
 31
0.0
  0
LINE
  5
192
100
AcDbEntity
  8
graphic
 62
7
100
AcDbLine
 10
4.825972
 20
70.417916
 30
0.0
 11
5.097827
 21
70.417916
 31
0.0
  0
LINE
  5
193
100
AcDbEntity
  8
graphic
 62
7
100
AcDbLine
 10
1.629148
 20
74.098649
 30
0.0
 11
1.629148
 21
72.959615
 31
0.0
  0
LINE
  5
194
100
AcDbEntity
  8
graphic
 62
7
100
AcDbLine
 10
1.629148
 20
72.959615
 30
0.0
 11
2.279533
 21
72.959615
 31
0.0
  0
LINE
  5
195
100
AcDbEntity
  8
graphic
 62
7
100
AcDbLine
 10
2.551390
 20
74.098649
 30
0.0
 11
2.551390
 21
72.959615
 31
0.0
  0
LINE
  5
196
100
AcDbEntity
  8
graphic
 62
7
100
AcDbLine
 10
2.551390
 20
74.098649
 30
0.0
 11
3.256834
 21
74.098649
 31
0.0
  0
LINE
  5
197
100
AcDbEntity
  8
graphic
 62
7
100
AcDbLine
 10
2.551390
 20
73.554941
 30
0.0
 11
2.984980
 21
73.554941
 31
0.0
  0
LINE
  5
198
100
AcDbEntity
  8
graphic
 62
7
100
AcDbLine
 10
2.551390
 20
72.959615
 30
0.0
 11
3.256834
 21
72.959615
 31
0.0
  0
LINE
  5
199
100
AcDbEntity
  8
graphic
 62
7
100
AcDbLine
 10
3.418568
 20
74.098649
 30
0.0
 11
3.852158
 21
72.959615
 31
0.0
  0
LINE
  5
19a
100
AcDbEntity
  8
graphic
 62
7
100
AcDbLine
 10
4.285748
 20
74.098649
 30
0.0
 11
3.852158
 21
72.959615
 31
0.0
  0
LINE
  5
19b
100
AcDbEntity
  8
graphic
 62
7
100
AcDbLine
 10
4.555878
 20
74.098649
 30
0.0
 11
4.555878
 21
72.959615
 31
0.0
  0
LINE
  5
19c
100
AcDbEntity
  8
graphic
 62
7
100
AcDbLine
 10
4.555878
 20
74.098649
 30
0.0
 11
5.261322
 21
74.098649
 31
0.0
  0
LINE
  5
19d
100
AcDbEntity
  8
graphic
 62
7
100
AcDbLine
 10
4.555878
 20
73.554941
 30
0.0
 11
4.989468
 21
73.554941
 31
0.0
  0
LINE
  5
19e
100
AcDbEntity
  8
graphic
 62
7
100
AcDbLine
 10
4.555878
 20
72.959615
 30
0.0
 11
5.261322
 21
72.959615
 31
0.0
  0
LINE
  5
19f
100
AcDbEntity
  8
graphic
 62
7
100
AcDbLine
 10
5.584798
 20
74.098649
 30
0.0
 11
5.584798
 21
72.959615
 31
0.0
  0
LINE
  5
1a0
100
AcDbEntity
  8
graphic
 62
7
100
AcDbLine
 10
5.584798
 20
72.959615
 30
0.0
 11
6.235183
 21
72.959615
 31
0.0
  0
LINE
  5
1a1
100
AcDbEntity
  8
graphic
 62
7
100
AcDbLine
 10
2.739775
 20
60.661086
 30
0.0
 11
2.631378
 21
60.606027
 31
0.0
  0
LINE
  5
1a2
100
AcDbEntity
  8
graphic
 62
7
100
AcDbLine
 10
2.631378
 20
60.606027
 30
0.0
 11
2.522980
 21
60.497630
 31
0.0
  0
LINE
  5
1a3
100
AcDbEntity
  8
graphic
 62
7
100
AcDbLine
 10
2.522980
 20
60.497630
 30
0.0
 11
2.467921
 21
60.389232
 31
0.0
  0
LINE
  5
1a4
100
AcDbEntity
  8
graphic
 62
7
100
AcDbLine
 10
2.467921
 20
60.389232
 30
0.0
 11
2.414583
 21
60.227496
 31
0.0
  0
LINE
  5
1a5
100
AcDbEntity
  8
graphic
 62
7
100
AcDbLine
 10
2.414583
 20
60.227496
 30
0.0
 11
2.414583
 21
59.955642
 31
0.0
  0
LINE
  5
1a6
100
AcDbEntity
  8
graphic
 62
7
100
AcDbLine
 10
2.414583
 20
59.955642
 30
0.0
 11
2.467921
 21
59.793906
 31
0.0
  0
LINE
  5
1a7
100
AcDbEntity
  8
graphic
 62
7
100
AcDbLine
 10
2.467921
 20
59.793906
 30
0.0
 11
2.522980
 21
59.684648
 31
0.0
  0
LINE
  5
1a8
100
AcDbEntity
  8
graphic
 62
7
100
AcDbLine
 10
2.522980
 20
59.684648
 30
0.0
 11
2.631378
 21
59.576251
 31
0.0
  0
LINE
  5
1a9
100
AcDbEntity
  8
graphic
 62
7
100
AcDbLine
 10
2.631378
 20
59.576251
 30
0.0
 11
2.739775
 21
59.522052
 31
0.0
  0
LINE
  5
1aa
100
AcDbEntity
  8
graphic
 62
7
100
AcDbLine
 10
2.739775
 20
59.522052
 30
0.0
 11
2.956570
 21
59.522052
 31
0.0
  0
LINE
  5
1ab
100
AcDbEntity
  8
graphic
 62
7
100
AcDbLine
 10
2.956570
 20
59.522052
 30
0.0
 11
3.064968
 21
59.576251
 31
0.0
  0
LINE
  5
1ac
100
AcDbEntity
  8
graphic
 62
7
100
AcDbLine
 10
3.064968
 20
59.576251
 30
0.0
 11
3.173365
 21
59.684648
 31
0.0
  0
LINE
  5
1ad
100
AcDbEntity
  8
graphic
 62
7
100
AcDbLine
 10
3.173365
 20
59.684648
 30
0.0
 11
3.228424
 21
59.793906
 31
0.0
  0
LINE
  5
1ae
100
AcDbEntity
  8
graphic
 62
7
100
AcDbLine
 10
3.228424
 20
59.793906
 30
0.0
 11
3.281763
 21
59.955642
 31
0.0
  0
LINE
  5
1af
100
AcDbEntity
  8
graphic
 62
7
100
AcDbLine
 10
3.281763
 20
59.955642
 30
0.0
 11
3.281763
 21
60.227496
 31
0.0
  0
LINE
  5
1b0
100
AcDbEntity
  8
graphic
 62
7
100
AcDbLine
 10
3.281763
 20
60.227496
 30
0.0
 11
3.228424
 21
60.389232
 31
0.0
  0
LINE
  5
1b1
100
AcDbEntity
  8
graphic
 62
7
100
AcDbLine
 10
3.228424
 20
60.389232
 30
0.0
 11
3.173365
 21
60.497630
 31
0.0
  0
LINE
  5
1b2
100
AcDbEntity
  8
graphic
 62
7
100
AcDbLine
 10
3.173365
 20
60.497630
 30
0.0
 11
3.064968
 21
60.606027
 31
0.0
  0
LINE
  5
1b3
100
AcDbEntity
  8
graphic
 62
7
100
AcDbLine
 10
3.064968
 20
60.606027
 30
0.0
 11
2.956570
 21
60.661086
 31
0.0
  0
LINE
  5
1b4
100
AcDbEntity
  8
graphic
 62
7
100
AcDbLine
 10
2.956570
 20
60.661086
 30
0.0
 11
2.739775
 21
60.661086
 31
0.0
  0
LINE
  5
1b5
100
AcDbEntity
  8
graphic
 62
7
100
AcDbLine
 10
3.660297
 20
60.661086
 30
0.0
 11
3.660297
 21
59.847245
 31
0.0
  0
LINE
  5
1b6
100
AcDbEntity
  8
graphic
 62
7
100
AcDbLine
 10
3.660297
 20
59.847245
 30
0.0
 11
3.715356
 21
59.684648
 31
0.0
  0
LINE
  5
1b7
100
AcDbEntity
  8
graphic
 62
7
100
AcDbLine
 10
3.715356
 20
59.684648
 30
0.0
 11
3.823753
 21
59.576251
 31
0.0
  0
LINE
  5
1b8
100
AcDbEntity
  8
graphic
 62
7
100
AcDbLine
 10
3.823753
 20
59.576251
 30
0.0
 11
3.987210
 21
59.522052
 31
0.0
  0
LINE
  5
1b9
100
AcDbEntity
  8
graphic
 62
7
100
AcDbLine
 10
3.987210
 20
59.522052
 30
0.0
 11
4.093887
 21
59.522052
 31
0.0
  0
LINE
  5
1ba
100
AcDbEntity
  8
graphic
 62
7
100
AcDbLine
 10
4.093887
 20
59.522052
 30
0.0
 11
4.257343
 21
59.576251
 31
0.0
  0
LINE
  5
1bb
100
AcDbEntity
  8
graphic
 62
7
100
AcDbLine
 10
4.257343
 20
59.576251
 30
0.0
 11
4.365741
 21
59.684648
 31
0.0
  0
LINE
  5
1bc
100
AcDbEntity
  8
graphic
 62
7
100
AcDbLine
 10
4.365741
 20
59.684648
 30
0.0
 11
4.420800
 21
59.847245
 31
0.0
  0
LINE
  5
1bd
100
AcDbEntity
  8
graphic
 62
7
100
AcDbLine
 10
4.420800
 20
59.847245
 30
0.0
 11
4.420800
 21
60.661086
 31
0.0
  0
LINE
  5
1be
100
AcDbEntity
  8
graphic
 62
7
100
AcDbLine
 10
5.069461
 20
60.661086
 30
0.0
 11
5.069461
 21
59.522052
 31
0.0
  0
LINE
  5
1bf
100
AcDbEntity
  8
graphic
 62
7
100
AcDbLine
 10
4.690930
 20
60.661086
 30
0.0
 11
5.449712
 21
60.661086
 31
0.0
  0
LINE
  5
1c0
100
AcDbEntity
  8
graphic
 62
7
100
AcDbLine
 10
2.295391
 20
68.098701
 30
0.0
 11
2.295391
 21
66.959667
 31
0.0
  0
LINE
  5
1c1
100
AcDbEntity
  8
graphic
 62
7
100
AcDbLine
 10
2.295391
 20
66.959667
 30
0.0
 11
2.945776
 21
66.959667
 31
0.0
  0
LINE
  5
1c2
100
AcDbEntity
  8
graphic
 62
7
100
AcDbLine
 10
3.217633
 20
68.098701
 30
0.0
 11
3.217633
 21
66.959667
 31
0.0
  0
LINE
  5
1c3
100
AcDbEntity
  8
graphic
 62
7
100
AcDbLine
 10
3.217633
 20
68.098701
 30
0.0
 11
3.923077
 21
68.098701
 31
0.0
  0
LINE
  5
1c4
100
AcDbEntity
  8
graphic
 62
7
100
AcDbLine
 10
3.217633
 20
67.554993
 30
0.0
 11
3.651223
 21
67.554993
 31
0.0
  0
LINE
  5
1c5
100
AcDbEntity
  8
graphic
 62
7
100
AcDbLine
 10
3.217633
 20
66.959667
 30
0.0
 11
3.923077
 21
66.959667
 31
0.0
  0
LINE
  5
1c6
100
AcDbEntity
  8
graphic
 62
7
100
AcDbLine
 10
4.084811
 20
68.098701
 30
0.0
 11
4.518401
 21
66.959667
 31
0.0
  0
LINE
  5
1c7
100
AcDbEntity
  8
graphic
 62
7
100
AcDbLine
 10
4.951990
 20
68.098701
 30
0.0
 11
4.518401
 21
66.959667
 31
0.0
  0
LINE
  5
1c8
100
AcDbEntity
  8
graphic
 62
7
100
AcDbLine
 10
5.222121
 20
68.098701
 30
0.0
 11
5.222121
 21
66.959667
 31
0.0
  0
LINE
  5
1c9
100
AcDbEntity
  8
graphic
 62
7
100
AcDbLine
 10
5.222121
 20
68.098701
 30
0.0
 11
5.927565
 21
68.098701
 31
0.0
  0
LINE
  5
1ca
100
AcDbEntity
  8
graphic
 62
7
100
AcDbLine
 10
5.222121
 20
67.554993
 30
0.0
 11
5.655711
 21
67.554993
 31
0.0
  0
LINE
  5
1cb
100
AcDbEntity
  8
graphic
 62
7
100
AcDbLine
 10
5.222121
 20
66.959667
 30
0.0
 11
5.927565
 21
66.959667
 31
0.0
  0
LINE
  5
1cc
100
AcDbEntity
  8
graphic
 62
7
100
AcDbLine
 10
6.251041
 20
68.098701
 30
0.0
 11
6.251041
 21
66.959667
 31
0.0
  0
LINE
  5
1cd
100
AcDbEntity
  8
graphic
 62
7
100
AcDbLine
 10
6.251041
 20
66.959667
 30
0.0
 11
6.901426
 21
66.959667
 31
0.0
  0
LINE
  5
1ce
100
AcDbEntity
  8
graphic
 62
7
100
AcDbLine
 10
0.912875
 20
67.501905
 30
0.0
 11
1.912875
 21
67.501905
 31
0.0
  0
LINE
  5
1cf
100
AcDbEntity
  8
logo
 62
7
100
AcDbLine
 10
12.643201
 20
7.817070
 30
0.0
 11
12.864174
 21
7.706586
 31
0.0
  0
LINE
  5
1d0
100
AcDbEntity
  8
logo
 62
7
100
AcDbLine
 10
12.864174
 20
7.706586
 30
0.0
 11
12.937831
 21
7.596101
 31
0.0
  0
LINE
  5
1d1
100
AcDbEntity
  8
logo
 62
7
100
AcDbLine
 10
12.937831
 20
7.596101
 30
0.0
 11
13.011489
 21
7.375133
 31
0.0
  0
LINE
  5
1d2
100
AcDbEntity
  8
logo
 62
7
100
AcDbLine
 10
13.011489
 20
7.375133
 30
0.0
 11
13.011489
 21
7.043680
 31
0.0
  0
LINE
  5
1d3
100
AcDbEntity
  8
logo
 62
7
100
AcDbLine
 10
13.011489
 20
7.043680
 30
0.0
 11
12.937831
 21
6.822711
 31
0.0
  0
LINE
  5
1d4
100
AcDbEntity
  8
logo
 62
7
100
AcDbLine
 10
12.937831
 20
6.822711
 30
0.0
 11
12.864174
 21
6.712228
 31
0.0
  0
LINE
  5
1d5
100
AcDbEntity
  8
logo
 62
7
100
AcDbLine
 10
12.864174
 20
6.712228
 30
0.0
 11
12.716858
 21
6.601743
 31
0.0
  0
LINE
  5
1d6
100
AcDbEntity
  8
logo
 62
7
100
AcDbLine
 10
12.716858
 20
6.601743
 30
0.0
 11
12.127613
 21
6.601743
 31
0.0
  0
LINE
  5
1d7
100
AcDbEntity
  8
logo
 62
7
100
AcDbLine
 10
12.127613
 20
6.601743
 30
0.0
 11
12.127613
 21
8.921913
 31
0.0
  0
LINE
  5
1d8
100
AcDbEntity
  8
logo
 62
7
100
AcDbLine
 10
12.127613
 20
8.921913
 30
0.0
 11
12.643201
 21
8.921913
 31
0.0
  0
LINE
  5
1d9
100
AcDbEntity
  8
logo
 62
7
100
AcDbLine
 10
12.643201
 20
8.921913
 30
0.0
 11
12.790516
 21
8.811428
 31
0.0
  0
LINE
  5
1da
100
AcDbEntity
  8
logo
 62
7
100
AcDbLine
 10
12.790516
 20
8.811428
 30
0.0
 11
12.864174
 21
8.700945
 31
0.0
  0
LINE
  5
1db
100
AcDbEntity
  8
logo
 62
7
100
AcDbLine
 10
12.864174
 20
8.700945
 30
0.0
 11
12.937831
 21
8.479976
 31
0.0
  0
LINE
  5
1dc
100
AcDbEntity
  8
logo
 62
7
100
AcDbLine
 10
12.937831
 20
8.479976
 30
0.0
 11
12.937831
 21
8.259008
 31
0.0
  0
LINE
  5
1dd
100
AcDbEntity
  8
logo
 62
7
100
AcDbLine
 10
12.937831
 20
8.259008
 30
0.0
 11
12.864174
 21
8.038038
 31
0.0
  0
LINE
  5
1de
100
AcDbEntity
  8
logo
 62
7
100
AcDbLine
 10
12.864174
 20
8.038038
 30
0.0
 11
12.790516
 21
7.927555
 31
0.0
  0
LINE
  5
1df
100
AcDbEntity
  8
logo
 62
7
100
AcDbLine
 10
12.790516
 20
7.927555
 30
0.0
 11
12.643201
 21
7.817070
 31
0.0
  0
LINE
  5
1e0
100
AcDbEntity
  8
logo
 62
7
100
AcDbLine
 10
12.643201
 20
7.817070
 30
0.0
 11
12.127613
 21
7.817070
 31
0.0
  0
LINE
  5
1e1
100
AcDbEntity
  8
logo
 62
7
100
AcDbLine
 10
14.410954
 20
6.601743
 30
0.0
 11
13.674393
 21
6.601743
 31
0.0
  0
LINE
  5
1e2
100
AcDbEntity
  8
logo
 62
7
100
AcDbLine
 10
13.674393
 20
6.601743
 30
0.0
 11
13.674393
 21
8.921913
 31
0.0
  0
LINE
  5
1e3
100
AcDbEntity
  8
logo
 62
7
100
AcDbLine
 10
14.926557
 20
7.817070
 30
0.0
 11
15.442145
 21
7.817070
 31
0.0
  0
LINE
  5
1e4
100
AcDbEntity
  8
logo
 62
7
100
AcDbLine
 10
15.663118
 20
6.601743
 30
0.0
 11
14.926557
 21
6.601743
 31
0.0
  0
LINE
  5
1e5
100
AcDbEntity
  8
logo
 62
7
100
AcDbLine
 10
14.926557
 20
6.601743
 30
0.0
 11
14.926557
 21
8.921913
 31
0.0
  0
LINE
  5
1e6
100
AcDbEntity
  8
logo
 62
7
100
AcDbLine
 10
14.926557
 20
8.921913
 30
0.0
 11
15.663118
 21
8.921913
 31
0.0
  0
LINE
  5
1e7
100
AcDbEntity
  8
logo
 62
7
100
AcDbLine
 10
16.326022
 20
7.817070
 30
0.0
 11
16.841610
 21
7.817070
 31
0.0
  0
LINE
  5
1e8
100
AcDbEntity
  8
logo
 62
7
100
AcDbLine
 10
17.062583
 20
6.601743
 30
0.0
 11
16.326022
 21
6.601743
 31
0.0
  0
LINE
  5
1e9
100
AcDbEntity
  8
logo
 62
7
100
AcDbLine
 10
16.326022
 20
6.601743
 30
0.0
 11
16.326022
 21
8.921913
 31
0.0
  0
LINE
  5
1ea
100
AcDbEntity
  8
logo
 62
7
100
AcDbLine
 10
16.326022
 20
8.921913
 30
0.0
 11
17.062583
 21
8.921913
 31
0.0
  0
LINE
  5
1eb
100
AcDbEntity
  8
logo
 62
7
100
AcDbLine
 10
17.725487
 20
6.601743
 30
0.0
 11
17.725487
 21
8.921913
 31
0.0
  0
LINE
  5
1ec
100
AcDbEntity
  8
logo
 62
7
100
AcDbLine
 10
17.725487
 20
8.921913
 30
0.0
 11
18.314733
 21
8.921913
 31
0.0
  0
LINE
  5
1ed
100
AcDbEntity
  8
logo
 62
7
100
AcDbLine
 10
18.314733
 20
8.921913
 30
0.0
 11
18.462048
 21
8.811428
 31
0.0
  0
LINE
  5
1ee
100
AcDbEntity
  8
logo
 62
7
100
AcDbLine
 10
18.462048
 20
8.811428
 30
0.0
 11
18.535705
 21
8.700945
 31
0.0
  0
LINE
  5
1ef
100
AcDbEntity
  8
logo
 62
7
100
AcDbLine
 10
18.535705
 20
8.700945
 30
0.0
 11
18.609363
 21
8.479976
 31
0.0
  0
LINE
  5
1f0
100
AcDbEntity
  8
logo
 62
7
100
AcDbLine
 10
18.609363
 20
8.479976
 30
0.0
 11
18.609363
 21
8.148523
 31
0.0
  0
LINE
  5
1f1
100
AcDbEntity
  8
logo
 62
7
100
AcDbLine
 10
18.609363
 20
8.148523
 30
0.0
 11
18.535705
 21
7.927555
 31
0.0
  0
LINE
  5
1f2
100
AcDbEntity
  8
logo
 62
7
100
AcDbLine
 10
18.535705
 20
7.927555
 30
0.0
 11
18.462048
 21
7.817070
 31
0.0
  0
LINE
  5
1f3
100
AcDbEntity
  8
logo
 62
7
100
AcDbLine
 10
18.462048
 20
7.817070
 30
0.0
 11
18.314733
 21
7.706586
 31
0.0
  0
LINE
  5
1f4
100
AcDbEntity
  8
logo
 62
7
100
AcDbLine
 10
18.314733
 20
7.706586
 30
0.0
 11
17.725487
 21
7.706586
 31
0.0
  0
LINE
  5
1f5
100
AcDbEntity
  8
logo
 62
7
100
AcDbLine
 10
12.422243
 20
4.878188
 30
0.0
 11
12.643201
 21
4.767704
 31
0.0
  0
LINE
  5
1f6
100
AcDbEntity
  8
logo
 62
7
100
AcDbLine
 10
12.643201
 20
4.767704
 30
0.0
 11
12.716858
 21
4.657219
 31
0.0
  0
LINE
  5
1f7
100
AcDbEntity
  8
logo
 62
7
100
AcDbLine
 10
12.716858
 20
4.657219
 30
0.0
 11
12.790516
 21
4.436251
 31
0.0
  0
LINE
  5
1f8
100
AcDbEntity
  8
logo
 62
7
100
AcDbLine
 10
12.790516
 20
4.436251
 30
0.0
 11
12.790516
 21
4.104798
 31
0.0
  0
LINE
  5
1f9
100
AcDbEntity
  8
logo
 62
7
100
AcDbLine
 10
12.790516
 20
4.104798
 30
0.0
 11
12.716858
 21
3.883829
 31
0.0
  0
LINE
  5
1fa
100
AcDbEntity
  8
logo
 62
7
100
AcDbLine
 10
12.716858
 20
3.883829
 30
0.0
 11
12.643201
 21
3.773346
 31
0.0
  0
LINE
  5
1fb
100
AcDbEntity
  8
logo
 62
7
100
AcDbLine
 10
12.643201
 20
3.773346
 30
0.0
 11
12.495901
 21
3.662861
 31
0.0
  0
LINE
  5
1fc
100
AcDbEntity
  8
logo
 62
7
100
AcDbLine
 10
12.495901
 20
3.662861
 30
0.0
 11
11.906640
 21
3.662861
 31
0.0
  0
LINE
  5
1fd
100
AcDbEntity
  8
logo
 62
7
100
AcDbLine
 10
11.906640
 20
3.662861
 30
0.0
 11
11.906640
 21
5.983031
 31
0.0
  0
LINE
  5
1fe
100
AcDbEntity
  8
logo
 62
7
100
AcDbLine
 10
11.906640
 20
5.983031
 30
0.0
 11
12.422243
 21
5.983031
 31
0.0
  0
LINE
  5
1ff
100
AcDbEntity
  8
logo
 62
7
100
AcDbLine
 10
12.422243
 20
5.983031
 30
0.0
 11
12.569558
 21
5.872546
 31
0.0
  0
LINE
  5
200
100
AcDbEntity
  8
logo
 62
7
100
AcDbLine
 10
12.569558
 20
5.872546
 30
0.0
 11
12.643201
 21
5.762063
 31
0.0
  0
LINE
  5
201
100
AcDbEntity
  8
logo
 62
7
100
AcDbLine
 10
12.643201
 20
5.762063
 30
0.0
 11
12.716858
 21
5.541094
 31
0.0
  0
LINE
  5
202
100
AcDbEntity
  8
logo
 62
7
100
AcDbLine
 10
12.716858
 20
5.541094
 30
0.0
 11
12.716858
 21
5.320126
 31
0.0
  0
LINE
  5
203
100
AcDbEntity
  8
logo
 62
7
100
AcDbLine
 10
12.716858
 20
5.320126
 30
0.0
 11
12.643201
 21
5.099156
 31
0.0
  0
LINE
  5
204
100
AcDbEntity
  8
logo
 62
7
100
AcDbLine
 10
12.643201
 20
5.099156
 30
0.0
 11
12.569558
 21
4.988673
 31
0.0
  0
LINE
  5
205
100
AcDbEntity
  8
logo
 62
7
100
AcDbLine
 10
12.569558
 20
4.988673
 30
0.0
 11
12.422243
 21
4.878188
 31
0.0
  0
LINE
  5
206
100
AcDbEntity
  8
logo
 62
7
100
AcDbLine
 10
12.422243
 20
4.878188
 30
0.0
 11
11.906640
 21
4.878188
 31
0.0
  0
LINE
  5
207
100
AcDbEntity
  8
logo
 62
7
100
AcDbLine
 10
14.189981
 20
3.662861
 30
0.0
 11
13.453420
 21
3.662861
 31
0.0
  0
LINE
  5
208
100
AcDbEntity
  8
logo
 62
7
100
AcDbLine
 10
13.453420
 20
3.662861
 30
0.0
 11
13.453420
 21
5.983031
 31
0.0
  0
LINE
  5
209
100
AcDbEntity
  8
logo
 62
7
100
AcDbLine
 10
15.000200
 20
5.983031
 30
0.0
 11
15.294830
 21
5.983031
 31
0.0
  0
LINE
  5
20a
100
AcDbEntity
  8
logo
 62
7
100
AcDbLine
 10
15.294830
 20
5.983031
 30
0.0
 11
15.442145
 21
5.872546
 31
0.0
  0
LINE
  5
20b
100
AcDbEntity
  8
logo
 62
7
100
AcDbLine
 10
15.442145
 20
5.872546
 30
0.0
 11
15.589461
 21
5.651578
 31
0.0
  0
LINE
  5
20c
100
AcDbEntity
  8
logo
 62
7
100
AcDbLine
 10
15.589461
 20
5.651578
 30
0.0
 11
15.663118
 21
5.209641
 31
0.0
  0
LINE
  5
20d
100
AcDbEntity
  8
logo
 62
7
100
AcDbLine
 10
15.663118
 20
5.209641
 30
0.0
 11
15.663118
 21
4.436251
 31
0.0
  0
LINE
  5
20e
100
AcDbEntity
  8
logo
 62
7
100
AcDbLine
 10
15.663118
 20
4.436251
 30
0.0
 11
15.589461
 21
3.994314
 31
0.0
  0
LINE
  5
20f
100
AcDbEntity
  8
logo
 62
7
100
AcDbLine
 10
15.589461
 20
3.994314
 30
0.0
 11
15.442145
 21
3.773346
 31
0.0
  0
LINE
  5
210
100
AcDbEntity
  8
logo
 62
7
100
AcDbLine
 10
15.442145
 20
3.773346
 30
0.0
 11
15.294830
 21
3.662861
 31
0.0
  0
LINE
  5
211
100
AcDbEntity
  8
logo
 62
7
100
AcDbLine
 10
15.294830
 20
3.662861
 30
0.0
 11
15.000200
 21
3.662861
 31
0.0
  0
LINE
  5
212
100
AcDbEntity
  8
logo
 62
7
100
AcDbLine
 10
15.000200
 20
3.662861
 30
0.0
 11
14.852900
 21
3.773346
 31
0.0
  0
LINE
  5
213
100
AcDbEntity
  8
logo
 62
7
100
AcDbLine
 10
14.852900
 20
3.773346
 30
0.0
 11
14.705584
 21
3.994314
 31
0.0
  0
LINE
  5
214
100
AcDbEntity
  8
logo
 62
7
100
AcDbLine
 10
14.705584
 20
3.994314
 30
0.0
 11
14.631927
 21
4.436251
 31
0.0
  0
LINE
  5
215
100
AcDbEntity
  8
logo
 62
7
100
AcDbLine
 10
14.631927
 20
4.436251
 30
0.0
 11
14.631927
 21
5.209641
 31
0.0
  0
LINE
  5
216
100
AcDbEntity
  8
logo
 62
7
100
AcDbLine
 10
14.631927
 20
5.209641
 30
0.0
 11
14.705584
 21
5.651578
 31
0.0
  0
LINE
  5
217
100
AcDbEntity
  8
logo
 62
7
100
AcDbLine
 10
14.705584
 20
5.651578
 30
0.0
 11
14.852900
 21
5.872546
 31
0.0
  0
LINE
  5
218
100
AcDbEntity
  8
logo
 62
7
100
AcDbLine
 10
14.852900
 20
5.872546
 30
0.0
 11
15.000200
 21
5.983031
 31
0.0
  0
LINE
  5
219
100
AcDbEntity
  8
logo
 62
7
100
AcDbLine
 10
16.620637
 20
5.983031
 30
0.0
 11
16.915268
 21
5.983031
 31
0.0
  0
LINE
  5
21a
100
AcDbEntity
  8
logo
 62
7
100
AcDbLine
 10
16.915268
 20
5.983031
 30
0.0
 11
17.062583
 21
5.872546
 31
0.0
  0
LINE
  5
21b
100
AcDbEntity
  8
logo
 62
7
100
AcDbLine
 10
17.062583
 20
5.872546
 30
0.0
 11
17.209898
 21
5.651578
 31
0.0
  0
LINE
  5
21c
100
AcDbEntity
  8
logo
 62
7
100
AcDbLine
 10
17.209898
 20
5.651578
 30
0.0
 11
17.283541
 21
5.209641
 31
0.0
  0
LINE
  5
21d
100
AcDbEntity
  8
logo
 62
7
100
AcDbLine
 10
17.283541
 20
5.209641
 30
0.0
 11
17.283541
 21
4.436251
 31
0.0
  0
LINE
  5
21e
100
AcDbEntity
  8
logo
 62
7
100
AcDbLine
 10
17.283541
 20
4.436251
 30
0.0
 11
17.209898
 21
3.994314
 31
0.0
  0
LINE
  5
21f
100
AcDbEntity
  8
logo
 62
7
100
AcDbLine
 10
17.209898
 20
3.994314
 30
0.0
 11
17.062583
 21
3.773346
 31
0.0
  0
LINE
  5
220
100
AcDbEntity
  8
logo
 62
7
100
AcDbLine
 10
17.062583
 20
3.773346
 30
0.0
 11
16.915268
 21
3.662861
 31
0.0
  0
LINE
  5
221
100
AcDbEntity
  8
logo
 62
7
100
AcDbLine
 10
16.915268
 20
3.662861
 30
0.0
 11
16.620637
 21
3.662861
 31
0.0
  0
LINE
  5
222
100
AcDbEntity
  8
logo
 62
7
100
AcDbLine
 10
16.620637
 20
3.662861
 30
0.0
 11
16.473337
 21
3.773346
 31
0.0
  0
LINE
  5
223
100
AcDbEntity
  8
logo
 62
7
100
AcDbLine
 10
16.473337
 20
3.773346
 30
0.0
 11
16.326022
 21
3.994314
 31
0.0
  0
LINE
  5
224
100
AcDbEntity
  8
logo
 62
7
100
AcDbLine
 10
16.326022
 20
3.994314
 30
0.0
 11
16.252364
 21
4.436251
 31
0.0
  0
LINE
  5
225
100
AcDbEntity
  8
logo
 62
7
100
AcDbLine
 10
16.252364
 20
4.436251
 30
0.0
 11
16.252364
 21
5.209641
 31
0.0
  0
LINE
  5
226
100
AcDbEntity
  8
logo
 62
7
100
AcDbLine
 10
16.252364
 20
5.209641
 30
0.0
 11
16.326022
 21
5.651578
 31
0.0
  0
LINE
  5
227
100
AcDbEntity
  8
logo
 62
7
100
AcDbLine
 10
16.326022
 20
5.651578
 30
0.0
 11
16.473337
 21
5.872546
 31
0.0
  0
LINE
  5
228
100
AcDbEntity
  8
logo
 62
7
100
AcDbLine
 10
16.473337
 20
5.872546
 30
0.0
 11
16.620637
 21
5.983031
 31
0.0
  0
LINE
  5
229
100
AcDbEntity
  8
logo
 62
7
100
AcDbLine
 10
17.946460
 20
3.662861
 30
0.0
 11
17.946460
 21
5.983031
 31
0.0
  0
LINE
  5
22a
100
AcDbEntity
  8
logo
 62
7
100
AcDbLine
 10
17.946460
 20
5.983031
 30
0.0
 11
18.535705
 21
5.983031
 31
0.0
  0
LINE
  5
22b
100
AcDbEntity
  8
logo
 62
7
100
AcDbLine
 10
18.535705
 20
5.983031
 30
0.0
 11
18.683021
 21
5.872546
 31
0.0
  0
LINE
  5
22c
100
AcDbEntity
  8
logo
 62
7
100
AcDbLine
 10
18.683021
 20
5.872546
 30
0.0
 11
18.756678
 21
5.762063
 31
0.0
  0
LINE
  5
22d
100
AcDbEntity
  8
logo
 62
7
100
AcDbLine
 10
18.756678
 20
5.762063
 30
0.0
 11
18.830321
 21
5.541094
 31
0.0
  0
LINE
  5
22e
100
AcDbEntity
  8
logo
 62
7
100
AcDbLine
 10
18.830321
 20
5.541094
 30
0.0
 11
18.830321
 21
5.209641
 31
0.0
  0
LINE
  5
22f
100
AcDbEntity
  8
logo
 62
7
100
AcDbLine
 10
18.830321
 20
5.209641
 30
0.0
 11
18.756678
 21
4.988673
 31
0.0
  0
LINE
  5
230
100
AcDbEntity
  8
logo
 62
7
100
AcDbLine
 10
18.756678
 20
4.988673
 30
0.0
 11
18.683021
 21
4.878188
 31
0.0
  0
LINE
  5
231
100
AcDbEntity
  8
logo
 62
7
100
AcDbLine
 10
18.683021
 20
4.878188
 30
0.0
 11
18.535705
 21
4.767704
 31
0.0
  0
LINE
  5
232
100
AcDbEntity
  8
logo
 62
7
100
AcDbLine
 10
18.535705
 20
4.767704
 30
0.0
 11
17.946460
 21
4.767704
 31
0.0
  0
LINE
  5
233
100
AcDbEntity
  8
logo
 62
7
100
AcDbLine
 10
10.831612
 20
9.147373
 30
0.0
 11
11.348298
 21
9.479889
 31
0.0
  0
LINE
  5
234
100
AcDbEntity
  8
logo
 62
7
100
AcDbLine
 10
10.418003
 20
4.168941
 30
0.0
 11
10.381437
 21
4.686528
 31
0.0
  0
LINE
  5
235
100
AcDbEntity
  8
logo
 62
7
100
AcDbLine
 10
10.377477
 20
3.049532
 30
0.0
 11
10.673964
 21
3.687148
 31
0.0
  0
LINE
  5
236
100
AcDbEntity
  8
logo
 62
7
100
AcDbLine
 10
20.085826
 20
4.016377
 30
0.0
 11
19.753300
 21
3.499697
 31
0.0
  0
LINE
  5
237
100
AcDbEntity
  8
logo
 62
7
100
AcDbLine
 10
10.381437
 20
7.960543
 30
0.0
 11
10.499101
 21
8.630693
 31
0.0
  0
LINE
  5
238
100
AcDbEntity
  8
logo
 62
7
100
AcDbLine
 10
19.753300
 20
9.147373
 30
0.0
 11
20.085826
 21
8.630693
 31
0.0
  0
LINE
  5
239
100
AcDbEntity
  8
logo
 62
7
100
AcDbLine
 10
19.236629
 20
9.479892
 30
0.0
 11
19.753300
 21
9.147373
 31
0.0
  0
LINE
  5
23a
100
AcDbEntity
  8
logo
 62
7
100
AcDbLine
 10
20.203490
 20
7.960546
 30
0.0
 11
20.203475
 21
4.686528
 31
0.0
  0
LINE
  5
23b
100
AcDbEntity
  8
logo
 62
7
100
AcDbLine
 10
10.499101
 20
8.630693
 30
0.0
 11
10.831612
 21
9.147373
 31
0.0
  0
LINE
  5
23c
100
AcDbEntity
  8
logo
 62
7
100
AcDbLine
 10
11.506951
 20
3.084368
 30
0.0
 11
11.038911
 21
3.328316
 31
0.0
  0
LINE
  5
23d
100
AcDbEntity
  8
logo
 62
7
100
AcDbLine
 10
11.038911
 20
3.328316
 30
0.0
 11
10.377477
 21
3.049532
 31
0.0
  0
LINE
  5
23e
100
AcDbEntity
  8
logo
 62
7
100
AcDbLine
 10
12.018441
 20
9.597549
 30
0.0
 11
18.566471
 21
9.597554
 31
0.0
  0
LINE
  5
23f
100
AcDbEntity
  8
logo
 62
7
100
AcDbLine
 10
18.566471
 20
9.597554
 30
0.0
 11
19.236629
 21
9.479892
 31
0.0
  0
LINE
  5
240
100
AcDbEntity
  8
logo
 62
7
100
AcDbLine
 10
19.236629
 20
3.167180
 30
0.0
 11
18.566471
 21
3.049519
 31
0.0
  0
LINE
  5
241
100
AcDbEntity
  8
logo
 62
7
100
AcDbLine
 10
20.203475
 20
4.686528
 30
0.0
 11
20.085826
 21
4.016377
 31
0.0
  0
LINE
  5
242
100
AcDbEntity
  8
logo
 62
7
100
AcDbLine
 10
18.566471
 20
3.049519
 30
0.0
 11
12.018441
 21
3.049519
 31
0.0
  0
LINE
  5
243
100
AcDbEntity
  8
logo
 62
7
100
AcDbLine
 10
12.018441
 20
3.049519
 30
0.0
 11
11.506951
 21
3.084368
 31
0.0
  0
LINE
  5
244
100
AcDbEntity
  8
logo
 62
7
100
AcDbLine
 10
19.753300
 20
3.499697
 30
0.0
 11
19.236629
 21
3.167180
 31
0.0
  0
LINE
  5
245
100
AcDbEntity
  8
logo
 62
7
100
AcDbLine
 10
10.673964
 20
3.687148
 30
0.0
 11
10.418003
 21
4.168941
 31
0.0
  0
LINE
  5
246
100
AcDbEntity
  8
logo
 62
7
100
AcDbLine
 10
11.348298
 20
9.479889
 30
0.0
 11
12.018441
 21
9.597549
 31
0.0
  0
LINE
  5
247
100
AcDbEntity
  8
logo
 62
7
100
AcDbLine
 10
20.085826
 20
8.630693
 30
0.0
 11
20.203490
 21
7.960546
 31
0.0
  0
LINE
  5
248
100
AcDbEntity
  8
logo
 62
7
100
AcDbLine
 10
10.381437
 20
4.686528
 30
0.0
 11
10.381437
 21
7.960543
 31
0.0
  0
LINE
  5
249
100
AcDbEntity
  8
text
 62
7
100
AcDbLine
 10
3.500605
 20
26.029204
 30
0.0
 11
3.322804
 21
26.207005
 31
0.0
  0
LINE
  5
24a
100
AcDbEntity
  8
text
 62
7
100
AcDbLine
 10
3.322804
 20
26.207005
 30
0.0
 11
3.054693
 21
26.297316
 31
0.0
  0
LINE
  5
24b
100
AcDbEntity
  8
text
 62
7
100
AcDbLine
 10
3.054693
 20
26.297316
 30
0.0
 11
2.699092
 21
26.297316
 31
0.0
  0
LINE
  5
24c
100
AcDbEntity
  8
text
 62
7
100
AcDbLine
 10
2.699092
 20
26.297316
 30
0.0
 11
2.433802
 21
26.207005
 31
0.0
  0
LINE
  5
24d
100
AcDbEntity
  8
text
 62
7
100
AcDbLine
 10
2.433802
 20
26.207005
 30
0.0
 11
2.256001
 21
26.029204
 31
0.0
  0
LINE
  5
24e
100
AcDbEntity
  8
text
 62
7
100
AcDbLine
 10
2.256001
 20
26.029204
 30
0.0
 11
2.256001
 21
25.851404
 31
0.0
  0
LINE
  5
24f
100
AcDbEntity
  8
text
 62
7
100
AcDbLine
 10
2.256001
 20
25.851404
 30
0.0
 11
2.343491
 21
25.673603
 31
0.0
  0
LINE
  5
250
100
AcDbEntity
  8
text
 62
7
100
AcDbLine
 10
2.343491
 20
25.673603
 30
0.0
 11
2.433802
 21
25.586114
 31
0.0
  0
LINE
  5
251
100
AcDbEntity
  8
text
 62
7
100
AcDbLine
 10
2.433802
 20
25.586114
 30
0.0
 11
2.611602
 21
25.495803
 31
0.0
  0
LINE
  5
252
100
AcDbEntity
  8
text
 62
7
100
AcDbLine
 10
2.611602
 20
25.495803
 30
0.0
 11
3.145004
 21
25.318002
 31
0.0
  0
LINE
  5
253
100
AcDbEntity
  8
text
 62
7
100
AcDbLine
 10
3.145004
 20
25.318002
 30
0.0
 11
3.322804
 21
25.230513
 31
0.0
  0
LINE
  5
254
100
AcDbEntity
  8
text
 62
7
100
AcDbLine
 10
3.322804
 20
25.230513
 30
0.0
 11
3.410294
 21
25.140202
 31
0.0
  0
LINE
  5
255
100
AcDbEntity
  8
text
 62
7
100
AcDbLine
 10
3.410294
 20
25.140202
 30
0.0
 11
3.500605
 21
24.962401
 31
0.0
  0
LINE
  5
256
100
AcDbEntity
  8
text
 62
7
100
AcDbLine
 10
3.500605
 20
24.962401
 30
0.0
 11
3.500605
 21
24.695701
 31
0.0
  0
LINE
  5
257
100
AcDbEntity
  8
text
 62
7
100
AcDbLine
 10
3.500605
 20
24.695701
 30
0.0
 11
3.322804
 21
24.517900
 31
0.0
  0
LINE
  5
258
100
AcDbEntity
  8
text
 62
7
100
AcDbLine
 10
3.322804
 20
24.517900
 30
0.0
 11
3.054693
 21
24.429000
 31
0.0
  0
LINE
  5
259
100
AcDbEntity
  8
text
 62
7
100
AcDbLine
 10
3.054693
 20
24.429000
 30
0.0
 11
2.699092
 21
24.429000
 31
0.0
  0
LINE
  5
25a
100
AcDbEntity
  8
text
 62
7
100
AcDbLine
 10
2.699092
 20
24.429000
 30
0.0
 11
2.433802
 21
24.517900
 31
0.0
  0
LINE
  5
25b
100
AcDbEntity
  8
text
 62
7
100
AcDbLine
 10
2.433802
 20
24.517900
 30
0.0
 11
2.256001
 21
24.695701
 31
0.0
  0
LINE
  5
25c
100
AcDbEntity
  8
text
 62
7
100
AcDbLine
 10
4.121491
 20
26.297316
 30
0.0
 11
4.121491
 21
24.429000
 31
0.0
  0
LINE
  5
25d
100
AcDbEntity
  8
text
 62
7
100
AcDbLine
 10
6.080126
 20
25.851404
 30
0.0
 11
5.989815
 21
26.029204
 31
0.0
  0
LINE
  5
25e
100
AcDbEntity
  8
text
 62
7
100
AcDbLine
 10
5.989815
 20
26.029204
 30
0.0
 11
5.812014
 21
26.207005
 31
0.0
  0
LINE
  5
25f
100
AcDbEntity
  8
text
 62
7
100
AcDbLine
 10
5.812014
 20
26.207005
 30
0.0
 11
5.634214
 21
26.297316
 31
0.0
  0
LINE
  5
260
100
AcDbEntity
  8
text
 62
7
100
AcDbLine
 10
5.634214
 20
26.297316
 30
0.0
 11
5.278613
 21
26.297316
 31
0.0
  0
LINE
  5
261
100
AcDbEntity
  8
text
 62
7
100
AcDbLine
 10
5.278613
 20
26.297316
 30
0.0
 11
5.100812
 21
26.207005
 31
0.0
  0
LINE
  5
262
100
AcDbEntity
  8
text
 62
7
100
AcDbLine
 10
5.100812
 20
26.207005
 30
0.0
 11
4.923012
 21
26.029204
 31
0.0
  0
LINE
  5
263
100
AcDbEntity
  8
text
 62
7
100
AcDbLine
 10
4.923012
 20
26.029204
 30
0.0
 11
4.832701
 21
25.851404
 31
0.0
  0
LINE
  5
264
100
AcDbEntity
  8
text
 62
7
100
AcDbLine
 10
4.832701
 20
25.851404
 30
0.0
 11
4.745211
 21
25.586114
 31
0.0
  0
LINE
  5
265
100
AcDbEntity
  8
text
 62
7
100
AcDbLine
 10
4.745211
 20
25.586114
 30
0.0
 11
4.745211
 21
25.140202
 31
0.0
  0
LINE
  5
266
100
AcDbEntity
  8
text
 62
7
100
AcDbLine
 10
4.745211
 20
25.140202
 30
0.0
 11
4.832701
 21
24.874912
 31
0.0
  0
LINE
  5
267
100
AcDbEntity
  8
text
 62
7
100
AcDbLine
 10
4.832701
 20
24.874912
 30
0.0
 11
4.923012
 21
24.695701
 31
0.0
  0
LINE
  5
268
100
AcDbEntity
  8
text
 62
7
100
AcDbLine
 10
4.923012
 20
24.695701
 30
0.0
 11
5.100812
 21
24.517900
 31
0.0
  0
LINE
  5
269
100
AcDbEntity
  8
text
 62
7
100
AcDbLine
 10
5.100812
 20
24.517900
 30
0.0
 11
5.278613
 21
24.429000
 31
0.0
  0
LINE
  5
26a
100
AcDbEntity
  8
text
 62
7
100
AcDbLine
 10
5.278613
 20
24.429000
 30
0.0
 11
5.634214
 21
24.429000
 31
0.0
  0
LINE
  5
26b
100
AcDbEntity
  8
text
 62
7
100
AcDbLine
 10
5.634214
 20
24.429000
 30
0.0
 11
5.812014
 21
24.517900
 31
0.0
  0
LINE
  5
26c
100
AcDbEntity
  8
text
 62
7
100
AcDbLine
 10
5.812014
 20
24.517900
 30
0.0
 11
5.989815
 21
24.695701
 31
0.0
  0
LINE
  5
26d
100
AcDbEntity
  8
text
 62
7
100
AcDbLine
 10
5.989815
 20
24.695701
 30
0.0
 11
6.080126
 21
24.874912
 31
0.0
  0
LINE
  5
26e
100
AcDbEntity
  8
text
 62
7
100
AcDbLine
 10
6.080126
 20
24.874912
 30
0.0
 11
6.080126
 21
25.140202
 31
0.0
  0
LINE
  5
26f
100
AcDbEntity
  8
text
 62
7
100
AcDbLine
 10
5.634214
 20
25.140202
 30
0.0
 11
6.080126
 21
25.140202
 31
0.0
  0
LINE
  5
270
100
AcDbEntity
  8
text
 62
7
100
AcDbLine
 10
6.701011
 20
26.297316
 30
0.0
 11
6.701011
 21
24.429000
 31
0.0
  0
LINE
  5
271
100
AcDbEntity
  8
text
 62
7
100
AcDbLine
 10
6.701011
 20
26.297316
 30
0.0
 11
7.948436
 21
24.429000
 31
0.0
  0
LINE
  5
272
100
AcDbEntity
  8
text
 62
7
100
AcDbLine
 10
7.948436
 20
26.297316
 30
0.0
 11
7.948436
 21
24.429000
 31
0.0
  0
LINE
  5
273
100
AcDbEntity
  8
text
 62
7
100
AcDbLine
 10
9.102733
 20
26.297316
 30
0.0
 11
8.391531
 21
24.429000
 31
0.0
  0
LINE
  5
274
100
AcDbEntity
  8
text
 62
7
100
AcDbLine
 10
9.102733
 20
26.297316
 30
0.0
 11
9.813935
 21
24.429000
 31
0.0
  0
LINE
  5
275
100
AcDbEntity
  8
text
 62
7
100
AcDbLine
 10
8.656821
 20
25.049891
 30
0.0
 11
9.548645
 21
25.049891
 31
0.0
  0
LINE
  5
276
100
AcDbEntity
  8
text
 62
7
100
AcDbLine
 10
10.257021
 20
26.297316
 30
0.0
 11
10.257021
 21
24.429000
 31
0.0
  0
LINE
  5
277
100
AcDbEntity
  8
text
 62
7
100
AcDbLine
 10
10.257021
 20
24.429000
 30
0.0
 11
11.323824
 21
24.429000
 31
0.0
  0
LINE
  5
278
100
AcDbEntity
  8
text
 62
7
100
AcDbLine
 10
3.143591
 20
39.197316
 30
0.0
 11
3.143591
 21
37.329000
 31
0.0
  0
LINE
  5
279
100
AcDbEntity
  8
text
 62
7
100
AcDbLine
 10
3.143591
 20
37.329000
 30
0.0
 11
4.210394
 21
37.329000
 31
0.0
  0
LINE
  5
27a
100
AcDbEntity
  8
text
 62
7
100
AcDbLine
 10
4.656311
 20
39.197316
 30
0.0
 11
4.656311
 21
37.329000
 31
0.0
  0
LINE
  5
27b
100
AcDbEntity
  8
text
 62
7
100
AcDbLine
 10
4.656311
 20
39.197316
 30
0.0
 11
5.813425
 21
39.197316
 31
0.0
  0
LINE
  5
27c
100
AcDbEntity
  8
text
 62
7
100
AcDbLine
 10
4.656311
 20
38.305492
 30
0.0
 11
5.367513
 21
38.305492
 31
0.0
  0
LINE
  5
27d
100
AcDbEntity
  8
text
 62
7
100
AcDbLine
 10
4.656311
 20
37.329000
 30
0.0
 11
5.813425
 21
37.329000
 31
0.0
  0
LINE
  5
27e
100
AcDbEntity
  8
text
 62
7
100
AcDbLine
 10
6.078711
 20
39.197316
 30
0.0
 11
6.789913
 21
37.329000
 31
0.0
  0
LINE
  5
27f
100
AcDbEntity
  8
text
 62
7
100
AcDbLine
 10
7.501115
 20
39.197316
 30
0.0
 11
6.789913
 21
37.329000
 31
0.0
  0
LINE
  5
280
100
AcDbEntity
  8
text
 62
7
100
AcDbLine
 10
7.944201
 20
39.197316
 30
0.0
 11
7.944201
 21
37.329000
 31
0.0
  0
LINE
  5
281
100
AcDbEntity
  8
text
 62
7
100
AcDbLine
 10
7.944201
 20
39.197316
 30
0.0
 11
9.101315
 21
39.197316
 31
0.0
  0
LINE
  5
282
100
AcDbEntity
  8
text
 62
7
100
AcDbLine
 10
7.944201
 20
38.305492
 30
0.0
 11
8.655403
 21
38.305492
 31
0.0
  0
LINE
  5
283
100
AcDbEntity
  8
text
 62
7
100
AcDbLine
 10
7.944201
 20
37.329000
 30
0.0
 11
9.101315
 21
37.329000
 31
0.0
  0
LINE
  5
284
100
AcDbEntity
  8
text
 62
7
100
AcDbLine
 10
9.631901
 20
39.197316
 30
0.0
 11
9.631901
 21
37.329000
 31
0.0
  0
LINE
  5
285
100
AcDbEntity
  8
text
 62
7
100
AcDbLine
 10
9.631901
 20
37.329000
 30
0.0
 11
10.698704
 21
37.329000
 31
0.0
  0
LINE
  5
286
100
AcDbEntity
  8
text
 62
7
100
AcDbLine
 10
11.512491
 20
101.641316
 30
0.0
 11
11.512491
 21
99.773000
 31
0.0
  0
LINE
  5
287
100
AcDbEntity
  8
text
 62
7
100
AcDbLine
 10
11.512491
 20
99.773000
 30
0.0
 11
12.579294
 21
99.773000
 31
0.0
  0
LINE
  5
288
100
AcDbEntity
  8
text
 62
7
100
AcDbLine
 10
13.025211
 20
101.641316
 30
0.0
 11
13.025211
 21
99.773000
 31
0.0
  0
LINE
  5
289
100
AcDbEntity
  8
text
 62
7
100
AcDbLine
 10
13.025211
 20
101.641316
 30
0.0
 11
14.182325
 21
101.641316
 31
0.0
  0
LINE
  5
28a
100
AcDbEntity
  8
text
 62
7
100
AcDbLine
 10
13.025211
 20
100.749492
 30
0.0
 11
13.736413
 21
100.749492
 31
0.0
  0
LINE
  5
28b
100
AcDbEntity
  8
text
 62
7
100
AcDbLine
 10
13.025211
 20
99.773000
 30
0.0
 11
14.182325
 21
99.773000
 31
0.0
  0
LINE
  5
28c
100
AcDbEntity
  8
text
 62
7
100
AcDbLine
 10
14.447611
 20
101.641316
 30
0.0
 11
15.158813
 21
99.773000
 31
0.0
  0
LINE
  5
28d
100
AcDbEntity
  8
text
 62
7
100
AcDbLine
 10
15.870015
 20
101.641316
 30
0.0
 11
15.158813
 21
99.773000
 31
0.0
  0
LINE
  5
28e
100
AcDbEntity
  8
text
 62
7
100
AcDbLine
 10
16.313101
 20
101.641316
 30
0.0
 11
16.313101
 21
99.773000
 31
0.0
  0
LINE
  5
28f
100
AcDbEntity
  8
text
 62
7
100
AcDbLine
 10
16.313101
 20
101.641316
 30
0.0
 11
17.470215
 21
101.641316
 31
0.0
  0
LINE
  5
290
100
AcDbEntity
  8
text
 62
7
100
AcDbLine
 10
16.313101
 20
100.749492
 30
0.0
 11
17.024303
 21
100.749492
 31
0.0
  0
LINE
  5
291
100
AcDbEntity
  8
text
 62
7
100
AcDbLine
 10
16.313101
 20
99.773000
 30
0.0
 11
17.470215
 21
99.773000
 31
0.0
  0
LINE
  5
292
100
AcDbEntity
  8
text
 62
7
100
AcDbLine
 10
18.000801
 20
101.641316
 30
0.0
 11
18.000801
 21
99.773000
 31
0.0
  0
LINE
  5
293
100
AcDbEntity
  8
text
 62
7
100
AcDbLine
 10
18.000801
 20
99.773000
 30
0.0
 11
19.067604
 21
99.773000
 31
0.0
  0
LINE
  5
294
100
AcDbEntity
  8
text
 62
7
100
AcDbLine
 10
21.834193
 20
26.297316
 30
0.0
 11
21.656392
 21
26.207005
 31
0.0
  0
LINE
  5
295
100
AcDbEntity
  8
text
 62
7
100
AcDbLine
 10
21.656392
 20
26.207005
 30
0.0
 11
21.478592
 21
26.029204
 31
0.0
  0
LINE
  5
296
100
AcDbEntity
  8
text
 62
7
100
AcDbLine
 10
21.478592
 20
26.029204
 30
0.0
 11
21.388281
 21
25.851404
 31
0.0
  0
LINE
  5
297
100
AcDbEntity
  8
text
 62
7
100
AcDbLine
 10
21.388281
 20
25.851404
 30
0.0
 11
21.300791
 21
25.586114
 31
0.0
  0
LINE
  5
298
100
AcDbEntity
  8
text
 62
7
100
AcDbLine
 10
21.300791
 20
25.586114
 30
0.0
 11
21.300791
 21
25.140202
 31
0.0
  0
LINE
  5
299
100
AcDbEntity
  8
text
 62
7
100
AcDbLine
 10
21.300791
 20
25.140202
 30
0.0
 11
21.388281
 21
24.874912
 31
0.0
  0
LINE
  5
29a
100
AcDbEntity
  8
text
 62
7
100
AcDbLine
 10
21.388281
 20
24.874912
 30
0.0
 11
21.478592
 21
24.695701
 31
0.0
  0
LINE
  5
29b
100
AcDbEntity
  8
text
 62
7
100
AcDbLine
 10
21.478592
 20
24.695701
 30
0.0
 11
21.656392
 21
24.517900
 31
0.0
  0
LINE
  5
29c
100
AcDbEntity
  8
text
 62
7
100
AcDbLine
 10
21.656392
 20
24.517900
 30
0.0
 11
21.834193
 21
24.429000
 31
0.0
  0
LINE
  5
29d
100
AcDbEntity
  8
text
 62
7
100
AcDbLine
 10
21.834193
 20
24.429000
 30
0.0
 11
22.189794
 21
24.429000
 31
0.0
  0
LINE
  5
29e
100
AcDbEntity
  8
text
 62
7
100
AcDbLine
 10
22.189794
 20
24.429000
 30
0.0
 11
22.367594
 21
24.517900
 31
0.0
  0
LINE
  5
29f
100
AcDbEntity
  8
text
 62
7
100
AcDbLine
 10
22.367594
 20
24.517900
 30
0.0
 11
22.545395
 21
24.695701
 31
0.0
  0
LINE
  5
2a0
100
AcDbEntity
  8
text
 62
7
100
AcDbLine
 10
22.545395
 20
24.695701
 30
0.0
 11
22.635706
 21
24.874912
 31
0.0
  0
LINE
  5
2a1
100
AcDbEntity
  8
text
 62
7
100
AcDbLine
 10
22.635706
 20
24.874912
 30
0.0
 11
22.723195
 21
25.140202
 31
0.0
  0
LINE
  5
2a2
100
AcDbEntity
  8
text
 62
7
100
AcDbLine
 10
22.723195
 20
25.140202
 30
0.0
 11
22.723195
 21
25.586114
 31
0.0
  0
LINE
  5
2a3
100
AcDbEntity
  8
text
 62
7
100
AcDbLine
 10
22.723195
 20
25.586114
 30
0.0
 11
22.635706
 21
25.851404
 31
0.0
  0
LINE
  5
2a4
100
AcDbEntity
  8
text
 62
7
100
AcDbLine
 10
22.635706
 20
25.851404
 30
0.0
 11
22.545395
 21
26.029204
 31
0.0
  0
LINE
  5
2a5
100
AcDbEntity
  8
text
 62
7
100
AcDbLine
 10
22.545395
 20
26.029204
 30
0.0
 11
22.367594
 21
26.207005
 31
0.0
  0
LINE
  5
2a6
100
AcDbEntity
  8
text
 62
7
100
AcDbLine
 10
22.367594
 20
26.207005
 30
0.0
 11
22.189794
 21
26.297316
 31
0.0
  0
LINE
  5
2a7
100
AcDbEntity
  8
text
 62
7
100
AcDbLine
 10
22.189794
 20
26.297316
 30
0.0
 11
21.834193
 21
26.297316
 31
0.0
  0
LINE
  5
2a8
100
AcDbEntity
  8
text
 62
7
100
AcDbLine
 10
23.344091
 20
26.297316
 30
0.0
 11
23.344091
 21
24.962401
 31
0.0
  0
LINE
  5
2a9
100
AcDbEntity
  8
text
 62
7
100
AcDbLine
 10
23.344091
 20
24.962401
 30
0.0
 11
23.434402
 21
24.695701
 31
0.0
  0
LINE
  5
2aa
100
AcDbEntity
  8
text
 62
7
100
AcDbLine
 10
23.434402
 20
24.695701
 30
0.0
 11
23.612202
 21
24.517900
 31
0.0
  0
LINE
  5
2ab
100
AcDbEntity
  8
text
 62
7
100
AcDbLine
 10
23.612202
 20
24.517900
 30
0.0
 11
23.880314
 21
24.429000
 31
0.0
  0
LINE
  5
2ac
100
AcDbEntity
  8
text
 62
7
100
AcDbLine
 10
23.880314
 20
24.429000
 30
0.0
 11
24.055293
 21
24.429000
 31
0.0
  0
LINE
  5
2ad
100
AcDbEntity
  8
text
 62
7
100
AcDbLine
 10
24.055293
 20
24.429000
 30
0.0
 11
24.323404
 21
24.517900
 31
0.0
  0
LINE
  5
2ae
100
AcDbEntity
  8
text
 62
7
100
AcDbLine
 10
24.323404
 20
24.517900
 30
0.0
 11
24.501205
 21
24.695701
 31
0.0
  0
LINE
  5
2af
100
AcDbEntity
  8
text
 62
7
100
AcDbLine
 10
24.501205
 20
24.695701
 30
0.0
 11
24.591516
 21
24.962401
 31
0.0
  0
LINE
  5
2b0
100
AcDbEntity
  8
text
 62
7
100
AcDbLine
 10
24.591516
 20
24.962401
 30
0.0
 11
24.591516
 21
26.297316
 31
0.0
  0
LINE
  5
2b1
100
AcDbEntity
  8
text
 62
7
100
AcDbLine
 10
25.655492
 20
26.297316
 30
0.0
 11
25.655492
 21
24.429000
 31
0.0
  0
LINE
  5
2b2
100
AcDbEntity
  8
text
 62
7
100
AcDbLine
 10
25.034601
 20
26.297316
 30
0.0
 11
26.279204
 21
26.297316
 31
0.0
  0
LINE
  5
2b3
100
AcDbEntity
  8
text
 62
7
100
AcDbLine
 10
18.321901
 20
39.297316
 30
0.0
 11
18.321901
 21
37.429000
 31
0.0
  0
LINE
  5
2b4
100
AcDbEntity
  8
text
 62
7
100
AcDbLine
 10
19.033103
 20
39.297316
 30
0.0
 11
19.033103
 21
37.429000
 31
0.0
  0
LINE
  5
2b5
100
AcDbEntity
  8
text
 62
7
100
AcDbLine
 10
19.033103
 20
39.297316
 30
0.0
 11
20.280528
 21
37.429000
 31
0.0
  0
LINE
  5
2b6
100
AcDbEntity
  8
text
 62
7
100
AcDbLine
 10
20.280528
 20
39.297316
 30
0.0
 11
20.280528
 21
37.429000
 31
0.0
  0
LINE
  5
2b7
100
AcDbEntity
  8
text
 62
7
100
AcDbLine
 10
20.723621
 20
39.297316
 30
0.0
 11
21.434823
 21
37.429000
 31
0.0
  0
LINE
  5
2b8
100
AcDbEntity
  8
text
 62
7
100
AcDbLine
 10
22.146025
 20
39.297316
 30
0.0
 11
21.434823
 21
37.429000
 31
0.0
  0
LINE
  5
2b9
100
AcDbEntity
  8
text
 62
7
100
AcDbLine
 10
22.589111
 20
37.874912
 30
0.0
 11
22.501621
 21
37.784601
 31
0.0
  0
LINE
  5
2ba
100
AcDbEntity
  8
text
 62
7
100
AcDbLine
 10
22.501621
 20
37.784601
 30
0.0
 11
22.589111
 21
37.695701
 31
0.0
  0
LINE
  5
2bb
100
AcDbEntity
  8
text
 62
7
100
AcDbLine
 10
22.589111
 20
37.695701
 30
0.0
 11
22.679422
 21
37.784601
 31
0.0
  0
LINE
  5
2bc
100
AcDbEntity
  8
text
 62
7
100
AcDbLine
 10
22.679422
 20
37.784601
 30
0.0
 11
22.589111
 21
37.874912
 31
0.0
  0
LINE
  5
2bd
100
AcDbEntity
  8
text
 62
7
100
AcDbLine
 10
24.813033
 20
39.297316
 30
0.0
 11
24.635232
 21
39.207005
 31
0.0
  0
LINE
  5
2be
100
AcDbEntity
  8
text
 62
7
100
AcDbLine
 10
24.635232
 20
39.207005
 30
0.0
 11
24.457432
 21
39.029204
 31
0.0
  0
LINE
  5
2bf
100
AcDbEntity
  8
text
 62
7
100
AcDbLine
 10
24.457432
 20
39.029204
 30
0.0
 11
24.367121
 21
38.851404
 31
0.0
  0
LINE
  5
2c0
100
AcDbEntity
  8
text
 62
7
100
AcDbLine
 10
24.367121
 20
38.851404
 30
0.0
 11
24.279631
 21
38.586114
 31
0.0
  0
LINE
  5
2c1
100
AcDbEntity
  8
text
 62
7
100
AcDbLine
 10
24.279631
 20
38.586114
 30
0.0
 11
24.279631
 21
38.140202
 31
0.0
  0
LINE
  5
2c2
100
AcDbEntity
  8
text
 62
7
100
AcDbLine
 10
24.279631
 20
38.140202
 30
0.0
 11
24.367121
 21
37.874912
 31
0.0
  0
LINE
  5
2c3
100
AcDbEntity
  8
text
 62
7
100
AcDbLine
 10
24.367121
 20
37.874912
 30
0.0
 11
24.457432
 21
37.695701
 31
0.0
  0
LINE
  5
2c4
100
AcDbEntity
  8
text
 62
7
100
AcDbLine
 10
24.457432
 20
37.695701
 30
0.0
 11
24.635232
 21
37.517900
 31
0.0
  0
LINE
  5
2c5
100
AcDbEntity
  8
text
 62
7
100
AcDbLine
 10
24.635232
 20
37.517900
 30
0.0
 11
24.813033
 21
37.429000
 31
0.0
  0
LINE
  5
2c6
100
AcDbEntity
  8
text
 62
7
100
AcDbLine
 10
24.813033
 20
37.429000
 30
0.0
 11
25.168634
 21
37.429000
 31
0.0
  0
LINE
  5
2c7
100
AcDbEntity
  8
text
 62
7
100
AcDbLine
 10
25.168634
 20
37.429000
 30
0.0
 11
25.346434
 21
37.517900
 31
0.0
  0
LINE
  5
2c8
100
AcDbEntity
  8
text
 62
7
100
AcDbLine
 10
25.346434
 20
37.517900
 30
0.0
 11
25.524235
 21
37.695701
 31
0.0
  0
LINE
  5
2c9
100
AcDbEntity
  8
text
 62
7
100
AcDbLine
 10
25.524235
 20
37.695701
 30
0.0
 11
25.614546
 21
37.874912
 31
0.0
  0
LINE
  5
2ca
100
AcDbEntity
  8
text
 62
7
100
AcDbLine
 10
25.614546
 20
37.874912
 30
0.0
 11
25.702035
 21
38.140202
 31
0.0
  0
LINE
  5
2cb
100
AcDbEntity
  8
text
 62
7
100
AcDbLine
 10
25.702035
 20
38.140202
 30
0.0
 11
25.702035
 21
38.586114
 31
0.0
  0
LINE
  5
2cc
100
AcDbEntity
  8
text
 62
7
100
AcDbLine
 10
25.702035
 20
38.586114
 30
0.0
 11
25.614546
 21
38.851404
 31
0.0
  0
LINE
  5
2cd
100
AcDbEntity
  8
text
 62
7
100
AcDbLine
 10
25.614546
 20
38.851404
 30
0.0
 11
25.524235
 21
39.029204
 31
0.0
  0
LINE
  5
2ce
100
AcDbEntity
  8
text
 62
7
100
AcDbLine
 10
25.524235
 20
39.029204
 30
0.0
 11
25.346434
 21
39.207005
 31
0.0
  0
LINE
  5
2cf
100
AcDbEntity
  8
text
 62
7
100
AcDbLine
 10
25.346434
 20
39.207005
 30
0.0
 11
25.168634
 21
39.297316
 31
0.0
  0
LINE
  5
2d0
100
AcDbEntity
  8
text
 62
7
100
AcDbLine
 10
25.168634
 20
39.297316
 30
0.0
 11
24.813033
 21
39.297316
 31
0.0
  0
LINE
  5
2d1
100
AcDbEntity
  8
text
 62
7
100
AcDbLine
 10
26.322921
 20
39.297316
 30
0.0
 11
26.322921
 21
37.962401
 31
0.0
  0
LINE
  5
2d2
100
AcDbEntity
  8
text
 62
7
100
AcDbLine
 10
26.322921
 20
37.962401
 30
0.0
 11
26.413232
 21
37.695701
 31
0.0
  0
LINE
  5
2d3
100
AcDbEntity
  8
text
 62
7
100
AcDbLine
 10
26.413232
 20
37.695701
 30
0.0
 11
26.591032
 21
37.517900
 31
0.0
  0
LINE
  5
2d4
100
AcDbEntity
  8
text
 62
7
100
AcDbLine
 10
26.591032
 20
37.517900
 30
0.0
 11
26.859144
 21
37.429000
 31
0.0
  0
LINE
  5
2d5
100
AcDbEntity
  8
text
 62
7
100
AcDbLine
 10
26.859144
 20
37.429000
 30
0.0
 11
27.034123
 21
37.429000
 31
0.0
  0
LINE
  5
2d6
100
AcDbEntity
  8
text
 62
7
100
AcDbLine
 10
27.034123
 20
37.429000
 30
0.0
 11
27.302234
 21
37.517900
 31
0.0
  0
LINE
  5
2d7
100
AcDbEntity
  8
text
 62
7
100
AcDbLine
 10
27.302234
 20
37.517900
 30
0.0
 11
27.480035
 21
37.695701
 31
0.0
  0
LINE
  5
2d8
100
AcDbEntity
  8
text
 62
7
100
AcDbLine
 10
27.480035
 20
37.695701
 30
0.0
 11
27.570346
 21
37.962401
 31
0.0
  0
LINE
  5
2d9
100
AcDbEntity
  8
text
 62
7
100
AcDbLine
 10
27.570346
 20
37.962401
 30
0.0
 11
27.570346
 21
39.297316
 31
0.0
  0
LINE
  5
2da
100
AcDbEntity
  8
text
 62
7
100
AcDbLine
 10
28.634332
 20
39.297316
 30
0.0
 11
28.634332
 21
37.429000
 31
0.0
  0
LINE
  5
2db
100
AcDbEntity
  8
text
 62
7
100
AcDbLine
 10
28.013441
 20
39.297316
 30
0.0
 11
29.258044
 21
39.297316
 31
0.0
  0
LINE
  5
2dc
100
AcDbEntity
  8
text
 62
7
100
AcDbLine
 10
20.790003
 20
45.975316
 30
0.0
 11
20.078801
 21
44.107000
 31
0.0
  0
LINE
  5
2dd
100
AcDbEntity
  8
text
 62
7
100
AcDbLine
 10
20.790003
 20
45.975316
 30
0.0
 11
21.501205
 21
44.107000
 31
0.0
  0
LINE
  5
2de
100
AcDbEntity
  8
text
 62
7
100
AcDbLine
 10
20.344091
 20
44.727891
 30
0.0
 11
21.235915
 21
44.727891
 31
0.0
  0
LINE
  5
2df
100
AcDbEntity
  8
text
 62
7
100
AcDbLine
 10
26.166291
 20
45.975316
 30
0.0
 11
26.166291
 21
44.107000
 31
0.0
  0
LINE
  5
2e0
100
AcDbEntity
  8
text
 62
7
100
AcDbLine
 10
26.166291
 20
45.975316
 30
0.0
 11
26.967804
 21
45.975316
 31
0.0
  0
LINE
  5
2e1
100
AcDbEntity
  8
text
 62
7
100
AcDbLine
 10
26.967804
 20
45.975316
 30
0.0
 11
27.233094
 21
45.885005
 31
0.0
  0
LINE
  5
2e2
100
AcDbEntity
  8
text
 62
7
100
AcDbLine
 10
27.233094
 20
45.885005
 30
0.0
 11
27.323405
 21
45.794694
 31
0.0
  0
LINE
  5
2e3
100
AcDbEntity
  8
text
 62
7
100
AcDbLine
 10
27.323405
 20
45.794694
 30
0.0
 11
27.413716
 21
45.619715
 31
0.0
  0
LINE
  5
2e4
100
AcDbEntity
  8
text
 62
7
100
AcDbLine
 10
27.413716
 20
45.619715
 30
0.0
 11
27.413716
 21
45.439093
 31
0.0
  0
LINE
  5
2e5
100
AcDbEntity
  8
text
 62
7
100
AcDbLine
 10
27.413716
 20
45.439093
 30
0.0
 11
27.323405
 21
45.264114
 31
0.0
  0
LINE
  5
2e6
100
AcDbEntity
  8
text
 62
7
100
AcDbLine
 10
27.323405
 20
45.264114
 30
0.0
 11
27.233094
 21
45.173803
 31
0.0
  0
LINE
  5
2e7
100
AcDbEntity
  8
text
 62
7
100
AcDbLine
 10
27.233094
 20
45.173803
 30
0.0
 11
26.967804
 21
45.083492
 31
0.0
  0
LINE
  5
2e8
100
AcDbEntity
  8
text
 62
7
100
AcDbLine
 10
26.166291
 20
45.083492
 30
0.0
 11
26.967804
 21
45.083492
 31
0.0
  0
LINE
  5
2e9
100
AcDbEntity
  8
text
 62
7
100
AcDbLine
 10
26.967804
 20
45.083492
 30
0.0
 11
27.233094
 21
44.996002
 31
0.0
  0
LINE
  5
2ea
100
AcDbEntity
  8
text
 62
7
100
AcDbLine
 10
27.233094
 20
44.996002
 30
0.0
 11
27.323405
 21
44.908513
 31
0.0
  0
LINE
  5
2eb
100
AcDbEntity
  8
text
 62
7
100
AcDbLine
 10
27.323405
 20
44.908513
 30
0.0
 11
27.413716
 21
44.727891
 31
0.0
  0
LINE
  5
2ec
100
AcDbEntity
  8
text
 62
7
100
AcDbLine
 10
27.413716
 20
44.727891
 30
0.0
 11
27.413716
 21
44.462601
 31
0.0
  0
LINE
  5
2ed
100
AcDbEntity
  8
text
 62
7
100
AcDbLine
 10
27.413716
 20
44.462601
 30
0.0
 11
27.323405
 21
44.284800
 31
0.0
  0
LINE
  5
2ee
100
AcDbEntity
  8
text
 62
7
100
AcDbLine
 10
27.323405
 20
44.284800
 30
0.0
 11
27.233094
 21
44.195900
 31
0.0
  0
LINE
  5
2ef
100
AcDbEntity
  8
text
 62
7
100
AcDbLine
 10
27.233094
 20
44.195900
 30
0.0
 11
26.967804
 21
44.107000
 31
0.0
  0
LINE
  5
2f0
100
AcDbEntity
  8
text
 62
7
100
AcDbLine
 10
26.967804
 20
44.107000
 30
0.0
 11
26.166291
 21
44.107000
 31
0.0
  0
LINE
  5
2f1
100
AcDbEntity
  8
text
 62
7
100
AcDbLine
 10
3.773901
 20
119.125476
 30
0.0
 11
4.485103
 21
117.257160
 31
0.0
  0
LINE
  5
2f2
100
AcDbEntity
  8
text
 62
7
100
AcDbLine
 10
5.196305
 20
119.125476
 30
0.0
 11
4.485103
 21
117.257160
 31
0.0
  0
LINE
  5
2f3
100
AcDbEntity
  8
text
 62
7
100
AcDbLine
 10
6.886816
 20
118.679564
 30
0.0
 11
6.796505
 21
118.857364
 31
0.0
  0
LINE
  5
2f4
100
AcDbEntity
  8
text
 62
7
100
AcDbLine
 10
6.796505
 20
118.857364
 30
0.0
 11
6.618704
 21
119.035165
 31
0.0
  0
LINE
  5
2f5
100
AcDbEntity
  8
text
 62
7
100
AcDbLine
 10
6.618704
 20
119.035165
 30
0.0
 11
6.440904
 21
119.125476
 31
0.0
  0
LINE
  5
2f6
100
AcDbEntity
  8
text
 62
7
100
AcDbLine
 10
6.440904
 20
119.125476
 30
0.0
 11
6.085303
 21
119.125476
 31
0.0
  0
LINE
  5
2f7
100
AcDbEntity
  8
text
 62
7
100
AcDbLine
 10
6.085303
 20
119.125476
 30
0.0
 11
5.907502
 21
119.035165
 31
0.0
  0
LINE
  5
2f8
100
AcDbEntity
  8
text
 62
7
100
AcDbLine
 10
5.907502
 20
119.035165
 30
0.0
 11
5.729702
 21
118.857364
 31
0.0
  0
LINE
  5
2f9
100
AcDbEntity
  8
text
 62
7
100
AcDbLine
 10
5.729702
 20
118.857364
 30
0.0
 11
5.639391
 21
118.679564
 31
0.0
  0
LINE
  5
2fa
100
AcDbEntity
  8
text
 62
7
100
AcDbLine
 10
5.639391
 20
118.679564
 30
0.0
 11
5.551901
 21
118.414274
 31
0.0
  0
LINE
  5
2fb
100
AcDbEntity
  8
text
 62
7
100
AcDbLine
 10
5.551901
 20
118.414274
 30
0.0
 11
5.551901
 21
117.968362
 31
0.0
  0
LINE
  5
2fc
100
AcDbEntity
  8
text
 62
7
100
AcDbLine
 10
5.551901
 20
117.968362
 30
0.0
 11
5.639391
 21
117.703072
 31
0.0
  0
LINE
  5
2fd
100
AcDbEntity
  8
text
 62
7
100
AcDbLine
 10
5.639391
 20
117.703072
 30
0.0
 11
5.729702
 21
117.523861
 31
0.0
  0
LINE
  5
2fe
100
AcDbEntity
  8
text
 62
7
100
AcDbLine
 10
5.729702
 20
117.523861
 30
0.0
 11
5.907502
 21
117.346060
 31
0.0
  0
LINE
  5
2ff
100
AcDbEntity
  8
text
 62
7
100
AcDbLine
 10
5.907502
 20
117.346060
 30
0.0
 11
6.085303
 21
117.257160
 31
0.0
  0
LINE
  5
300
100
AcDbEntity
  8
text
 62
7
100
AcDbLine
 10
6.085303
 20
117.257160
 30
0.0
 11
6.440904
 21
117.257160
 31
0.0
  0
LINE
  5
301
100
AcDbEntity
  8
text
 62
7
100
AcDbLine
 10
6.440904
 20
117.257160
 30
0.0
 11
6.618704
 21
117.346060
 31
0.0
  0
LINE
  5
302
100
AcDbEntity
  8
text
 62
7
100
AcDbLine
 10
6.618704
 20
117.346060
 30
0.0
 11
6.796505
 21
117.523861
 31
0.0
  0
LINE
  5
303
100
AcDbEntity
  8
text
 62
7
100
AcDbLine
 10
6.796505
 20
117.523861
 30
0.0
 11
6.886816
 21
117.703072
 31
0.0
  0
LINE
  5
304
100
AcDbEntity
  8
text
 62
7
100
AcDbLine
 10
9.821936
 20
118.679564
 30
0.0
 11
9.731625
 21
118.857364
 31
0.0
  0
LINE
  5
305
100
AcDbEntity
  8
text
 62
7
100
AcDbLine
 10
9.731625
 20
118.857364
 30
0.0
 11
9.553824
 21
119.035165
 31
0.0
  0
LINE
  5
306
100
AcDbEntity
  8
text
 62
7
100
AcDbLine
 10
9.553824
 20
119.035165
 30
0.0
 11
9.376024
 21
119.125476
 31
0.0
  0
LINE
  5
307
100
AcDbEntity
  8
text
 62
7
100
AcDbLine
 10
9.376024
 20
119.125476
 30
0.0
 11
9.020423
 21
119.125476
 31
0.0
  0
LINE
  5
308
100
AcDbEntity
  8
text
 62
7
100
AcDbLine
 10
9.020423
 20
119.125476
 30
0.0
 11
8.842622
 21
119.035165
 31
0.0
  0
LINE
  5
309
100
AcDbEntity
  8
text
 62
7
100
AcDbLine
 10
8.842622
 20
119.035165
 30
0.0
 11
8.664822
 21
118.857364
 31
0.0
  0
LINE
  5
30a
100
AcDbEntity
  8
text
 62
7
100
AcDbLine
 10
8.664822
 20
118.857364
 30
0.0
 11
8.574511
 21
118.679564
 31
0.0
  0
LINE
  5
30b
100
AcDbEntity
  8
text
 62
7
100
AcDbLine
 10
8.574511
 20
118.679564
 30
0.0
 11
8.487021
 21
118.414274
 31
0.0
  0
LINE
  5
30c
100
AcDbEntity
  8
text
 62
7
100
AcDbLine
 10
8.487021
 20
118.414274
 30
0.0
 11
8.487021
 21
117.968362
 31
0.0
  0
LINE
  5
30d
100
AcDbEntity
  8
text
 62
7
100
AcDbLine
 10
8.487021
 20
117.968362
 30
0.0
 11
8.574511
 21
117.703072
 31
0.0
  0
LINE
  5
30e
100
AcDbEntity
  8
text
 62
7
100
AcDbLine
 10
8.574511
 20
117.703072
 30
0.0
 11
8.664822
 21
117.523861
 31
0.0
  0
LINE
  5
30f
100
AcDbEntity
  8
text
 62
7
100
AcDbLine
 10
8.664822
 20
117.523861
 30
0.0
 11
8.842622
 21
117.346060
 31
0.0
  0
LINE
  5
310
100
AcDbEntity
  8
text
 62
7
100
AcDbLine
 10
8.842622
 20
117.346060
 30
0.0
 11
9.020423
 21
117.257160
 31
0.0
  0
LINE
  5
311
100
AcDbEntity
  8
text
 62
7
100
AcDbLine
 10
9.020423
 20
117.257160
 30
0.0
 11
9.376024
 21
117.257160
 31
0.0
  0
LINE
  5
312
100
AcDbEntity
  8
text
 62
7
100
AcDbLine
 10
9.376024
 20
117.257160
 30
0.0
 11
9.553824
 21
117.346060
 31
0.0
  0
LINE
  5
313
100
AcDbEntity
  8
text
 62
7
100
AcDbLine
 10
9.553824
 20
117.346060
 30
0.0
 11
9.731625
 21
117.523861
 31
0.0
  0
LINE
  5
314
100
AcDbEntity
  8
text
 62
7
100
AcDbLine
 10
9.731625
 20
117.523861
 30
0.0
 11
9.821936
 21
117.703072
 31
0.0
  0
LINE
  5
315
100
AcDbEntity
  8
text
 62
7
100
AcDbLine
 10
10.888743
 20
119.125476
 30
0.0
 11
10.710942
 21
119.035165
 31
0.0
  0
LINE
  5
316
100
AcDbEntity
  8
text
 62
7
100
AcDbLine
 10
10.710942
 20
119.035165
 30
0.0
 11
10.533142
 21
118.857364
 31
0.0
  0
LINE
  5
317
100
AcDbEntity
  8
text
 62
7
100
AcDbLine
 10
10.533142
 20
118.857364
 30
0.0
 11
10.442831
 21
118.679564
 31
0.0
  0
LINE
  5
318
100
AcDbEntity
  8
text
 62
7
100
AcDbLine
 10
10.442831
 20
118.679564
 30
0.0
 11
10.355341
 21
118.414274
 31
0.0
  0
LINE
  5
319
100
AcDbEntity
  8
text
 62
7
100
AcDbLine
 10
10.355341
 20
118.414274
 30
0.0
 11
10.355341
 21
117.968362
 31
0.0
  0
LINE
  5
31a
100
AcDbEntity
  8
text
 62
7
100
AcDbLine
 10
10.355341
 20
117.968362
 30
0.0
 11
10.442831
 21
117.703072
 31
0.0
  0
LINE
  5
31b
100
AcDbEntity
  8
text
 62
7
100
AcDbLine
 10
10.442831
 20
117.703072
 30
0.0
 11
10.533142
 21
117.523861
 31
0.0
  0
LINE
  5
31c
100
AcDbEntity
  8
text
 62
7
100
AcDbLine
 10
10.533142
 20
117.523861
 30
0.0
 11
10.710942
 21
117.346060
 31
0.0
  0
LINE
  5
31d
100
AcDbEntity
  8
text
 62
7
100
AcDbLine
 10
10.710942
 20
117.346060
 30
0.0
 11
10.888743
 21
117.257160
 31
0.0
  0
LINE
  5
31e
100
AcDbEntity
  8
text
 62
7
100
AcDbLine
 10
10.888743
 20
117.257160
 30
0.0
 11
11.244344
 21
117.257160
 31
0.0
  0
LINE
  5
31f
100
AcDbEntity
  8
text
 62
7
100
AcDbLine
 10
11.244344
 20
117.257160
 30
0.0
 11
11.422144
 21
117.346060
 31
0.0
  0
LINE
  5
320
100
AcDbEntity
  8
text
 62
7
100
AcDbLine
 10
11.422144
 20
117.346060
 30
0.0
 11
11.599945
 21
117.523861
 31
0.0
  0
LINE
  5
321
100
AcDbEntity
  8
text
 62
7
100
AcDbLine
 10
11.599945
 20
117.523861
 30
0.0
 11
11.690256
 21
117.703072
 31
0.0
  0
LINE
  5
322
100
AcDbEntity
  8
text
 62
7
100
AcDbLine
 10
11.690256
 20
117.703072
 30
0.0
 11
11.777745
 21
117.968362
 31
0.0
  0
LINE
  5
323
100
AcDbEntity
  8
text
 62
7
100
AcDbLine
 10
11.777745
 20
117.968362
 30
0.0
 11
11.777745
 21
118.414274
 31
0.0
  0
LINE
  5
324
100
AcDbEntity
  8
text
 62
7
100
AcDbLine
 10
11.777745
 20
118.414274
 30
0.0
 11
11.690256
 21
118.679564
 31
0.0
  0
LINE
  5
325
100
AcDbEntity
  8
text
 62
7
100
AcDbLine
 10
11.690256
 20
118.679564
 30
0.0
 11
11.599945
 21
118.857364
 31
0.0
  0
LINE
  5
326
100
AcDbEntity
  8
text
 62
7
100
AcDbLine
 10
11.599945
 20
118.857364
 30
0.0
 11
11.422144
 21
119.035165
 31
0.0
  0
LINE
  5
327
100
AcDbEntity
  8
text
 62
7
100
AcDbLine
 10
11.422144
 20
119.035165
 30
0.0
 11
11.244344
 21
119.125476
 31
0.0
  0
LINE
  5
328
100
AcDbEntity
  8
text
 62
7
100
AcDbLine
 10
11.244344
 20
119.125476
 30
0.0
 11
10.888743
 21
119.125476
 31
0.0
  0
LINE
  5
329
100
AcDbEntity
  8
text
 62
7
100
AcDbLine
 10
12.398641
 20
119.125476
 30
0.0
 11
12.398641
 21
117.257160
 31
0.0
  0
LINE
  5
32a
100
AcDbEntity
  8
text
 62
7
100
AcDbLine
 10
12.398641
 20
119.125476
 30
0.0
 11
13.109843
 21
117.257160
 31
0.0
  0
LINE
  5
32b
100
AcDbEntity
  8
text
 62
7
100
AcDbLine
 10
13.821045
 20
119.125476
 30
0.0
 11
13.109843
 21
117.257160
 31
0.0
  0
LINE
  5
32c
100
AcDbEntity
  8
text
 62
7
100
AcDbLine
 10
13.821045
 20
119.125476
 30
0.0
 11
13.821045
 21
117.257160
 31
0.0
  0
LINE
  5
32d
100
AcDbEntity
  8
text
 62
7
100
AcDbLine
 10
14.532291
 20
119.125476
 30
0.0
 11
14.532291
 21
117.257160
 31
0.0
  0
LINE
  5
32e
100
AcDbEntity
  8
text
 62
7
100
AcDbLine
 10
14.532291
 20
119.125476
 30
0.0
 11
15.333804
 21
119.125476
 31
0.0
  0
LINE
  5
32f
100
AcDbEntity
  8
text
 62
7
100
AcDbLine
 10
15.333804
 20
119.125476
 30
0.0
 11
15.599094
 21
119.035165
 31
0.0
  0
LINE
  5
330
100
AcDbEntity
  8
text
 62
7
100
AcDbLine
 10
15.599094
 20
119.035165
 30
0.0
 11
15.689405
 21
118.944854
 31
0.0
  0
LINE
  5
331
100
AcDbEntity
  8
text
 62
7
100
AcDbLine
 10
15.689405
 20
118.944854
 30
0.0
 11
15.779716
 21
118.769875
 31
0.0
  0
LINE
  5
332
100
AcDbEntity
  8
text
 62
7
100
AcDbLine
 10
15.779716
 20
118.769875
 30
0.0
 11
15.779716
 21
118.501763
 31
0.0
  0
LINE
  5
333
100
AcDbEntity
  8
text
 62
7
100
AcDbLine
 10
15.779716
 20
118.501763
 30
0.0
 11
15.689405
 21
118.323963
 31
0.0
  0
LINE
  5
334
100
AcDbEntity
  8
text
 62
7
100
AcDbLine
 10
15.689405
 20
118.323963
 30
0.0
 11
15.599094
 21
118.233652
 31
0.0
  0
LINE
  5
335
100
AcDbEntity
  8
text
 62
7
100
AcDbLine
 10
15.599094
 20
118.233652
 30
0.0
 11
15.333804
 21
118.146162
 31
0.0
  0
LINE
  5
336
100
AcDbEntity
  8
text
 62
7
100
AcDbLine
 10
15.333804
 20
118.146162
 30
0.0
 11
14.532291
 21
118.146162
 31
0.0
  0
LINE
  5
337
100
AcDbEntity
  8
text
 62
7
100
AcDbLine
 10
16.846503
 20
119.125476
 30
0.0
 11
16.135301
 21
117.257160
 31
0.0
  0
LINE
  5
338
100
AcDbEntity
  8
text
 62
7
100
AcDbLine
 10
16.846503
 20
119.125476
 30
0.0
 11
17.557705
 21
117.257160
 31
0.0
  0
LINE
  5
339
100
AcDbEntity
  8
text
 62
7
100
AcDbLine
 10
16.400591
 20
117.878051
 30
0.0
 11
17.292415
 21
117.878051
 31
0.0
  0
LINE
  5
33a
100
AcDbEntity
  8
text
 62
7
100
AcDbLine
 10
18.000791
 20
119.125476
 30
0.0
 11
18.000791
 21
117.257160
 31
0.0
  0
LINE
  5
33b
100
AcDbEntity
  8
text
 62
7
100
AcDbLine
 10
18.000791
 20
119.125476
 30
0.0
 11
18.802304
 21
119.125476
 31
0.0
  0
LINE
  5
33c
100
AcDbEntity
  8
text
 62
7
100
AcDbLine
 10
18.802304
 20
119.125476
 30
0.0
 11
19.067594
 21
119.035165
 31
0.0
  0
LINE
  5
33d
100
AcDbEntity
  8
text
 62
7
100
AcDbLine
 10
19.067594
 20
119.035165
 30
0.0
 11
19.157905
 21
118.944854
 31
0.0
  0
LINE
  5
33e
100
AcDbEntity
  8
text
 62
7
100
AcDbLine
 10
19.157905
 20
118.944854
 30
0.0
 11
19.248216
 21
118.769875
 31
0.0
  0
LINE
  5
33f
100
AcDbEntity
  8
text
 62
7
100
AcDbLine
 10
19.248216
 20
118.769875
 30
0.0
 11
19.248216
 21
118.589253
 31
0.0
  0
LINE
  5
340
100
AcDbEntity
  8
text
 62
7
100
AcDbLine
 10
19.248216
 20
118.589253
 30
0.0
 11
19.157905
 21
118.414274
 31
0.0
  0
LINE
  5
341
100
AcDbEntity
  8
text
 62
7
100
AcDbLine
 10
19.157905
 20
118.414274
 30
0.0
 11
19.067594
 21
118.323963
 31
0.0
  0
LINE
  5
342
100
AcDbEntity
  8
text
 62
7
100
AcDbLine
 10
19.067594
 20
118.323963
 30
0.0
 11
18.802304
 21
118.233652
 31
0.0
  0
LINE
  5
343
100
AcDbEntity
  8
text
 62
7
100
AcDbLine
 10
18.802304
 20
118.233652
 30
0.0
 11
18.000791
 21
118.233652
 31
0.0
  0
LINE
  5
344
100
AcDbEntity
  8
text
 62
7
100
AcDbLine
 10
18.624503
 20
118.233652
 30
0.0
 11
19.248216
 21
117.257160
 31
0.0
  0
LINE
  5
345
100
AcDbEntity
  8
text
 62
7
100
AcDbLine
 10
20.315003
 20
119.125476
 30
0.0
 11
19.603801
 21
117.257160
 31
0.0
  0
LINE
  5
346
100
AcDbEntity
  8
text
 62
7
100
AcDbLine
 10
20.315003
 20
119.125476
 30
0.0
 11
21.026205
 21
117.257160
 31
0.0
  0
LINE
  5
347
100
AcDbEntity
  8
text
 62
7
100
AcDbLine
 10
19.869091
 20
117.878051
 30
0.0
 11
20.760915
 21
117.878051
 31
0.0
  0
LINE
  5
348
100
AcDbEntity
  8
text
 62
7
100
AcDbLine
 10
21.824892
 20
119.125476
 30
0.0
 11
21.824892
 21
117.257160
 31
0.0
  0
LINE
  5
349
100
AcDbEntity
  8
text
 62
7
100
AcDbLine
 10
21.204001
 20
119.125476
 30
0.0
 11
22.448604
 21
119.125476
 31
0.0
  0
LINE
  5
34a
100
AcDbEntity
  8
text
 62
7
100
AcDbLine
 10
23.337603
 20
119.125476
 30
0.0
 11
23.159802
 21
119.035165
 31
0.0
  0
LINE
  5
34b
100
AcDbEntity
  8
text
 62
7
100
AcDbLine
 10
23.159802
 20
119.035165
 30
0.0
 11
22.982002
 21
118.857364
 31
0.0
  0
LINE
  5
34c
100
AcDbEntity
  8
text
 62
7
100
AcDbLine
 10
22.982002
 20
118.857364
 30
0.0
 11
22.891691
 21
118.679564
 31
0.0
  0
LINE
  5
34d
100
AcDbEntity
  8
text
 62
7
100
AcDbLine
 10
22.891691
 20
118.679564
 30
0.0
 11
22.804201
 21
118.414274
 31
0.0
  0
LINE
  5
34e
100
AcDbEntity
  8
text
 62
7
100
AcDbLine
 10
22.804201
 20
118.414274
 30
0.0
 11
22.804201
 21
117.968362
 31
0.0
  0
LINE
  5
34f
100
AcDbEntity
  8
text
 62
7
100
AcDbLine
 10
22.804201
 20
117.968362
 30
0.0
 11
22.891691
 21
117.703072
 31
0.0
  0
LINE
  5
350
100
AcDbEntity
  8
text
 62
7
100
AcDbLine
 10
22.891691
 20
117.703072
 30
0.0
 11
22.982002
 21
117.523861
 31
0.0
  0
LINE
  5
351
100
AcDbEntity
  8
text
 62
7
100
AcDbLine
 10
22.982002
 20
117.523861
 30
0.0
 11
23.159802
 21
117.346060
 31
0.0
  0
LINE
  5
352
100
AcDbEntity
  8
text
 62
7
100
AcDbLine
 10
23.159802
 20
117.346060
 30
0.0
 11
23.337603
 21
117.257160
 31
0.0
  0
LINE
  5
353
100
AcDbEntity
  8
text
 62
7
100
AcDbLine
 10
23.337603
 20
117.257160
 30
0.0
 11
23.693204
 21
117.257160
 31
0.0
  0
LINE
  5
354
100
AcDbEntity
  8
text
 62
7
100
AcDbLine
 10
23.693204
 20
117.257160
 30
0.0
 11
23.871004
 21
117.346060
 31
0.0
  0
LINE
  5
355
100
AcDbEntity
  8
text
 62
7
100
AcDbLine
 10
23.871004
 20
117.346060
 30
0.0
 11
24.048805
 21
117.523861
 31
0.0
  0
LINE
  5
356
100
AcDbEntity
  8
text
 62
7
100
AcDbLine
 10
24.048805
 20
117.523861
 30
0.0
 11
24.139116
 21
117.703072
 31
0.0
  0
LINE
  5
357
100
AcDbEntity
  8
text
 62
7
100
AcDbLine
 10
24.139116
 20
117.703072
 30
0.0
 11
24.226605
 21
117.968362
 31
0.0
  0
LINE
  5
358
100
AcDbEntity
  8
text
 62
7
100
AcDbLine
 10
24.226605
 20
117.968362
 30
0.0
 11
24.226605
 21
118.414274
 31
0.0
  0
LINE
  5
359
100
AcDbEntity
  8
text
 62
7
100
AcDbLine
 10
24.226605
 20
118.414274
 30
0.0
 11
24.139116
 21
118.679564
 31
0.0
  0
LINE
  5
35a
100
AcDbEntity
  8
text
 62
7
100
AcDbLine
 10
24.139116
 20
118.679564
 30
0.0
 11
24.048805
 21
118.857364
 31
0.0
  0
LINE
  5
35b
100
AcDbEntity
  8
text
 62
7
100
AcDbLine
 10
24.048805
 20
118.857364
 30
0.0
 11
23.871004
 21
119.035165
 31
0.0
  0
LINE
  5
35c
100
AcDbEntity
  8
text
 62
7
100
AcDbLine
 10
23.871004
 20
119.035165
 30
0.0
 11
23.693204
 21
119.125476
 31
0.0
  0
LINE
  5
35d
100
AcDbEntity
  8
text
 62
7
100
AcDbLine
 10
23.693204
 20
119.125476
 30
0.0
 11
23.337603
 21
119.125476
 31
0.0
  0
LINE
  5
35e
100
AcDbEntity
  8
text
 62
7
100
AcDbLine
 10
24.847491
 20
119.125476
 30
0.0
 11
24.847491
 21
117.257160
 31
0.0
  0
LINE
  5
35f
100
AcDbEntity
  8
text
 62
7
100
AcDbLine
 10
24.847491
 20
119.125476
 30
0.0
 11
25.649004
 21
119.125476
 31
0.0
  0
LINE
  5
360
100
AcDbEntity
  8
text
 62
7
100
AcDbLine
 10
25.649004
 20
119.125476
 30
0.0
 11
25.914294
 21
119.035165
 31
0.0
  0
LINE
  5
361
100
AcDbEntity
  8
text
 62
7
100
AcDbLine
 10
25.914294
 20
119.035165
 30
0.0
 11
26.004605
 21
118.944854
 31
0.0
  0
LINE
  5
362
100
AcDbEntity
  8
text
 62
7
100
AcDbLine
 10
26.004605
 20
118.944854
 30
0.0
 11
26.094916
 21
118.769875
 31
0.0
  0
LINE
  5
363
100
AcDbEntity
  8
text
 62
7
100
AcDbLine
 10
26.094916
 20
118.769875
 30
0.0
 11
26.094916
 21
118.589253
 31
0.0
  0
LINE
  5
364
100
AcDbEntity
  8
text
 62
7
100
AcDbLine
 10
26.094916
 20
118.589253
 30
0.0
 11
26.004605
 21
118.414274
 31
0.0
  0
LINE
  5
365
100
AcDbEntity
  8
text
 62
7
100
AcDbLine
 10
26.004605
 20
118.414274
 30
0.0
 11
25.914294
 21
118.323963
 31
0.0
  0
LINE
  5
366
100
AcDbEntity
  8
text
 62
7
100
AcDbLine
 10
25.914294
 20
118.323963
 30
0.0
 11
25.649004
 21
118.233652
 31
0.0
  0
LINE
  5
367
100
AcDbEntity
  8
text
 62
7
100
AcDbLine
 10
25.649004
 20
118.233652
 30
0.0
 11
24.847491
 21
118.233652
 31
0.0
  0
LINE
  5
368
100
AcDbEntity
  8
text
 62
7
100
AcDbLine
 10
25.471203
 20
118.233652
 30
0.0
 11
26.094916
 21
117.257160
 31
0.0
  0
LINE
  5
369
100
AcDbEntity
  8
text
 62
7
100
AcDbLine
 10
2.401990
 20
17.008585
 30
0.0
 11
2.401990
 21
17.968707
 31
0.0
  0
LINE
  5
36a
100
AcDbEntity
  8
text
 62
7
100
AcDbLine
 10
1.120981
 20
17.489069
 30
0.0
 11
2.081949
 21
17.489069
 31
0.0
  0
LINE
  5
36b
100
AcDbEntity
  8
text
 62
7
100
AcDbLine
 10
1.601465
 20
17.008585
 30
0.0
 11
1.601465
 21
17.968707
 31
0.0
  0
LINE
  5
36c
100
AcDbEntity
  8
text
 62
7
100
AcDbLine
 10
1.347465
 20
18.191804
 30
0.0
 11
1.281848
 21
18.323038
 31
0.0
  0
LINE
  5
36d
100
AcDbEntity
  8
text
 62
7
100
AcDbLine
 10
1.281848
 20
18.323038
 30
0.0
 11
1.080764
 21
18.524121
 31
0.0
  0
LINE
  5
36e
100
AcDbEntity
  8
text
 62
7
100
AcDbLine
 10
1.080764
 20
18.524121
 30
0.0
 11
2.482000
 21
18.524121
 31
0.0
  0
LINE
  5
36f
100
AcDbEntity
  8
text
 62
7
100
AcDbLine
 10
1.080764
 20
19.724271
 30
0.0
 11
1.148498
 21
19.525304
 31
0.0
  0
LINE
  5
370
100
AcDbEntity
  8
text
 62
7
100
AcDbLine
 10
1.148498
 20
19.525304
 30
0.0
 11
1.347465
 21
19.389837
 31
0.0
  0
LINE
  5
371
100
AcDbEntity
  8
text
 62
7
100
AcDbLine
 10
1.347465
 20
19.389837
 30
0.0
 11
1.681899
 21
19.324221
 31
0.0
  0
LINE
  5
372
100
AcDbEntity
  8
text
 62
7
100
AcDbLine
 10
1.681899
 20
19.324221
 30
0.0
 11
1.880866
 21
19.324221
 31
0.0
  0
LINE
  5
373
100
AcDbEntity
  8
text
 62
7
100
AcDbLine
 10
1.880866
 20
19.324221
 30
0.0
 11
2.215300
 21
19.389837
 31
0.0
  0
LINE
  5
374
100
AcDbEntity
  8
text
 62
7
100
AcDbLine
 10
2.215300
 20
19.389837
 30
0.0
 11
2.415325
 21
19.525304
 31
0.0
  0
LINE
  5
375
100
AcDbEntity
  8
text
 62
7
100
AcDbLine
 10
2.415325
 20
19.525304
 30
0.0
 11
2.482000
 21
19.724271
 31
0.0
  0
LINE
  5
376
100
AcDbEntity
  8
text
 62
7
100
AcDbLine
 10
2.482000
 20
19.724271
 30
0.0
 11
2.482000
 21
19.857621
 31
0.0
  0
LINE
  5
377
100
AcDbEntity
  8
text
 62
7
100
AcDbLine
 10
2.482000
 20
19.857621
 30
0.0
 11
2.415325
 21
20.058705
 31
0.0
  0
LINE
  5
378
100
AcDbEntity
  8
text
 62
7
100
AcDbLine
 10
2.415325
 20
20.058705
 30
0.0
 11
2.215300
 21
20.189939
 31
0.0
  0
LINE
  5
379
100
AcDbEntity
  8
text
 62
7
100
AcDbLine
 10
2.215300
 20
20.189939
 30
0.0
 11
1.880866
 21
20.257672
 31
0.0
  0
LINE
  5
37a
100
AcDbEntity
  8
text
 62
7
100
AcDbLine
 10
1.880866
 20
20.257672
 30
0.0
 11
1.681899
 21
20.257672
 31
0.0
  0
LINE
  5
37b
100
AcDbEntity
  8
text
 62
7
100
AcDbLine
 10
1.681899
 20
20.257672
 30
0.0
 11
1.347465
 21
20.189939
 31
0.0
  0
LINE
  5
37c
100
AcDbEntity
  8
text
 62
7
100
AcDbLine
 10
1.347465
 20
20.189939
 30
0.0
 11
1.148498
 21
20.058705
 31
0.0
  0
LINE
  5
37d
100
AcDbEntity
  8
text
 62
7
100
AcDbLine
 10
1.148498
 20
20.058705
 30
0.0
 11
1.080764
 21
19.857621
 31
0.0
  0
LINE
  5
37e
100
AcDbEntity
  8
text
 62
7
100
AcDbLine
 10
1.080764
 20
19.857621
 30
0.0
 11
1.080764
 21
19.724271
 31
0.0
  0
LINE
  5
37f
100
AcDbEntity
  8
text
 62
7
100
AcDbLine
 10
1.080764
 20
20.524370
 30
0.0
 11
2.482000
 21
21.057771
 31
0.0
  0
LINE
  5
380
100
AcDbEntity
  8
text
 62
7
100
AcDbLine
 10
1.080764
 20
21.591172
 30
0.0
 11
2.482000
 21
21.057771
 31
0.0
  0
LINE
  5
381
100
AcDbEntity
  8
text
 62
7
100
AcDbLine
 10
28.098765
 20
16.630868
 30
0.0
 11
28.166497
 21
16.431901
 31
0.0
  0
LINE
  5
382
100
AcDbEntity
  8
text
 62
7
100
AcDbLine
 10
28.166497
 20
16.431901
 30
0.0
 11
28.365465
 21
16.296434
 31
0.0
  0
LINE
  5
383
100
AcDbEntity
  8
text
 62
7
100
AcDbLine
 10
28.365465
 20
16.296434
 30
0.0
 11
28.699898
 21
16.230817
 31
0.0
  0
LINE
  5
384
100
AcDbEntity
  8
text
 62
7
100
AcDbLine
 10
28.699898
 20
16.230817
 30
0.0
 11
28.898865
 21
16.230817
 31
0.0
  0
LINE
  5
385
100
AcDbEntity
  8
text
 62
7
100
AcDbLine
 10
28.898865
 20
16.230817
 30
0.0
 11
29.233300
 21
16.296434
 31
0.0
  0
LINE
  5
386
100
AcDbEntity
  8
text
 62
7
100
AcDbLine
 10
29.233300
 20
16.296434
 30
0.0
 11
29.433325
 21
16.431901
 31
0.0
  0
LINE
  5
387
100
AcDbEntity
  8
text
 62
7
100
AcDbLine
 10
29.433325
 20
16.431901
 30
0.0
 11
29.500000
 21
16.630868
 31
0.0
  0
LINE
  5
388
100
AcDbEntity
  8
text
 62
7
100
AcDbLine
 10
29.500000
 20
16.630868
 30
0.0
 11
29.500000
 21
16.764218
 31
0.0
  0
LINE
  5
389
100
AcDbEntity
  8
text
 62
7
100
AcDbLine
 10
29.500000
 20
16.764218
 30
0.0
 11
29.433325
 21
16.965302
 31
0.0
  0
LINE
  5
38a
100
AcDbEntity
  8
text
 62
7
100
AcDbLine
 10
29.433325
 20
16.965302
 30
0.0
 11
29.233300
 21
17.096535
 31
0.0
  0
LINE
  5
38b
100
AcDbEntity
  8
text
 62
7
100
AcDbLine
 10
29.233300
 20
17.096535
 30
0.0
 11
28.898866
 21
17.164269
 31
0.0
  0
LINE
  5
38c
100
AcDbEntity
  8
text
 62
7
100
AcDbLine
 10
28.898866
 20
17.164269
 30
0.0
 11
28.699899
 21
17.164269
 31
0.0
  0
LINE
  5
38d
100
AcDbEntity
  8
text
 62
7
100
AcDbLine
 10
28.699899
 20
17.164269
 30
0.0
 11
28.365465
 21
17.096535
 31
0.0
  0
LINE
  5
38e
100
AcDbEntity
  8
text
 62
7
100
AcDbLine
 10
28.365465
 20
17.096535
 30
0.0
 11
28.166498
 21
16.965302
 31
0.0
  0
LINE
  5
38f
100
AcDbEntity
  8
text
 62
7
100
AcDbLine
 10
28.166498
 20
16.965302
 30
0.0
 11
28.098765
 21
16.764218
 31
0.0
  0
LINE
  5
390
100
AcDbEntity
  8
text
 62
7
100
AcDbLine
 10
28.098765
 20
16.764218
 30
0.0
 11
28.098765
 21
16.630868
 31
0.0
  0
LINE
  5
391
100
AcDbEntity
  8
text
 62
7
100
AcDbLine
 10
28.849382
 20
17.604373
 30
0.0
 11
28.849382
 21
18.563810
 31
0.0
  0
LINE
  5
392
100
AcDbEntity
  8
text
 62
7
100
AcDbLine
 10
28.365465
 20
18.969784
 30
0.0
 11
28.299848
 21
19.101018
 31
0.0
  0
LINE
  5
393
100
AcDbEntity
  8
text
 62
7
100
AcDbLine
 10
28.299848
 20
19.101018
 30
0.0
 11
28.098764
 21
19.302101
 31
0.0
  0
LINE
  5
394
100
AcDbEntity
  8
text
 62
7
100
AcDbLine
 10
28.098764
 20
19.302101
 30
0.0
 11
29.500000
 21
19.302101
 31
0.0
  0
LINE
  5
395
100
AcDbEntity
  8
text
 62
7
100
AcDbLine
 10
28.098764
 20
20.502251
 30
0.0
 11
28.166498
 21
20.303284
 31
0.0
  0
LINE
  5
396
100
AcDbEntity
  8
text
 62
7
100
AcDbLine
 10
28.166498
 20
20.303284
 30
0.0
 11
28.365465
 21
20.167817
 31
0.0
  0
LINE
  5
397
100
AcDbEntity
  8
text
 62
7
100
AcDbLine
 10
28.365465
 20
20.167817
 30
0.0
 11
28.699899
 21
20.102201
 31
0.0
  0
LINE
  5
398
100
AcDbEntity
  8
text
 62
7
100
AcDbLine
 10
28.699899
 20
20.102201
 30
0.0
 11
28.898866
 21
20.102201
 31
0.0
  0
LINE
  5
399
100
AcDbEntity
  8
text
 62
7
100
AcDbLine
 10
28.898866
 20
20.102201
 30
0.0
 11
29.233300
 21
20.167817
 31
0.0
  0
LINE
  5
39a
100
AcDbEntity
  8
text
 62
7
100
AcDbLine
 10
29.233300
 20
20.167817
 30
0.0
 11
29.433325
 21
20.303284
 31
0.0
  0
LINE
  5
39b
100
AcDbEntity
  8
text
 62
7
100
AcDbLine
 10
29.433325
 20
20.303284
 30
0.0
 11
29.500000
 21
20.502251
 31
0.0
  0
LINE
  5
39c
100
AcDbEntity
  8
text
 62
7
100
AcDbLine
 10
29.500000
 20
20.502251
 30
0.0
 11
29.500000
 21
20.635601
 31
0.0
  0
LINE
  5
39d
100
AcDbEntity
  8
text
 62
7
100
AcDbLine
 10
29.500000
 20
20.635601
 30
0.0
 11
29.433325
 21
20.836685
 31
0.0
  0
LINE
  5
39e
100
AcDbEntity
  8
text
 62
7
100
AcDbLine
 10
29.433325
 20
20.836685
 30
0.0
 11
29.233300
 21
20.967919
 31
0.0
  0
LINE
  5
39f
100
AcDbEntity
  8
text
 62
7
100
AcDbLine
 10
29.233300
 20
20.967919
 30
0.0
 11
28.898866
 21
21.035652
 31
0.0
  0
LINE
  5
3a0
100
AcDbEntity
  8
text
 62
7
100
AcDbLine
 10
28.898866
 20
21.035652
 30
0.0
 11
28.699899
 21
21.035652
 31
0.0
  0
LINE
  5
3a1
100
AcDbEntity
  8
text
 62
7
100
AcDbLine
 10
28.699899
 20
21.035652
 30
0.0
 11
28.365465
 21
20.967919
 31
0.0
  0
LINE
  5
3a2
100
AcDbEntity
  8
text
 62
7
100
AcDbLine
 10
28.365465
 20
20.967919
 30
0.0
 11
28.166498
 21
20.836685
 31
0.0
  0
LINE
  5
3a3
100
AcDbEntity
  8
text
 62
7
100
AcDbLine
 10
28.166498
 20
20.836685
 30
0.0
 11
28.098764
 21
20.635601
 31
0.0
  0
LINE
  5
3a4
100
AcDbEntity
  8
text
 62
7
100
AcDbLine
 10
28.098764
 20
20.635601
 30
0.0
 11
28.098764
 21
20.502251
 31
0.0
  0
LINE
  5
3a5
100
AcDbEntity
  8
text
 62
7
100
AcDbLine
 10
28.098764
 20
21.302350
 30
0.0
 11
29.500000
 21
21.835751
 31
0.0
  0
LINE
  5
3a6
100
AcDbEntity
  8
text
 62
7
100
AcDbLine
 10
28.098764
 20
22.369152
 30
0.0
 11
29.500000
 21
21.835751
 31
0.0
  0
LINE
  5
3a7
100
AcDbEntity
  8
text
 62
7
100
AcDbLine
 10
28.098765
 20
29.630868
 30
0.0
 11
28.166497
 21
29.431901
 31
0.0
  0
LINE
  5
3a8
100
AcDbEntity
  8
text
 62
7
100
AcDbLine
 10
28.166497
 20
29.431901
 30
0.0
 11
28.365465
 21
29.296434
 31
0.0
  0
LINE
  5
3a9
100
AcDbEntity
  8
text
 62
7
100
AcDbLine
 10
28.365465
 20
29.296434
 30
0.0
 11
28.699898
 21
29.230817
 31
0.0
  0
LINE
  5
3aa
100
AcDbEntity
  8
text
 62
7
100
AcDbLine
 10
28.699898
 20
29.230817
 30
0.0
 11
28.898865
 21
29.230817
 31
0.0
  0
LINE
  5
3ab
100
AcDbEntity
  8
text
 62
7
100
AcDbLine
 10
28.898865
 20
29.230817
 30
0.0
 11
29.233300
 21
29.296434
 31
0.0
  0
LINE
  5
3ac
100
AcDbEntity
  8
text
 62
7
100
AcDbLine
 10
29.233300
 20
29.296434
 30
0.0
 11
29.433325
 21
29.431901
 31
0.0
  0
LINE
  5
3ad
100
AcDbEntity
  8
text
 62
7
100
AcDbLine
 10
29.433325
 20
29.431901
 30
0.0
 11
29.500000
 21
29.630868
 31
0.0
  0
LINE
  5
3ae
100
AcDbEntity
  8
text
 62
7
100
AcDbLine
 10
29.500000
 20
29.630868
 30
0.0
 11
29.500000
 21
29.764218
 31
0.0
  0
LINE
  5
3af
100
AcDbEntity
  8
text
 62
7
100
AcDbLine
 10
29.500000
 20
29.764218
 30
0.0
 11
29.433325
 21
29.965302
 31
0.0
  0
LINE
  5
3b0
100
AcDbEntity
  8
text
 62
7
100
AcDbLine
 10
29.433325
 20
29.965302
 30
0.0
 11
29.233300
 21
30.096535
 31
0.0
  0
LINE
  5
3b1
100
AcDbEntity
  8
text
 62
7
100
AcDbLine
 10
29.233300
 20
30.096535
 30
0.0
 11
28.898866
 21
30.164269
 31
0.0
  0
LINE
  5
3b2
100
AcDbEntity
  8
text
 62
7
100
AcDbLine
 10
28.898866
 20
30.164269
 30
0.0
 11
28.699899
 21
30.164269
 31
0.0
  0
LINE
  5
3b3
100
AcDbEntity
  8
text
 62
7
100
AcDbLine
 10
28.699899
 20
30.164269
 30
0.0
 11
28.365465
 21
30.096535
 31
0.0
  0
LINE
  5
3b4
100
AcDbEntity
  8
text
 62
7
100
AcDbLine
 10
28.365465
 20
30.096535
 30
0.0
 11
28.166498
 21
29.965302
 31
0.0
  0
LINE
  5
3b5
100
AcDbEntity
  8
text
 62
7
100
AcDbLine
 10
28.166498
 20
29.965302
 30
0.0
 11
28.098765
 21
29.764218
 31
0.0
  0
LINE
  5
3b6
100
AcDbEntity
  8
text
 62
7
100
AcDbLine
 10
28.098765
 20
29.764218
 30
0.0
 11
28.098765
 21
29.630868
 31
0.0
  0
LINE
  5
3b7
100
AcDbEntity
  8
text
 62
7
100
AcDbLine
 10
28.849382
 20
30.604373
 30
0.0
 11
28.849382
 21
31.563810
 31
0.0
  0
LINE
  5
3b8
100
AcDbEntity
  8
text
 62
7
100
AcDbLine
 10
28.365465
 20
31.969784
 30
0.0
 11
28.299848
 21
32.101018
 31
0.0
  0
LINE
  5
3b9
100
AcDbEntity
  8
text
 62
7
100
AcDbLine
 10
28.299848
 20
32.101018
 30
0.0
 11
28.098764
 21
32.302101
 31
0.0
  0
LINE
  5
3ba
100
AcDbEntity
  8
text
 62
7
100
AcDbLine
 10
28.098764
 20
32.302101
 30
0.0
 11
29.500000
 21
32.302101
 31
0.0
  0
LINE
  5
3bb
100
AcDbEntity
  8
text
 62
7
100
AcDbLine
 10
28.098764
 20
33.502251
 30
0.0
 11
28.166498
 21
33.303284
 31
0.0
  0
LINE
  5
3bc
100
AcDbEntity
  8
text
 62
7
100
AcDbLine
 10
28.166498
 20
33.303284
 30
0.0
 11
28.365465
 21
33.167817
 31
0.0
  0
LINE
  5
3bd
100
AcDbEntity
  8
text
 62
7
100
AcDbLine
 10
28.365465
 20
33.167817
 30
0.0
 11
28.699899
 21
33.102201
 31
0.0
  0
LINE
  5
3be
100
AcDbEntity
  8
text
 62
7
100
AcDbLine
 10
28.699899
 20
33.102201
 30
0.0
 11
28.898866
 21
33.102201
 31
0.0
  0
LINE
  5
3bf
100
AcDbEntity
  8
text
 62
7
100
AcDbLine
 10
28.898866
 20
33.102201
 30
0.0
 11
29.233300
 21
33.167817
 31
0.0
  0
LINE
  5
3c0
100
AcDbEntity
  8
text
 62
7
100
AcDbLine
 10
29.233300
 20
33.167817
 30
0.0
 11
29.433325
 21
33.303284
 31
0.0
  0
LINE
  5
3c1
100
AcDbEntity
  8
text
 62
7
100
AcDbLine
 10
29.433325
 20
33.303284
 30
0.0
 11
29.500000
 21
33.502251
 31
0.0
  0
LINE
  5
3c2
100
AcDbEntity
  8
text
 62
7
100
AcDbLine
 10
29.500000
 20
33.502251
 30
0.0
 11
29.500000
 21
33.635601
 31
0.0
  0
LINE
  5
3c3
100
AcDbEntity
  8
text
 62
7
100
AcDbLine
 10
29.500000
 20
33.635601
 30
0.0
 11
29.433325
 21
33.836685
 31
0.0
  0
LINE
  5
3c4
100
AcDbEntity
  8
text
 62
7
100
AcDbLine
 10
29.433325
 20
33.836685
 30
0.0
 11
29.233300
 21
33.967919
 31
0.0
  0
LINE
  5
3c5
100
AcDbEntity
  8
text
 62
7
100
AcDbLine
 10
29.233300
 20
33.967919
 30
0.0
 11
28.898866
 21
34.035652
 31
0.0
  0
LINE
  5
3c6
100
AcDbEntity
  8
text
 62
7
100
AcDbLine
 10
28.898866
 20
34.035652
 30
0.0
 11
28.699899
 21
34.035652
 31
0.0
  0
LINE
  5
3c7
100
AcDbEntity
  8
text
 62
7
100
AcDbLine
 10
28.699899
 20
34.035652
 30
0.0
 11
28.365465
 21
33.967919
 31
0.0
  0
LINE
  5
3c8
100
AcDbEntity
  8
text
 62
7
100
AcDbLine
 10
28.365465
 20
33.967919
 30
0.0
 11
28.166498
 21
33.836685
 31
0.0
  0
LINE
  5
3c9
100
AcDbEntity
  8
text
 62
7
100
AcDbLine
 10
28.166498
 20
33.836685
 30
0.0
 11
28.098764
 21
33.635601
 31
0.0
  0
LINE
  5
3ca
100
AcDbEntity
  8
text
 62
7
100
AcDbLine
 10
28.098764
 20
33.635601
 30
0.0
 11
28.098764
 21
33.502251
 31
0.0
  0
LINE
  5
3cb
100
AcDbEntity
  8
text
 62
7
100
AcDbLine
 10
28.098764
 20
34.302350
 30
0.0
 11
29.500000
 21
34.835751
 31
0.0
  0
LINE
  5
3cc
100
AcDbEntity
  8
text
 62
7
100
AcDbLine
 10
28.098764
 20
35.369152
 30
0.0
 11
29.500000
 21
34.835751
 31
0.0
  0
LINE
  5
3cd
100
AcDbEntity
  8
text
 62
7
100
AcDbLine
 10
11.556191
 20
125.450316
 30
0.0
 11
11.556191
 21
123.582000
 31
0.0
  0
LINE
  5
3ce
100
AcDbEntity
  8
text
 62
7
100
AcDbLine
 10
11.556191
 20
125.450316
 30
0.0
 11
12.357704
 21
125.450316
 31
0.0
  0
LINE
  5
3cf
100
AcDbEntity
  8
text
 62
7
100
AcDbLine
 10
12.357704
 20
125.450316
 30
0.0
 11
12.622994
 21
125.360005
 31
0.0
  0
LINE
  5
3d0
100
AcDbEntity
  8
text
 62
7
100
AcDbLine
 10
12.622994
 20
125.360005
 30
0.0
 11
12.713305
 21
125.269694
 31
0.0
  0
LINE
  5
3d1
100
AcDbEntity
  8
text
 62
7
100
AcDbLine
 10
12.713305
 20
125.269694
 30
0.0
 11
12.803616
 21
125.094715
 31
0.0
  0
LINE
  5
3d2
100
AcDbEntity
  8
text
 62
7
100
AcDbLine
 10
12.803616
 20
125.094715
 30
0.0
 11
12.803616
 21
124.914093
 31
0.0
  0
LINE
  5
3d3
100
AcDbEntity
  8
text
 62
7
100
AcDbLine
 10
12.803616
 20
124.914093
 30
0.0
 11
12.713305
 21
124.739114
 31
0.0
  0
LINE
  5
3d4
100
AcDbEntity
  8
text
 62
7
100
AcDbLine
 10
12.713305
 20
124.739114
 30
0.0
 11
12.622994
 21
124.648803
 31
0.0
  0
LINE
  5
3d5
100
AcDbEntity
  8
text
 62
7
100
AcDbLine
 10
12.622994
 20
124.648803
 30
0.0
 11
12.357704
 21
124.558492
 31
0.0
  0
LINE
  5
3d6
100
AcDbEntity
  8
text
 62
7
100
AcDbLine
 10
12.357704
 20
124.558492
 30
0.0
 11
11.556191
 21
124.558492
 31
0.0
  0
LINE
  5
3d7
100
AcDbEntity
  8
text
 62
7
100
AcDbLine
 10
12.179903
 20
124.558492
 30
0.0
 11
12.803616
 21
123.582000
 31
0.0
  0
LINE
  5
3d8
100
AcDbEntity
  8
text
 62
7
100
AcDbLine
 10
13.780112
 20
124.826603
 30
0.0
 11
13.605133
 21
124.739114
 31
0.0
  0
LINE
  5
3d9
100
AcDbEntity
  8
text
 62
7
100
AcDbLine
 10
13.605133
 20
124.739114
 30
0.0
 11
13.424511
 21
124.558492
 31
0.0
  0
LINE
  5
3da
100
AcDbEntity
  8
text
 62
7
100
AcDbLine
 10
13.424511
 20
124.558492
 30
0.0
 11
13.337021
 21
124.293202
 31
0.0
  0
LINE
  5
3db
100
AcDbEntity
  8
text
 62
7
100
AcDbLine
 10
13.337021
 20
124.293202
 30
0.0
 11
13.337021
 21
124.115401
 31
0.0
  0
LINE
  5
3dc
100
AcDbEntity
  8
text
 62
7
100
AcDbLine
 10
13.337021
 20
124.115401
 30
0.0
 11
13.424511
 21
123.848701
 31
0.0
  0
LINE
  5
3dd
100
AcDbEntity
  8
text
 62
7
100
AcDbLine
 10
13.424511
 20
123.848701
 30
0.0
 11
13.605133
 21
123.670900
 31
0.0
  0
LINE
  5
3de
100
AcDbEntity
  8
text
 62
7
100
AcDbLine
 10
13.605133
 20
123.670900
 30
0.0
 11
13.780112
 21
123.582000
 31
0.0
  0
LINE
  5
3df
100
AcDbEntity
  8
text
 62
7
100
AcDbLine
 10
13.780112
 20
123.582000
 30
0.0
 11
14.048223
 21
123.582000
 31
0.0
  0
LINE
  5
3e0
100
AcDbEntity
  8
text
 62
7
100
AcDbLine
 10
14.048223
 20
123.582000
 30
0.0
 11
14.226024
 21
123.670900
 31
0.0
  0
LINE
  5
3e1
100
AcDbEntity
  8
text
 62
7
100
AcDbLine
 10
14.226024
 20
123.670900
 30
0.0
 11
14.403824
 21
123.848701
 31
0.0
  0
LINE
  5
3e2
100
AcDbEntity
  8
text
 62
7
100
AcDbLine
 10
14.403824
 20
123.848701
 30
0.0
 11
14.491314
 21
124.115401
 31
0.0
  0
LINE
  5
3e3
100
AcDbEntity
  8
text
 62
7
100
AcDbLine
 10
14.491314
 20
124.115401
 30
0.0
 11
14.491314
 21
124.293202
 31
0.0
  0
LINE
  5
3e4
100
AcDbEntity
  8
text
 62
7
100
AcDbLine
 10
14.491314
 20
124.293202
 30
0.0
 11
14.403824
 21
124.558492
 31
0.0
  0
LINE
  5
3e5
100
AcDbEntity
  8
text
 62
7
100
AcDbLine
 10
14.403824
 20
124.558492
 30
0.0
 11
14.226024
 21
124.739114
 31
0.0
  0
LINE
  5
3e6
100
AcDbEntity
  8
text
 62
7
100
AcDbLine
 10
14.226024
 20
124.739114
 30
0.0
 11
14.048223
 21
124.826603
 31
0.0
  0
LINE
  5
3e7
100
AcDbEntity
  8
text
 62
7
100
AcDbLine
 10
14.048223
 20
124.826603
 30
0.0
 11
13.780112
 21
124.826603
 31
0.0
  0
LINE
  5
3e8
100
AcDbEntity
  8
text
 62
7
100
AcDbLine
 10
15.112201
 20
125.450316
 30
0.0
 11
15.112201
 21
123.582000
 31
0.0
  0
LINE
  5
3e9
100
AcDbEntity
  8
text
 62
7
100
AcDbLine
 10
15.112201
 20
124.558492
 30
0.0
 11
15.292823
 21
124.739114
 31
0.0
  0
LINE
  5
3ea
100
AcDbEntity
  8
text
 62
7
100
AcDbLine
 10
15.292823
 20
124.739114
 30
0.0
 11
15.467802
 21
124.826603
 31
0.0
  0
LINE
  5
3eb
100
AcDbEntity
  8
text
 62
7
100
AcDbLine
 10
15.467802
 20
124.826603
 30
0.0
 11
15.735913
 21
124.826603
 31
0.0
  0
LINE
  5
3ec
100
AcDbEntity
  8
text
 62
7
100
AcDbLine
 10
15.735913
 20
124.826603
 30
0.0
 11
15.913714
 21
124.739114
 31
0.0
  0
LINE
  5
3ed
100
AcDbEntity
  8
text
 62
7
100
AcDbLine
 10
15.913714
 20
124.739114
 30
0.0
 11
16.091514
 21
124.558492
 31
0.0
  0
LINE
  5
3ee
100
AcDbEntity
  8
text
 62
7
100
AcDbLine
 10
16.091514
 20
124.558492
 30
0.0
 11
16.179004
 21
124.293202
 31
0.0
  0
LINE
  5
3ef
100
AcDbEntity
  8
text
 62
7
100
AcDbLine
 10
16.179004
 20
124.293202
 30
0.0
 11
16.179004
 21
124.115401
 31
0.0
  0
LINE
  5
3f0
100
AcDbEntity
  8
text
 62
7
100
AcDbLine
 10
16.179004
 20
124.115401
 30
0.0
 11
16.091514
 21
123.848701
 31
0.0
  0
LINE
  5
3f1
100
AcDbEntity
  8
text
 62
7
100
AcDbLine
 10
16.091514
 20
123.848701
 30
0.0
 11
15.913714
 21
123.670900
 31
0.0
  0
LINE
  5
3f2
100
AcDbEntity
  8
text
 62
7
100
AcDbLine
 10
15.913714
 20
123.670900
 30
0.0
 11
15.735913
 21
123.582000
 31
0.0
  0
LINE
  5
3f3
100
AcDbEntity
  8
text
 62
7
100
AcDbLine
 10
15.735913
 20
123.582000
 30
0.0
 11
15.467802
 21
123.582000
 31
0.0
  0
LINE
  5
3f4
100
AcDbEntity
  8
text
 62
7
100
AcDbLine
 10
15.467802
 20
123.582000
 30
0.0
 11
15.292823
 21
123.670900
 31
0.0
  0
LINE
  5
3f5
100
AcDbEntity
  8
text
 62
7
100
AcDbLine
 10
15.292823
 20
123.670900
 30
0.0
 11
15.112201
 21
123.848701
 31
0.0
  0
LINE
  5
3f6
100
AcDbEntity
  8
text
 62
7
100
AcDbLine
 10
17.155492
 20
124.826603
 30
0.0
 11
16.980513
 21
124.739114
 31
0.0
  0
LINE
  5
3f7
100
AcDbEntity
  8
text
 62
7
100
AcDbLine
 10
16.980513
 20
124.739114
 30
0.0
 11
16.799891
 21
124.558492
 31
0.0
  0
LINE
  5
3f8
100
AcDbEntity
  8
text
 62
7
100
AcDbLine
 10
16.799891
 20
124.558492
 30
0.0
 11
16.712401
 21
124.293202
 31
0.0
  0
LINE
  5
3f9
100
AcDbEntity
  8
text
 62
7
100
AcDbLine
 10
16.712401
 20
124.293202
 30
0.0
 11
16.712401
 21
124.115401
 31
0.0
  0
LINE
  5
3fa
100
AcDbEntity
  8
text
 62
7
100
AcDbLine
 10
16.712401
 20
124.115401
 30
0.0
 11
16.799891
 21
123.848701
 31
0.0
  0
LINE
  5
3fb
100
AcDbEntity
  8
text
 62
7
100
AcDbLine
 10
16.799891
 20
123.848701
 30
0.0
 11
16.980513
 21
123.670900
 31
0.0
  0
LINE
  5
3fc
100
AcDbEntity
  8
text
 62
7
100
AcDbLine
 10
16.980513
 20
123.670900
 30
0.0
 11
17.155492
 21
123.582000
 31
0.0
  0
LINE
  5
3fd
100
AcDbEntity
  8
text
 62
7
100
AcDbLine
 10
17.155492
 20
123.582000
 30
0.0
 11
17.423603
 21
123.582000
 31
0.0
  0
LINE
  5
3fe
100
AcDbEntity
  8
text
 62
7
100
AcDbLine
 10
17.423603
 20
123.582000
 30
0.0
 11
17.601404
 21
123.670900
 31
0.0
  0
LINE
  5
3ff
100
AcDbEntity
  8
text
 62
7
100
AcDbLine
 10
17.601404
 20
123.670900
 30
0.0
 11
17.779204
 21
123.848701
 31
0.0
  0
LINE
  5
400
100
AcDbEntity
  8
text
 62
7
100
AcDbLine
 10
17.779204
 20
123.848701
 30
0.0
 11
17.866694
 21
124.115401
 31
0.0
  0
LINE
  5
401
100
AcDbEntity
  8
text
 62
7
100
AcDbLine
 10
17.866694
 20
124.115401
 30
0.0
 11
17.866694
 21
124.293202
 31
0.0
  0
LINE
  5
402
100
AcDbEntity
  8
text
 62
7
100
AcDbLine
 10
17.866694
 20
124.293202
 30
0.0
 11
17.779204
 21
124.558492
 31
0.0
  0
LINE
  5
403
100
AcDbEntity
  8
text
 62
7
100
AcDbLine
 10
17.779204
 20
124.558492
 30
0.0
 11
17.601404
 21
124.739114
 31
0.0
  0
LINE
  5
404
100
AcDbEntity
  8
text
 62
7
100
AcDbLine
 10
17.601404
 20
124.739114
 30
0.0
 11
17.423603
 21
124.826603
 31
0.0
  0
LINE
  5
405
100
AcDbEntity
  8
text
 62
7
100
AcDbLine
 10
17.423603
 20
124.826603
 30
0.0
 11
17.155492
 21
124.826603
 31
0.0
  0
LINE
  5
406
100
AcDbEntity
  8
text
 62
7
100
AcDbLine
 10
18.577902
 20
125.450316
 30
0.0
 11
18.577902
 21
123.937601
 31
0.0
  0
LINE
  5
407
100
AcDbEntity
  8
text
 62
7
100
AcDbLine
 10
18.577902
 20
123.937601
 30
0.0
 11
18.668213
 21
123.670900
 31
0.0
  0
LINE
  5
408
100
AcDbEntity
  8
text
 62
7
100
AcDbLine
 10
18.668213
 20
123.670900
 30
0.0
 11
18.843192
 21
123.582000
 31
0.0
  0
LINE
  5
409
100
AcDbEntity
  8
text
 62
7
100
AcDbLine
 10
18.843192
 20
123.582000
 30
0.0
 11
19.023814
 21
123.582000
 31
0.0
  0
LINE
  5
40a
100
AcDbEntity
  8
text
 62
7
100
AcDbLine
 10
18.312612
 20
124.826603
 30
0.0
 11
18.933503
 21
124.826603
 31
0.0
  0
LINE
  5
40b
100
AcDbEntity
  8
text
 62
7
100
AcDbLine
 10
10.667191
 20
122.650316
 30
0.0
 11
10.667191
 21
120.782000
 31
0.0
  0
LINE
  5
40c
100
AcDbEntity
  8
text
 62
7
100
AcDbLine
 10
10.667191
 20
122.650316
 30
0.0
 11
11.290903
 21
122.650316
 31
0.0
  0
LINE
  5
40d
100
AcDbEntity
  8
text
 62
7
100
AcDbLine
 10
11.290903
 20
122.650316
 30
0.0
 11
11.559015
 21
122.560005
 31
0.0
  0
LINE
  5
40e
100
AcDbEntity
  8
text
 62
7
100
AcDbLine
 10
11.559015
 20
122.560005
 30
0.0
 11
11.733994
 21
122.382204
 31
0.0
  0
LINE
  5
40f
100
AcDbEntity
  8
text
 62
7
100
AcDbLine
 10
11.733994
 20
122.382204
 30
0.0
 11
11.824305
 21
122.204404
 31
0.0
  0
LINE
  5
410
100
AcDbEntity
  8
text
 62
7
100
AcDbLine
 10
11.824305
 20
122.204404
 30
0.0
 11
11.914616
 21
121.939114
 31
0.0
  0
LINE
  5
411
100
AcDbEntity
  8
text
 62
7
100
AcDbLine
 10
11.914616
 20
121.939114
 30
0.0
 11
11.914616
 21
121.493202
 31
0.0
  0
LINE
  5
412
100
AcDbEntity
  8
text
 62
7
100
AcDbLine
 10
11.914616
 20
121.493202
 30
0.0
 11
11.824305
 21
121.227912
 31
0.0
  0
LINE
  5
413
100
AcDbEntity
  8
text
 62
7
100
AcDbLine
 10
11.824305
 20
121.227912
 30
0.0
 11
11.733994
 21
121.048701
 31
0.0
  0
LINE
  5
414
100
AcDbEntity
  8
text
 62
7
100
AcDbLine
 10
11.733994
 20
121.048701
 30
0.0
 11
11.559015
 21
120.870900
 31
0.0
  0
LINE
  5
415
100
AcDbEntity
  8
text
 62
7
100
AcDbLine
 10
11.559015
 20
120.870900
 30
0.0
 11
11.290903
 21
120.782000
 31
0.0
  0
LINE
  5
416
100
AcDbEntity
  8
text
 62
7
100
AcDbLine
 10
11.290903
 20
120.782000
 30
0.0
 11
10.667191
 21
120.782000
 31
0.0
  0
LINE
  5
417
100
AcDbEntity
  8
text
 62
7
100
AcDbLine
 10
12.448021
 20
122.650316
 30
0.0
 11
12.535511
 21
122.560005
 31
0.0
  0
LINE
  5
418
100
AcDbEntity
  8
text
 62
7
100
AcDbLine
 10
12.535511
 20
122.560005
 30
0.0
 11
12.625822
 21
122.650316
 31
0.0
  0
LINE
  5
419
100
AcDbEntity
  8
text
 62
7
100
AcDbLine
 10
12.625822
 20
122.650316
 30
0.0
 11
12.535511
 21
122.737805
 31
0.0
  0
LINE
  5
41a
100
AcDbEntity
  8
text
 62
7
100
AcDbLine
 10
12.535511
 20
122.737805
 30
0.0
 11
12.448021
 21
122.650316
 31
0.0
  0
LINE
  5
41b
100
AcDbEntity
  8
text
 62
7
100
AcDbLine
 10
12.535511
 20
122.026603
 30
0.0
 11
12.535511
 21
120.782000
 31
0.0
  0
LINE
  5
41c
100
AcDbEntity
  8
text
 62
7
100
AcDbLine
 10
14.226024
 20
122.026603
 30
0.0
 11
14.226024
 21
120.782000
 31
0.0
  0
LINE
  5
41d
100
AcDbEntity
  8
text
 62
7
100
AcDbLine
 10
14.226024
 20
121.758492
 30
0.0
 11
14.048224
 21
121.939114
 31
0.0
  0
LINE
  5
41e
100
AcDbEntity
  8
text
 62
7
100
AcDbLine
 10
14.048224
 20
121.939114
 30
0.0
 11
13.870423
 21
122.026603
 31
0.0
  0
LINE
  5
41f
100
AcDbEntity
  8
text
 62
7
100
AcDbLine
 10
13.870423
 20
122.026603
 30
0.0
 11
13.602312
 21
122.026603
 31
0.0
  0
LINE
  5
420
100
AcDbEntity
  8
text
 62
7
100
AcDbLine
 10
13.602312
 20
122.026603
 30
0.0
 11
13.427333
 21
121.939114
 31
0.0
  0
LINE
  5
421
100
AcDbEntity
  8
text
 62
7
100
AcDbLine
 10
13.427333
 20
121.939114
 30
0.0
 11
13.246711
 21
121.758492
 31
0.0
  0
LINE
  5
422
100
AcDbEntity
  8
text
 62
7
100
AcDbLine
 10
13.246711
 20
121.758492
 30
0.0
 11
13.159221
 21
121.493202
 31
0.0
  0
LINE
  5
423
100
AcDbEntity
  8
text
 62
7
100
AcDbLine
 10
13.159221
 20
121.493202
 30
0.0
 11
13.159221
 21
121.315401
 31
0.0
  0
LINE
  5
424
100
AcDbEntity
  8
text
 62
7
100
AcDbLine
 10
13.159221
 20
121.315401
 30
0.0
 11
13.246711
 21
121.048701
 31
0.0
  0
LINE
  5
425
100
AcDbEntity
  8
text
 62
7
100
AcDbLine
 10
13.246711
 20
121.048701
 30
0.0
 11
13.427333
 21
120.870900
 31
0.0
  0
LINE
  5
426
100
AcDbEntity
  8
text
 62
7
100
AcDbLine
 10
13.427333
 20
120.870900
 30
0.0
 11
13.602312
 21
120.782000
 31
0.0
  0
LINE
  5
427
100
AcDbEntity
  8
text
 62
7
100
AcDbLine
 10
13.602312
 20
120.782000
 30
0.0
 11
13.870423
 21
120.782000
 31
0.0
  0
LINE
  5
428
100
AcDbEntity
  8
text
 62
7
100
AcDbLine
 10
13.870423
 20
120.782000
 30
0.0
 11
14.048224
 21
120.870900
 31
0.0
  0
LINE
  5
429
100
AcDbEntity
  8
text
 62
7
100
AcDbLine
 10
14.048224
 20
120.870900
 30
0.0
 11
14.226024
 21
121.048701
 31
0.0
  0
LINE
  5
42a
100
AcDbEntity
  8
text
 62
7
100
AcDbLine
 10
14.934401
 20
122.650316
 30
0.0
 11
14.934401
 21
120.782000
 31
0.0
  0
LINE
  5
42b
100
AcDbEntity
  8
text
 62
7
100
AcDbLine
 10
16.001202
 20
122.026603
 30
0.0
 11
15.826223
 21
121.939114
 31
0.0
  0
LINE
  5
42c
100
AcDbEntity
  8
text
 62
7
100
AcDbLine
 10
15.826223
 20
121.939114
 30
0.0
 11
15.645601
 21
121.758492
 31
0.0
  0
LINE
  5
42d
100
AcDbEntity
  8
text
 62
7
100
AcDbLine
 10
15.645601
 20
121.758492
 30
0.0
 11
15.558111
 21
121.493202
 31
0.0
  0
LINE
  5
42e
100
AcDbEntity
  8
text
 62
7
100
AcDbLine
 10
15.558111
 20
121.493202
 30
0.0
 11
15.558111
 21
121.315401
 31
0.0
  0
LINE
  5
42f
100
AcDbEntity
  8
text
 62
7
100
AcDbLine
 10
15.558111
 20
121.315401
 30
0.0
 11
15.645601
 21
121.048701
 31
0.0
  0
LINE
  5
430
100
AcDbEntity
  8
text
 62
7
100
AcDbLine
 10
15.645601
 20
121.048701
 30
0.0
 11
15.826223
 21
120.870900
 31
0.0
  0
LINE
  5
431
100
AcDbEntity
  8
text
 62
7
100
AcDbLine
 10
15.826223
 20
120.870900
 30
0.0
 11
16.001202
 21
120.782000
 31
0.0
  0
LINE
  5
432
100
AcDbEntity
  8
text
 62
7
100
AcDbLine
 10
16.001202
 20
120.782000
 30
0.0
 11
16.269313
 21
120.782000
 31
0.0
  0
LINE
  5
433
100
AcDbEntity
  8
text
 62
7
100
AcDbLine
 10
16.269313
 20
120.782000
 30
0.0
 11
16.447114
 21
120.870900
 31
0.0
  0
LINE
  5
434
100
AcDbEntity
  8
text
 62
7
100
AcDbLine
 10
16.447114
 20
120.870900
 30
0.0
 11
16.624914
 21
121.048701
 31
0.0
  0
LINE
  5
435
100
AcDbEntity
  8
text
 62
7
100
AcDbLine
 10
16.624914
 20
121.048701
 30
0.0
 11
16.712404
 21
121.315401
 31
0.0
  0
LINE
  5
436
100
AcDbEntity
  8
text
 62
7
100
AcDbLine
 10
16.712404
 20
121.315401
 30
0.0
 11
16.712404
 21
121.493202
 31
0.0
  0
LINE
  5
437
100
AcDbEntity
  8
text
 62
7
100
AcDbLine
 10
16.712404
 20
121.493202
 30
0.0
 11
16.624914
 21
121.758492
 31
0.0
  0
LINE
  5
438
100
AcDbEntity
  8
text
 62
7
100
AcDbLine
 10
16.624914
 20
121.758492
 30
0.0
 11
16.447114
 21
121.939114
 31
0.0
  0
LINE
  5
439
100
AcDbEntity
  8
text
 62
7
100
AcDbLine
 10
16.447114
 20
121.939114
 30
0.0
 11
16.269313
 21
122.026603
 31
0.0
  0
LINE
  5
43a
100
AcDbEntity
  8
text
 62
7
100
AcDbLine
 10
16.269313
 20
122.026603
 30
0.0
 11
16.001202
 21
122.026603
 31
0.0
  0
LINE
  5
43b
100
AcDbEntity
  8
text
 62
7
100
AcDbLine
 10
18.312614
 20
122.026603
 30
0.0
 11
18.312614
 21
120.604200
 31
0.0
  0
LINE
  5
43c
100
AcDbEntity
  8
text
 62
7
100
AcDbLine
 10
18.312614
 20
120.604200
 30
0.0
 11
18.225125
 21
120.336088
 31
0.0
  0
LINE
  5
43d
100
AcDbEntity
  8
text
 62
7
100
AcDbLine
 10
18.225125
 20
120.336088
 30
0.0
 11
18.134814
 21
120.248599
 31
0.0
  0
LINE
  5
43e
100
AcDbEntity
  8
text
 62
7
100
AcDbLine
 10
18.134814
 20
120.248599
 30
0.0
 11
17.957013
 21
120.161109
 31
0.0
  0
LINE
  5
43f
100
AcDbEntity
  8
text
 62
7
100
AcDbLine
 10
17.957013
 20
120.161109
 30
0.0
 11
17.688902
 21
120.161109
 31
0.0
  0
LINE
  5
440
100
AcDbEntity
  8
text
 62
7
100
AcDbLine
 10
17.688902
 20
120.161109
 30
0.0
 11
17.513923
 21
120.248599
 31
0.0
  0
LINE
  5
441
100
AcDbEntity
  8
text
 62
7
100
AcDbLine
 10
18.312614
 20
121.758492
 30
0.0
 11
18.134814
 21
121.939114
 31
0.0
  0
LINE
  5
442
100
AcDbEntity
  8
text
 62
7
100
AcDbLine
 10
18.134814
 20
121.939114
 30
0.0
 11
17.957013
 21
122.026603
 31
0.0
  0
LINE
  5
443
100
AcDbEntity
  8
text
 62
7
100
AcDbLine
 10
17.957013
 20
122.026603
 30
0.0
 11
17.688902
 21
122.026603
 31
0.0
  0
LINE
  5
444
100
AcDbEntity
  8
text
 62
7
100
AcDbLine
 10
17.688902
 20
122.026603
 30
0.0
 11
17.513923
 21
121.939114
 31
0.0
  0
LINE
  5
445
100
AcDbEntity
  8
text
 62
7
100
AcDbLine
 10
17.513923
 20
121.939114
 30
0.0
 11
17.333301
 21
121.758492
 31
0.0
  0
LINE
  5
446
100
AcDbEntity
  8
text
 62
7
100
AcDbLine
 10
17.333301
 20
121.758492
 30
0.0
 11
17.245811
 21
121.493202
 31
0.0
  0
LINE
  5
447
100
AcDbEntity
  8
text
 62
7
100
AcDbLine
 10
17.245811
 20
121.493202
 30
0.0
 11
17.245811
 21
121.315401
 31
0.0
  0
LINE
  5
448
100
AcDbEntity
  8
text
 62
7
100
AcDbLine
 10
17.245811
 20
121.315401
 30
0.0
 11
17.333301
 21
121.048701
 31
0.0
  0
LINE
  5
449
100
AcDbEntity
  8
text
 62
7
100
AcDbLine
 10
17.333301
 20
121.048701
 30
0.0
 11
17.513923
 21
120.870900
 31
0.0
  0
LINE
  5
44a
100
AcDbEntity
  8
text
 62
7
100
AcDbLine
 10
17.513923
 20
120.870900
 30
0.0
 11
17.688902
 21
120.782000
 31
0.0
  0
LINE
  5
44b
100
AcDbEntity
  8
text
 62
7
100
AcDbLine
 10
17.688902
 20
120.782000
 30
0.0
 11
17.957013
 21
120.782000
 31
0.0
  0
LINE
  5
44c
100
AcDbEntity
  8
text
 62
7
100
AcDbLine
 10
17.957013
 20
120.782000
 30
0.0
 11
18.134814
 21
120.870900
 31
0.0
  0
LINE
  5
44d
100
AcDbEntity
  8
text
 62
7
100
AcDbLine
 10
18.134814
 20
120.870900
 30
0.0
 11
18.312614
 21
121.048701
 31
0.0
  0
LINE
  5
44e
100
AcDbEntity
  8
text
 62
7
100
AcDbLine
 10
19.912815
 20
121.758492
 30
0.0
 11
19.822504
 21
121.939114
 31
0.0
  0
LINE
  5
44f
100
AcDbEntity
  8
text
 62
7
100
AcDbLine
 10
19.822504
 20
121.939114
 30
0.0
 11
19.557214
 21
122.026603
 31
0.0
  0
LINE
  5
450
100
AcDbEntity
  8
text
 62
7
100
AcDbLine
 10
19.557214
 20
122.026603
 30
0.0
 11
19.289102
 21
122.026603
 31
0.0
  0
LINE
  5
451
100
AcDbEntity
  8
text
 62
7
100
AcDbLine
 10
19.289102
 20
122.026603
 30
0.0
 11
19.020991
 21
121.939114
 31
0.0
  0
LINE
  5
452
100
AcDbEntity
  8
text
 62
7
100
AcDbLine
 10
19.020991
 20
121.939114
 30
0.0
 11
18.933501
 21
121.758492
 31
0.0
  0
LINE
  5
453
100
AcDbEntity
  8
text
 62
7
100
AcDbLine
 10
18.933501
 20
121.758492
 30
0.0
 11
19.020991
 21
121.583513
 31
0.0
  0
LINE
  5
454
100
AcDbEntity
  8
text
 62
7
100
AcDbLine
 10
19.020991
 20
121.583513
 30
0.0
 11
19.201613
 21
121.493202
 31
0.0
  0
LINE
  5
455
100
AcDbEntity
  8
text
 62
7
100
AcDbLine
 10
19.201613
 20
121.493202
 30
0.0
 11
19.644703
 21
121.402891
 31
0.0
  0
LINE
  5
456
100
AcDbEntity
  8
text
 62
7
100
AcDbLine
 10
19.644703
 20
121.402891
 30
0.0
 11
19.822504
 21
121.315401
 31
0.0
  0
LINE
  5
457
100
AcDbEntity
  8
text
 62
7
100
AcDbLine
 10
19.822504
 20
121.315401
 30
0.0
 11
19.912815
 21
121.137601
 31
0.0
  0
LINE
  5
458
100
AcDbEntity
  8
text
 62
7
100
AcDbLine
 10
19.912815
 20
121.137601
 30
0.0
 11
19.912815
 21
121.048701
 31
0.0
  0
LINE
  5
459
100
AcDbEntity
  8
text
 62
7
100
AcDbLine
 10
19.912815
 20
121.048701
 30
0.0
 11
19.822504
 21
120.870900
 31
0.0
  0
LINE
  5
45a
100
AcDbEntity
  8
text
 62
7
100
AcDbLine
 10
19.822504
 20
120.870900
 30
0.0
 11
19.557214
 21
120.782000
 31
0.0
  0
LINE
  5
45b
100
AcDbEntity
  8
text
 62
7
100
AcDbLine
 10
19.557214
 20
120.782000
 30
0.0
 11
19.289102
 21
120.782000
 31
0.0
  0
LINE
  5
45c
100
AcDbEntity
  8
text
 62
7
100
AcDbLine
 10
19.289102
 20
120.782000
 30
0.0
 11
19.020991
 21
120.870900
 31
0.0
  0
LINE
  5
45d
100
AcDbEntity
  8
text
 62
7
100
AcDbLine
 10
19.020991
 20
120.870900
 30
0.0
 11
18.933501
 21
121.048701
 31
0.0
  0
LINE
  5
45e
100
AcDbEntity
  8
text
 62
7
100
AcDbLine
 10
1.080764
 20
29.630868
 30
0.0
 11
1.148497
 21
29.431901
 31
0.0
  0
LINE
  5
45f
100
AcDbEntity
  8
text
 62
7
100
AcDbLine
 10
1.148497
 20
29.431901
 30
0.0
 11
1.347464
 21
29.296434
 31
0.0
  0
LINE
  5
460
100
AcDbEntity
  8
text
 62
7
100
AcDbLine
 10
1.347464
 20
29.296434
 30
0.0
 11
1.681898
 21
29.230817
 31
0.0
  0
LINE
  5
461
100
AcDbEntity
  8
text
 62
7
100
AcDbLine
 10
1.681898
 20
29.230817
 30
0.0
 11
1.880865
 21
29.230817
 31
0.0
  0
LINE
  5
462
100
AcDbEntity
  8
text
 62
7
100
AcDbLine
 10
1.880865
 20
29.230817
 30
0.0
 11
2.215300
 21
29.296434
 31
0.0
  0
LINE
  5
463
100
AcDbEntity
  8
text
 62
7
100
AcDbLine
 10
2.215300
 20
29.296434
 30
0.0
 11
2.415325
 21
29.431901
 31
0.0
  0
LINE
  5
464
100
AcDbEntity
  8
text
 62
7
100
AcDbLine
 10
2.415325
 20
29.431901
 30
0.0
 11
2.482000
 21
29.630868
 31
0.0
  0
LINE
  5
465
100
AcDbEntity
  8
text
 62
7
100
AcDbLine
 10
2.482000
 20
29.630868
 30
0.0
 11
2.482000
 21
29.764218
 31
0.0
  0
LINE
  5
466
100
AcDbEntity
  8
text
 62
7
100
AcDbLine
 10
2.482000
 20
29.764218
 30
0.0
 11
2.415325
 21
29.965302
 31
0.0
  0
LINE
  5
467
100
AcDbEntity
  8
text
 62
7
100
AcDbLine
 10
2.415325
 20
29.965302
 30
0.0
 11
2.215300
 21
30.096535
 31
0.0
  0
LINE
  5
468
100
AcDbEntity
  8
text
 62
7
100
AcDbLine
 10
2.215300
 20
30.096535
 30
0.0
 11
1.880866
 21
30.164269
 31
0.0
  0
LINE
  5
469
100
AcDbEntity
  8
text
 62
7
100
AcDbLine
 10
1.880866
 20
30.164269
 30
0.0
 11
1.681899
 21
30.164269
 31
0.0
  0
LINE
  5
46a
100
AcDbEntity
  8
text
 62
7
100
AcDbLine
 10
1.681899
 20
30.164269
 30
0.0
 11
1.347465
 21
30.096535
 31
0.0
  0
LINE
  5
46b
100
AcDbEntity
  8
text
 62
7
100
AcDbLine
 10
1.347465
 20
30.096535
 30
0.0
 11
1.148498
 21
29.965302
 31
0.0
  0
LINE
  5
46c
100
AcDbEntity
  8
text
 62
7
100
AcDbLine
 10
1.148498
 20
29.965302
 30
0.0
 11
1.080764
 21
29.764218
 31
0.0
  0
LINE
  5
46d
100
AcDbEntity
  8
text
 62
7
100
AcDbLine
 10
1.080764
 20
29.764218
 30
0.0
 11
1.080764
 21
29.630868
 31
0.0
  0
LINE
  5
46e
100
AcDbEntity
  8
text
 62
7
100
AcDbLine
 10
1.831382
 20
30.604373
 30
0.0
 11
1.831382
 21
31.563810
 31
0.0
  0
LINE
  5
46f
100
AcDbEntity
  8
text
 62
7
100
AcDbLine
 10
1.347465
 20
31.969784
 30
0.0
 11
1.281848
 21
32.101018
 31
0.0
  0
LINE
  5
470
100
AcDbEntity
  8
text
 62
7
100
AcDbLine
 10
1.281848
 20
32.101018
 30
0.0
 11
1.080764
 21
32.302101
 31
0.0
  0
LINE
  5
471
100
AcDbEntity
  8
text
 62
7
100
AcDbLine
 10
1.080764
 20
32.302101
 30
0.0
 11
2.482000
 21
32.302101
 31
0.0
  0
LINE
  5
472
100
AcDbEntity
  8
text
 62
7
100
AcDbLine
 10
1.080764
 20
33.502251
 30
0.0
 11
1.148498
 21
33.303284
 31
0.0
  0
LINE
  5
473
100
AcDbEntity
  8
text
 62
7
100
AcDbLine
 10
1.148498
 20
33.303284
 30
0.0
 11
1.347465
 21
33.167817
 31
0.0
  0
LINE
  5
474
100
AcDbEntity
  8
text
 62
7
100
AcDbLine
 10
1.347465
 20
33.167817
 30
0.0
 11
1.681899
 21
33.102201
 31
0.0
  0
LINE
  5
475
100
AcDbEntity
  8
text
 62
7
100
AcDbLine
 10
1.681899
 20
33.102201
 30
0.0
 11
1.880866
 21
33.102201
 31
0.0
  0
LINE
  5
476
100
AcDbEntity
  8
text
 62
7
100
AcDbLine
 10
1.880866
 20
33.102201
 30
0.0
 11
2.215300
 21
33.167817
 31
0.0
  0
LINE
  5
477
100
AcDbEntity
  8
text
 62
7
100
AcDbLine
 10
2.215300
 20
33.167817
 30
0.0
 11
2.415325
 21
33.303284
 31
0.0
  0
LINE
  5
478
100
AcDbEntity
  8
text
 62
7
100
AcDbLine
 10
2.415325
 20
33.303284
 30
0.0
 11
2.482000
 21
33.502251
 31
0.0
  0
LINE
  5
479
100
AcDbEntity
  8
text
 62
7
100
AcDbLine
 10
2.482000
 20
33.502251
 30
0.0
 11
2.482000
 21
33.635601
 31
0.0
  0
LINE
  5
47a
100
AcDbEntity
  8
text
 62
7
100
AcDbLine
 10
2.482000
 20
33.635601
 30
0.0
 11
2.415325
 21
33.836685
 31
0.0
  0
LINE
  5
47b
100
AcDbEntity
  8
text
 62
7
100
AcDbLine
 10
2.415325
 20
33.836685
 30
0.0
 11
2.215300
 21
33.967919
 31
0.0
  0
LINE
  5
47c
100
AcDbEntity
  8
text
 62
7
100
AcDbLine
 10
2.215300
 20
33.967919
 30
0.0
 11
1.880866
 21
34.035652
 31
0.0
  0
LINE
  5
47d
100
AcDbEntity
  8
text
 62
7
100
AcDbLine
 10
1.880866
 20
34.035652
 30
0.0
 11
1.681899
 21
34.035652
 31
0.0
  0
LINE
  5
47e
100
AcDbEntity
  8
text
 62
7
100
AcDbLine
 10
1.681899
 20
34.035652
 30
0.0
 11
1.347465
 21
33.967919
 31
0.0
  0
LINE
  5
47f
100
AcDbEntity
  8
text
 62
7
100
AcDbLine
 10
1.347465
 20
33.967919
 30
0.0
 11
1.148498
 21
33.836685
 31
0.0
  0
LINE
  5
480
100
AcDbEntity
  8
text
 62
7
100
AcDbLine
 10
1.148498
 20
33.836685
 30
0.0
 11
1.080764
 21
33.635601
 31
0.0
  0
LINE
  5
481
100
AcDbEntity
  8
text
 62
7
100
AcDbLine
 10
1.080764
 20
33.635601
 30
0.0
 11
1.080764
 21
33.502251
 31
0.0
  0
LINE
  5
482
100
AcDbEntity
  8
text
 62
7
100
AcDbLine
 10
1.080764
 20
34.302350
 30
0.0
 11
2.482000
 21
34.835751
 31
0.0
  0
LINE
  5
483
100
AcDbEntity
  8
text
 62
7
100
AcDbLine
 10
1.080764
 20
35.369152
 30
0.0
 11
2.482000
 21
34.835751
 31
0.0
  0
ENDSEC
  0
SECTION
  2
OBJECTS
  0
DICTIONARY
  5
C
330
0
100
AcDbDictionary
  3
ACAD_GROUP
350
D
  3
ACAD_MLINESTYLE
350
17
  0
DICTIONARY
  5
D
330
C
100
AcDbDictionary
  0
DICTIONARY
  5
1A
330
C
100
AcDbDictionary
  0
DICTIONARY
  5
17
330
C
100
AcDbDictionary
  3
STANDARD
350
18
  0
DICTIONARY
  5
19
330
C
100
AcDbDictionary
  0
ENDSEC
  0
EOF
